<svg width="34" height="34" viewBox="0 0 34 34" fill="none" xmlns="http://www.w3.org/2000/svg">
<g clip-path="url(#clip0_3_1038)">
<path d="M13.6154 19.8854L4.07501 14.3782C3.66352 14.1384 3.1957 14.0124 2.71947 14.0128C2.12134 14.0128 1.53993 14.2101 1.06533 14.5741C0.590728 14.9381 0.249457 15.4485 0.0943948 16.0262C-0.0606677 16.6039 -0.0208552 17.2166 0.207662 17.7693C0.43618 18.3221 0.84064 18.784 1.35836 19.0835L10.8987 24.5907C11.5225 24.9476 12.2623 25.0428 12.956 24.8554C13.6498 24.6681 14.2411 24.2134 14.6005 23.5911C14.9598 22.9687 15.0579 22.2293 14.8732 21.5348C14.6886 20.8403 14.2363 20.2472 13.6154 19.8854V19.8854Z" fill="white"/>
<path d="M32.6417 14.3726L23.1013 8.86812C22.7923 8.68807 22.4508 8.57082 22.0963 8.52308C21.7419 8.47535 21.3815 8.49808 21.0358 8.58996C20.6902 8.68185 20.366 8.84108 20.0821 9.05853C19.7981 9.27598 19.5599 9.54736 19.3811 9.8571C19.2022 10.1668 19.0863 10.5088 19.04 10.8635C18.9936 11.2181 19.0178 11.5784 19.111 11.9237C19.2043 12.269 19.3648 12.5925 19.5834 12.8756C19.8019 13.1587 20.0743 13.3958 20.3847 13.5735L29.9251 19.0821C30.5488 19.4389 31.2886 19.5341 31.9824 19.3467C32.6762 19.1594 33.2675 18.7047 33.6268 18.0824C33.9861 17.46 34.0842 16.7206 33.8996 16.0261C33.715 15.3316 33.2627 14.7385 32.6417 14.3767V14.3726Z" fill="white"/>
<path d="M29.5513 19.732L25.0886 17.1604L20.3847 19.8854C20.0743 20.063 19.8019 20.3002 19.5834 20.5833C19.3648 20.8664 19.2043 21.1899 19.111 21.5352C19.0178 21.8804 18.9936 22.2408 19.04 22.5954C19.0863 22.95 19.2022 23.292 19.3811 23.6018C19.5599 23.9115 19.7981 24.1829 20.0821 24.4004C20.366 24.6178 20.6902 24.777 21.0358 24.8689C21.3815 24.9608 21.7419 24.9835 22.0963 24.9358C22.4508 24.8881 22.7923 24.7708 23.1013 24.5908L30.7716 20.1629C30.3414 20.0972 29.9274 19.951 29.5513 19.732V19.732Z" fill="white"/>
<path d="M4.44878 13.7172L8.91145 16.2888L13.621 13.5693C14.2307 13.2015 14.6716 12.609 14.8489 11.9194C15.0261 11.2297 14.9255 10.498 14.5687 9.88182C14.2119 9.2656 13.6274 8.81411 12.941 8.62454C12.2546 8.43496 11.5212 8.52246 10.8987 8.86819L3.22852 13.296C3.65794 13.3592 4.07179 13.502 4.44878 13.7172V13.7172Z" fill="white"/>
</g>
<defs>
<clipPath id="clip0_3_1038">
<rect width="34" height="16.4505" fill="white" transform="translate(0 8.5)"/>
</clipPath>
</defs>
</svg>
