<svg xmlns="http://www.w3.org/2000/svg" width="132.651" height="32.908" viewBox="0 0 132.651 32.908">
  <path id="Path_20" data-name="Path 20" d="M2.88-28.6H9.863L22.672-8.045h.356l-.356-5.91V-28.6h5.96V2.062H22.316L8.8-19.652H8.44l.356,5.91v15.8H2.88Zm41.764,8.994a12.536,12.536,0,0,1,4.648.835,11.046,11.046,0,0,1,3.647,2.313,10.517,10.517,0,0,1,2.4,3.533,11.453,11.453,0,0,1,.867,4.5,11.453,11.453,0,0,1-.867,4.5A10.517,10.517,0,0,1,52.938-.4a11.046,11.046,0,0,1-3.647,2.313,12.536,12.536,0,0,1-4.648.835A12.536,12.536,0,0,1,40,1.913,11.046,11.046,0,0,1,36.349-.4a10.517,10.517,0,0,1-2.4-3.533,11.453,11.453,0,0,1-.867-4.5,11.453,11.453,0,0,1,.867-4.5,10.517,10.517,0,0,1,2.4-3.533A11.046,11.046,0,0,1,40-18.774,12.536,12.536,0,0,1,44.644-19.609Zm0,17.174A5.9,5.9,0,0,0,46.8-2.841a5.522,5.522,0,0,0,1.846-1.178A5.566,5.566,0,0,0,49.914-5.9a6.481,6.481,0,0,0,.467-2.527,6.481,6.481,0,0,0-.467-2.527,5.566,5.566,0,0,0-1.268-1.884A5.522,5.522,0,0,0,46.8-14.02a5.9,5.9,0,0,0-2.157-.407,5.842,5.842,0,0,0-2.179.407,5.578,5.578,0,0,0-1.824,1.178,5.567,5.567,0,0,0-1.268,1.884,6.481,6.481,0,0,0-.467,2.527A6.481,6.481,0,0,0,39.373-5.9a5.567,5.567,0,0,0,1.268,1.884,5.578,5.578,0,0,0,1.824,1.178A5.842,5.842,0,0,0,44.644-2.435ZM61.678-14.127H57.853v-4.8h3.825v-6.424H67.5v6.424h5.337v4.8H67.5v8.138A5.54,5.54,0,0,0,67.66-4.64a2.151,2.151,0,0,0,.6,1.049,2.281,2.281,0,0,0,1.779.685,3.877,3.877,0,0,0,1.2-.15,3.814,3.814,0,0,0,.845-.407l1.646,4.925a9.864,9.864,0,0,1-2.2.707,13.3,13.3,0,0,1-2.6.236,8.368,8.368,0,0,1-2.958-.493,6.336,6.336,0,0,1-2.2-1.349,7.084,7.084,0,0,1-2.09-5.482Zm18.9-7.838a3.824,3.824,0,0,1-1.445-.278,3.719,3.719,0,0,1-1.2-.771,3.631,3.631,0,0,1-.8-1.135,3.4,3.4,0,0,1-.289-1.413,3.4,3.4,0,0,1,.289-1.413,3.631,3.631,0,0,1,.8-1.135,3.719,3.719,0,0,1,1.2-.771,3.824,3.824,0,0,1,1.445-.278,3.751,3.751,0,0,1,2.669,1.049,3.374,3.374,0,0,1,1.112,2.548,3.374,3.374,0,0,1-1.112,2.548A3.751,3.751,0,0,1,80.581-21.965ZM77.69,2.062V-18.924h5.826V2.062ZM98.95-19.609a12.536,12.536,0,0,1,4.648.835,11.046,11.046,0,0,1,3.647,2.313,10.517,10.517,0,0,1,2.4,3.533,11.453,11.453,0,0,1,.867,4.5,11.453,11.453,0,0,1-.867,4.5,10.517,10.517,0,0,1-2.4,3.533A11.046,11.046,0,0,1,103.6,1.913a12.536,12.536,0,0,1-4.648.835A12.536,12.536,0,0,1,94.3,1.913,11.046,11.046,0,0,1,90.655-.4a10.517,10.517,0,0,1-2.4-3.533,11.453,11.453,0,0,1-.867-4.5,11.453,11.453,0,0,1,.867-4.5,10.517,10.517,0,0,1,2.4-3.533A11.046,11.046,0,0,1,94.3-18.774,12.536,12.536,0,0,1,98.95-19.609Zm0,17.174a5.9,5.9,0,0,0,2.157-.407,5.522,5.522,0,0,0,1.846-1.178A5.567,5.567,0,0,0,104.22-5.9a6.481,6.481,0,0,0,.467-2.527,6.481,6.481,0,0,0-.467-2.527,5.567,5.567,0,0,0-1.268-1.884,5.522,5.522,0,0,0-1.846-1.178,5.9,5.9,0,0,0-2.157-.407,5.842,5.842,0,0,0-2.179.407,5.578,5.578,0,0,0-1.824,1.178,5.566,5.566,0,0,0-1.268,1.884,6.481,6.481,0,0,0-.467,2.527A6.481,6.481,0,0,0,93.679-5.9a5.566,5.566,0,0,0,1.268,1.884A5.578,5.578,0,0,0,96.77-2.841,5.842,5.842,0,0,0,98.95-2.435Zm20.326-13.748h.356a7.277,7.277,0,0,1,2.758-2.506,8.312,8.312,0,0,1,3.958-.921,9.388,9.388,0,0,1,3.6.642,6.587,6.587,0,0,1,2.557,1.82,7.937,7.937,0,0,1,1.512,2.827,12.324,12.324,0,0,1,.511,3.662V2.062H128.7V-9.973a4.71,4.71,0,0,0-1.045-3.362,4.022,4.022,0,0,0-3.047-1.092,4.377,4.377,0,0,0-2.113.493,4.878,4.878,0,0,0-1.557,1.328,5.916,5.916,0,0,0-.978,1.97,8.542,8.542,0,0,0-.334,2.42V2.062H113.8V-18.924h5.471Z" transform="translate(-2.38 29.66)" stroke="#000" stroke-width="1"/>
</svg>
