<svg width="24" height="24" viewBox="0 0 24 24" fill="none" xmlns="http://www.w3.org/2000/svg">
<path d="M14.7015 9.1L12.5 11.3015L10.2985 9.1L9.1 10.2985L11.3015 12.5L9.1 14.7015L10.2985 15.9L12.5 13.6985L14.7015 15.9L15.9 14.7015L13.6985 12.5L15.9 10.2985L14.7015 9.1ZM12.5 4C7.7995 4 4 7.7995 4 12.5C4 17.2005 7.7995 21 12.5 21C17.2005 21 21 17.2005 21 12.5C21 7.7995 17.2005 4 12.5 4ZM12.5 19.3C8.7515 19.3 5.7 16.2485 5.7 12.5C5.7 8.7515 8.7515 5.7 12.5 5.7C16.2485 5.7 19.3 8.7515 19.3 12.5C19.3 16.2485 16.2485 19.3 12.5 19.3Z" fill="#F44336"/>
</svg>
