<svg xmlns="http://www.w3.org/2000/svg" height="11.043" viewBox="0 0 22.284 11.043">
  <g id="Group_1" data-name="Group 1" transform="translate(-444 -237)">
    <rect id="Rectangle_1" data-name="Rectangle 1" width="22.284" height="11.043" transform="translate(444 237)" fill="none"/>
    <g id="google-developers-seeklogo.com" transform="translate(444.936 237.55)">
      <path id="Path_1" data-name="Path 1" d="M146.4,43.642c1.077-.619,2.151-1.242,3.232-1.855a1.636,1.636,0,0,1,2.466,1.086,1.614,1.614,0,0,1-.748,1.706q-2.905,1.693-5.826,3.36a1.525,1.525,0,0,1-1.775-.14,1.609,1.609,0,0,1-.6-1.7,1.86,1.86,0,0,1,.959-1.13c.772-.431,1.531-.884,2.3-1.328" transform="translate(-131.662 -38.228)" fill="#fabc05"/>
      <path id="Path_2" data-name="Path 2" d="M147.237,5.05c-1.074-.623-2.152-1.242-3.222-1.872A1.636,1.636,0,0,1,143.722.5a1.614,1.614,0,0,1,1.851-.2q2.919,1.669,5.823,3.365a1.526,1.526,0,0,1,.766,1.607,1.61,1.61,0,0,1-1.169,1.372,1.86,1.86,0,0,1-1.458-.265c-.759-.453-1.531-.884-2.3-1.324" transform="translate(-131.706 -0.086)" fill="#109d58"/>
      <path id="Path_3" data-name="Path 3" d="M5.738,4.524Q4.7,5.111,3.67,5.7c-.4.23-.8.468-1.206.694a1.638,1.638,0,0,1-1.65-2.83Q3.7,1.88,6.595.227A1.529,1.529,0,0,1,8.351.335a1.63,1.63,0,0,1,.638,1.728,2.035,2.035,0,0,1-.249.5,3.158,3.158,0,0,1-.668.58c-.769.474-1.555.92-2.334,1.377" transform="translate(0 0)" fill="#e94436"/>
      <path id="Path_4" data-name="Path 4" d="M4.967,43.264q1.026.6,2.052,1.2c.4.234.805.46,1.2.7A1.638,1.638,0,0,1,6.6,48.009Q3.7,46.354.817,44.671A1.529,1.529,0,0,1,.033,43.1,1.63,1.63,0,0,1,1.21,41.678a2.036,2.036,0,0,1,.561-.036,3.158,3.158,0,0,1,.836.288c.795.429,1.574.886,2.359,1.333" transform="translate(-0.019 -38.301)" fill="#4385f3"/>
    </g>
  </g>
</svg>
