<svg width="28" height="28" viewBox="0 0 28 28" fill="none" xmlns="http://www.w3.org/2000/svg">
<path d="M25.6539 13.937C25.6539 14.2478 25.5915 14.5555 25.4704 14.8417C25.3493 15.128 25.172 15.387 24.949 15.6035C24.726 15.82 24.4618 15.9896 24.172 16.1021C23.8823 16.2146 23.5729 16.2679 23.2623 16.2587L17.7346 16.0965L13.7049 24.43C13.3818 25.0997 12.7016 25.5267 11.9573 25.5267C11.8044 25.5268 11.6532 25.4944 11.5138 25.4318C11.3743 25.3692 11.2498 25.2776 11.1483 25.1633C11.0469 25.0489 10.9708 24.9143 10.9253 24.7684C10.8797 24.6225 10.8656 24.4686 10.8839 24.3168L11.8908 15.925L7.49825 15.7967L6.92658 17.3612C6.82069 17.6508 6.62838 17.9009 6.37569 18.0776C6.123 18.2543 5.82212 18.3492 5.51375 18.3493C5.37561 18.3493 5.23883 18.3221 5.11122 18.2692C4.98361 18.2163 4.86768 18.1388 4.77005 18.041C4.67243 17.9433 4.59502 17.8273 4.54226 17.6996C4.48951 17.5719 4.46243 17.4351 4.46258 17.297V15.575L3.51758 15.3778C3.18661 15.3089 2.88947 15.128 2.67618 14.8657C2.46288 14.6034 2.34644 14.2757 2.34644 13.9376C2.34644 13.5995 2.46288 13.2717 2.67618 13.0094C2.88947 12.7471 3.18661 12.5663 3.51758 12.4973L4.46258 12.3013V10.577C4.4623 10.3209 4.55559 10.0736 4.72489 9.88153C4.8942 9.68945 5.12786 9.56585 5.38192 9.53399L5.51375 9.52582C5.82178 9.5261 6.1223 9.6209 6.37475 9.7974C6.62719 9.9739 6.8194 10.2236 6.92542 10.5128L7.49942 12.0762L11.8756 11.9478L10.8839 3.68315C10.8817 3.66182 10.8802 3.64042 10.8793 3.61899L10.8769 3.55482C10.8769 2.95865 11.3611 2.47449 11.9573 2.47449C12.6398 2.47449 13.2674 2.83265 13.6174 3.40782L13.7049 3.57115L17.6751 11.7787L23.2634 11.6153C23.8792 11.5974 24.4768 11.8248 24.9249 12.2475C25.3729 12.6702 25.6348 13.2536 25.6528 13.8693V13.937H25.6539Z" fill="#F8F8F8"/>
</svg>
