<svg width="50" height="50" viewBox="0 0 50 50" fill="none" xmlns="http://www.w3.org/2000/svg">
<g clip-path="url(#clip0_20_1680)">
<path d="M18.1227 13.0712L22.1599 17.4893L29.9466 16.8745L22.0754 12.3605C21.9971 12.3183 21.9093 12.2968 21.8204 12.2982L18.5112 12.2069C18.4092 12.2024 18.3082 12.2287 18.2214 12.2823C18.1345 12.3358 18.0657 12.4142 18.0239 12.5073C17.982 12.6004 17.9691 12.7039 17.9867 12.8044C18.0043 12.905 18.0517 12.9979 18.1227 13.0712Z" fill="#4385F3"/>
<path d="M44.9169 23.4484L40.254 18.999C39.8622 18.6243 39.3943 18.3382 38.8822 18.1602C38.3701 17.9823 37.8257 17.9165 37.2859 17.9675L13.8348 19.8263L10.0416 17.2696C9.82303 17.1253 9.56463 17.0534 9.30293 17.0639C9.04122 17.0744 8.78943 17.1669 8.58311 17.3282C8.37679 17.4895 8.22636 17.7116 8.15306 17.9631C8.07976 18.2145 8.0873 18.4826 8.17461 18.7296L10.1267 24.0637C10.1583 24.1523 10.2122 24.2314 10.2831 24.2933C10.354 24.3552 10.4396 24.3978 10.5317 24.4172C11.8707 24.6624 17.2153 24.9914 23.5858 25.2919L18.5312 35.6931C18.4872 35.7831 18.4687 35.8834 18.4776 35.9831C18.4864 36.0828 18.5223 36.1783 18.5814 36.2591C18.6406 36.3399 18.7206 36.4031 18.813 36.4418C18.9053 36.4805 19.0065 36.4932 19.1056 36.4786L22.3238 36.01C22.5004 35.9835 22.6621 35.8957 22.7805 35.7619L31.741 25.6649C36.3115 25.8601 40.6921 26.021 43.7799 26.1292C44.0973 26.1454 44.412 26.0636 44.6814 25.895C44.9508 25.7263 45.1618 25.479 45.2859 25.1864C45.41 24.8938 45.4412 24.5702 45.3752 24.2593C45.3092 23.9484 45.1492 23.6653 44.9169 23.4484Z" fill="#4385F3"/>
</g>
<defs>
<clipPath id="clip0_20_1680">
<rect width="36" height="36" fill="white" transform="translate(18.7969) rotate(31.4757)"/>
</clipPath>
</defs>
</svg>
