<svg width="192" height="192" viewBox="0 0 192 192" fill="none" xmlns="http://www.w3.org/2000/svg">
<g clip-path="url(#clip0_405_139)">
<path d="M69.6001 127.2L38.4001 96L69.6001 64.8C72.7201 61.68 72.7201 56.72 69.6001 53.6C66.4801 50.48 61.5201 50.48 58.4001 53.6L21.6801 90.32C18.5601 93.44 18.5601 98.48 21.6801 101.6L58.4001 138.4C61.5201 141.52 66.4801 141.52 69.6001 138.4C72.7201 135.28 72.7201 130.32 69.6001 127.2V127.2ZM122.4 127.2L153.6 96L122.4 64.8C119.28 61.68 119.28 56.72 122.4 53.6C125.52 50.48 130.48 50.48 133.6 53.6L170.32 90.32C173.44 93.44 173.44 98.48 170.32 101.6L133.6 138.4C130.48 141.52 125.52 141.52 122.4 138.4C119.28 135.28 119.28 130.32 122.4 127.2V127.2Z" fill="black"/>
</g>
<defs>
<clipPath id="clip0_405_139">
<rect width="192" height="192" fill="white"/>
</clipPath>
</defs>
</svg>
