<svg width="192" height="192" viewBox="0 0 192 192" fill="none" xmlns="http://www.w3.org/2000/svg">
<g clip-path="url(#clip0_405_142)">
<path d="M151 138.778V53.2222C151 46.5 145.5 41 138.778 41H53.2222C46.5 41 41 46.5 41 53.2222V138.778C41 145.5 46.5 151 53.2222 151H138.778C145.5 151 151 145.5 151 138.778ZM77.0556 108.1L89.8889 123.561L108.833 99.1778C110.056 97.5889 112.5 97.5889 113.722 99.2389L135.172 127.839C136.7 129.856 135.233 132.728 132.728 132.728H59.4556C56.8889 132.728 55.4833 129.794 57.0722 127.778L72.2889 108.222C73.45 106.633 75.7722 106.572 77.0556 108.1V108.1Z" fill="black"/>
</g>
<defs>
<clipPath id="clip0_405_142">
<rect width="192" height="192" fill="white"/>
</clipPath>
</defs>
</svg>
