<svg width="192" height="192" viewBox="0 0 192 192" fill="none" xmlns="http://www.w3.org/2000/svg">
<g clip-path="url(#clip0_405_124)">
<path d="M80 52C80 58.64 85.36 64 92 64H97.68L70.32 128H60C53.36 128 48 133.36 48 140C48 146.64 53.36 152 60 152H100C106.64 152 112 146.64 112 140C112 133.36 106.64 128 100 128H94.32L121.68 64H132C138.64 64 144 58.64 144 52C144 45.36 138.64 40 132 40H92C85.36 40 80 45.36 80 52Z" fill="black"/>
</g>
<defs>
<clipPath id="clip0_405_124">
<rect width="192" height="192" fill="white"/>
</clipPath>
</defs>
</svg>
