<svg width="192" height="192" viewBox="0 0 192 192" fill="none" xmlns="http://www.w3.org/2000/svg">
<g clip-path="url(#clip0_405_133)">
<path d="M123.5 68H107C103.975 68 101.5 70.475 101.5 73.5C101.5 76.525 103.975 79 107 79H123.5C132.575 79 140 86.425 140 95.5C140 104.575 132.575 112 123.5 112H107C103.975 112 101.5 114.475 101.5 117.5C101.5 120.525 103.975 123 107 123H123.5C138.68 123 151 110.68 151 95.5C151 80.32 138.68 68 123.5 68ZM74 95.5C74 98.525 76.475 101 79.5 101H112.5C115.525 101 118 98.525 118 95.5C118 92.475 115.525 90 112.5 90H79.5C76.475 90 74 92.475 74 95.5ZM85 112H68.5C59.425 112 52 104.575 52 95.5C52 86.425 59.425 79 68.5 79H85C88.025 79 90.5 76.525 90.5 73.5C90.5 70.475 88.025 68 85 68H68.5C53.32 68 41 80.32 41 95.5C41 110.68 53.32 123 68.5 123H85C88.025 123 90.5 120.525 90.5 117.5C90.5 114.475 88.025 112 85 112Z" fill="black"/>
</g>
<defs>
<clipPath id="clip0_405_133">
<rect width="192" height="192" fill="white"/>
</clipPath>
</defs>
</svg>
