<svg width="192" height="192" viewBox="0 0 192 192" fill="none" xmlns="http://www.w3.org/2000/svg">
<g clip-path="url(#clip0_405_151)">
<path d="M75.7368 67.3684H145.211C148.395 67.3684 151 64.7632 151 61.5789C151 58.3947 148.395 55.7895 145.211 55.7895H75.7368C72.5526 55.7895 69.9474 58.3947 69.9474 61.5789C69.9474 64.7632 72.5526 67.3684 75.7368 67.3684ZM145.211 125.263H75.7368C72.5526 125.263 69.9474 127.868 69.9474 131.053C69.9474 134.237 72.5526 136.842 75.7368 136.842H145.211C148.395 136.842 151 134.237 151 131.053C151 127.868 148.395 125.263 145.211 125.263ZM145.211 90.5263H75.7368C72.5526 90.5263 69.9474 93.1316 69.9474 96.3158C69.9474 99.5 72.5526 102.105 75.7368 102.105H145.211C148.395 102.105 151 99.5 151 96.3158C151 93.1316 148.395 90.5263 145.211 90.5263ZM55.4737 119.474H43.8947C42.2737 119.474 41 120.747 41 122.368C41 123.989 42.2737 125.263 43.8947 125.263H52.5789V128.158H49.6842C48.0632 128.158 46.7895 129.432 46.7895 131.053C46.7895 132.674 48.0632 133.947 49.6842 133.947H52.5789V136.842H43.8947C42.2737 136.842 41 138.116 41 139.737C41 141.358 42.2737 142.632 43.8947 142.632H55.4737C57.0947 142.632 58.3684 141.358 58.3684 139.737V122.368C58.3684 120.747 57.0947 119.474 55.4737 119.474ZM43.8947 55.7895H46.7895V70.2632C46.7895 71.8842 48.0632 73.1579 49.6842 73.1579C51.3053 73.1579 52.5789 71.8842 52.5789 70.2632V52.8947C52.5789 51.2737 51.3053 50 49.6842 50H43.8947C42.2737 50 41 51.2737 41 52.8947C41 54.5158 42.2737 55.7895 43.8947 55.7895ZM55.4737 84.7368H43.8947C42.2737 84.7368 41 86.0105 41 87.6316C41 89.2526 42.2737 90.5263 43.8947 90.5263H51.4211L41.6947 101.874C41.2316 102.395 41 103.089 41 103.726V105C41 106.621 42.2737 107.895 43.8947 107.895H55.4737C57.0947 107.895 58.3684 106.621 58.3684 105C58.3684 103.379 57.0947 102.105 55.4737 102.105H47.9474L57.6737 90.7579C58.1368 90.2368 58.3684 89.5421 58.3684 88.9053V87.6316C58.3684 86.0105 57.0947 84.7368 55.4737 84.7368V84.7368Z" fill="black"/>
</g>
<defs>
<clipPath id="clip0_405_151">
<rect width="192" height="192" fill="white"/>
</clipPath>
</defs>
</svg>
