<svg width="192" height="192" viewBox="0 0 192 192" fill="none" xmlns="http://www.w3.org/2000/svg">
<g clip-path="url(#clip0_405_145)">
<path d="M62.7938 130.75C66.3 130.75 69.5312 128.756 71.0437 125.663L80.8062 106.138C81.7687 104.213 82.25 102.15 82.25 100.019V68.875C82.25 65.0937 79.1563 62 75.375 62H47.875C44.0937 62 41 65.0937 41 68.875V96.375C41 100.156 44.0937 103.25 47.875 103.25H61.625L54.5437 117.413C51.45 123.531 55.9188 130.75 62.7938 130.75ZM131.544 130.75C135.05 130.75 138.281 128.756 139.794 125.663L149.556 106.138C150.519 104.213 151 102.15 151 100.019V68.875C151 65.0937 147.906 62 144.125 62H116.625C112.844 62 109.75 65.0937 109.75 68.875V96.375C109.75 100.156 112.844 103.25 116.625 103.25H130.375L123.294 117.413C120.2 123.531 124.669 130.75 131.544 130.75Z" fill="black"/>
</g>
<defs>
<clipPath id="clip0_405_145">
<rect width="192" height="192" fill="white"/>
</clipPath>
</defs>
</svg>
