<svg width="192" height="192" viewBox="0 0 192 192" fill="none" xmlns="http://www.w3.org/2000/svg">
<g clip-path="url(#clip0_405_127)">
<path d="M96 148C103.7 148 110 141.7 110 134V127H82V134C82 141.7 88.3 148 96 148ZM47 53.5C47 59.31 51.69 64 57.5 64H82V85H110V64H134.5C140.31 64 145 59.31 145 53.5C145 47.69 140.31 43 134.5 43H57.5C51.69 43 47 47.69 47 53.5ZM40 113H152C155.85 113 159 109.85 159 106C159 102.15 155.85 99 152 99H40C36.15 99 33 102.15 33 106C33 109.85 36.15 113 40 113Z" fill="black"/>
</g>
<defs>
<clipPath id="clip0_405_127">
<rect width="192" height="192" fill="white"/>
</clipPath>
</defs>
</svg>
