<svg width="20" height="10" viewBox="0 0 20 10" fill="none" xmlns="http://www.w3.org/2000/svg">
<path d="M14.3958 5.28784C15.4478 4.68349 16.4967 4.07446 17.5518 3.47688C17.7721 3.34107 18.0221 3.26082 18.2803 3.24303C18.5385 3.22525 18.7972 3.27046 19.034 3.37478C19.2709 3.4791 19.4788 3.6394 19.64 3.84189C19.8012 4.04438 19.9108 4.283 19.9593 4.53722C20.0248 4.85614 19.9899 5.18752 19.8594 5.4858C19.7289 5.78408 19.5092 6.03461 19.2305 6.20295C17.3392 7.3051 15.4431 8.39824 13.5421 9.48235C13.2753 9.64385 12.9645 9.71752 12.6536 9.69295C12.3427 9.66839 12.0473 9.54684 11.8092 9.34545C11.5567 9.15938 11.3656 8.90201 11.2606 8.60646C11.1556 8.3109 11.1414 7.99068 11.2199 7.68701C11.2922 7.44876 11.4127 7.22791 11.5738 7.03816C11.735 6.84842 11.9335 6.69382 12.1569 6.58398C12.9107 6.16339 13.6519 5.72041 14.3984 5.28732" fill="#FABC05"/>
<path d="M15.1682 4.84876C14.1193 4.23973 13.0673 3.6359 12.0215 3.02115C11.7937 2.89824 11.5992 2.72183 11.4547 2.5071C11.3103 2.29237 11.2201 2.04576 11.192 1.78847C11.164 1.53118 11.1988 1.27092 11.2936 1.03009C11.3884 0.789266 11.5403 0.575076 11.7362 0.405953C11.98 0.189866 12.2847 0.0546186 12.6084 0.0188228C12.9322 -0.016973 13.259 0.0484418 13.5441 0.206066C15.4441 1.29295 17.3392 2.38834 19.2294 3.49224C19.5025 3.64265 19.7215 3.87494 19.8556 4.1564C19.9897 4.43786 20.0322 4.7543 19.9769 5.06114C19.942 5.37288 19.8147 5.66706 19.6113 5.90583C19.4078 6.14461 19.1376 6.31706 18.8354 6.40101C18.5929 6.45753 18.3414 6.46359 18.0965 6.41882C17.8516 6.37404 17.6185 6.27939 17.4117 6.14074C16.6704 5.69828 15.9162 5.27769 15.1676 4.84772" fill="#109D58"/>
<path d="M5.60604 4.41763C4.93281 4.79936 4.25975 5.18196 3.58687 5.56542C3.19334 5.78978 2.80606 6.02194 2.40888 6.24213C2.04242 6.45611 1.60595 6.51576 1.19551 6.40794C0.785061 6.30011 0.434259 6.03366 0.220273 5.66719C0.00628618 5.30072 -0.0533567 4.86426 0.0544648 4.45381C0.162286 4.04337 0.42874 3.69257 0.79521 3.47858C2.67297 2.38406 4.55542 1.29856 6.44255 0.22208C6.70437 0.0607108 7.00963 -0.0158893 7.31661 0.00274429C7.6236 0.0213779 7.91735 0.134336 8.15773 0.326188C8.41994 0.511635 8.61992 0.772059 8.7314 1.07325C8.84289 1.37444 8.86066 1.7023 8.78238 2.01378C8.72428 2.18805 8.64229 2.35342 8.53877 2.50517C8.34857 2.72392 8.12847 2.91476 7.88497 3.07204C7.13435 3.5348 6.36707 3.97049 5.60604 4.41659" fill="#E94436"/>
<path d="M4.83505 4.84682C5.50308 5.23862 6.1711 5.63024 6.83913 6.02168C7.23006 6.2502 7.62567 6.47091 8.01451 6.70307C8.376 6.91703 8.63883 7.2646 8.74621 7.67071C8.8536 8.07682 8.79693 8.50887 8.58844 8.87355C8.37996 9.23823 8.03639 9.50627 7.63195 9.61976C7.2275 9.73326 6.79464 9.68312 6.42686 9.48015C4.54042 8.40437 2.65936 7.31766 0.783682 6.22001C0.513012 6.07381 0.294095 5.84759 0.156854 5.57226C0.0196125 5.29694 -0.0292567 4.98596 0.0169261 4.68181C0.0466976 4.36213 0.172445 4.05892 0.377658 3.81199C0.582872 3.56507 0.857958 3.38597 1.1668 3.29822C1.34602 3.26175 1.52942 3.25019 1.71181 3.26386C1.99574 3.31899 2.2705 3.41379 2.52801 3.54547C3.30414 3.9619 4.06517 4.41113 4.83193 4.84682" fill="#4385F3"/>
</svg>
