<svg xmlns="http://www.w3.org/2000/svg" width="300.707"  viewBox="0 0 284.707 434.524">
  <g id="humaaan-3" transform="translate(0 -0.677)">
    <g id="Head_Front" data-name="Head/Front" transform="translate(170.465 90.132) rotate(-164.991)">
      <g id="Head" transform="translate(0.12 0)">
        <path id="Head-2" data-name="Head" d="M0,0,8.95,41.648C3.958,47.5.58,54.67,1.144,62.7c1.627,23.145,33.9,18.05,40.173,6.372s5.532-41.312-2.58-43.4C35.5,24.842,28.609,26.882,21.595,31.1L26,0Z" transform="translate(0)" fill="#e3ba95"/>
      </g>
      <path id="Hair" d="M30.231,27.948C26.566,26.02,24,22.263,20.912,17.3A6.492,6.492,0,0,1,13.994,6.618C12.494,4.5,10.8,2.284,8.873,0,1.618,4.348-3.766,17.07,3.327,29.291c1.96,5.987,6.4,9.185,11.641,10.67a18.883,18.883,0,0,0,12.375.91c7.294-.625,13.808-2.845,15.654-4.164,0-6.895-1.338-8.94-12.768-8.76Z" transform="translate(0 39.573)" fill="#262626"/>
    </g>
    <g id="Bottom_Skinny_Jeans_1" data-name="Bottom/Skinny Jeans 1" transform="translate(11.753 176.755)">
      <path id="Leg" d="M104.49,0,50.507,134.335,14.3,247.9H0L55.355,0Z" transform="translate(41.586)" fill="#e3b895"/>
      <path id="Leg-2" data-name="Leg" d="M53.765,0c.575,47.206,8.958,110.762,10.3,113.7s92.472,74.844,92.472,74.844L146.69,198.9S39.159,137.262,34.183,129.04,13.006,45.161,0,0Z" transform="translate(103.181)" fill="#e3ba95"/>
      <g id="Left_Shoe" data-name="Left Shoe" transform="matrix(-0.643, 0.766, -0.766, -0.643, 272.954, 192.762)">
        <path id="shoe" d="M4.474,15.967a2,2,0,0,1-2.566-1.348L0,7.894A64.241,64.241,0,0,1,.9,0H57.3s2.2,7.268-2.538,7.848S46.892,8.9,46.892,8.9L20.68,20.581a1,1,0,0,1-1.332-.532l-1.685-4.088s-4.385-2.046-7.127-2.046Z" transform="translate(0 0)" fill="#e4e4e4"/>
      </g>
      <g id="Right_Shoe" data-name="Right Shoe" transform="translate(0 236.096)">
        <path id="shoe-2" data-name="shoe" d="M58.666,5.415a2.207,2.207,0,0,1,2.82,1.459l2.1,7.271a68.354,68.354,0,0,1-.991,8.537H.56s-2.418-7.86,2.792-8.486,8.656-1.132,8.656-1.132L40.841.426A1.107,1.107,0,0,1,42.306,1l1.853,4.42S48.986,7.634,52,7.634Z" transform="translate(0 -0.331)" fill="#e4e4e4"/>
      </g>
      <path id="Pant" d="M67.976,236.206,0,228.953,50.378,0h60.884Z" transform="translate(41.804)" fill="#3b46b5"/>
      <path id="Pant-2" data-name="Pant" d="M147.755,171.83l-44.589,51.89S32.72,148.074,21.026,125,0,0,0,0H68.545s5.1,89.673,6.872,93.846S147.755,171.83,147.755,171.83Z" transform="translate(97.903)" fill="#5865f2"/>
    </g>
    <g id="Body_Long_Sleeve_1" data-name="Body/Long Sleeve 1" transform="translate(225.669 276.438) rotate(-169.982)">
      <path id="Skin" d="M1.328,2.342C.119,3.086-1.2,5.887,1.993,8.08,9.965,13.536,21.452,23.091,23,26.231c3.175,6.431,13.986,69.1,13.986,69.1l22.639-.09S38.66,27.664,36.99,23.527c-2.507-6.2,2.8-15.65,5.066-20.726C38.48,1.2,36.819,3.243,35,5.282,33.063,7.456,30.944,9.629,26.135,7.4,19.982,4.537,14.893,0,8.831,0a14.087,14.087,0,0,0-7.5,2.342ZM196.254,63.187,162.033,77.354l7.639,18.855L204.23,70.874a93.08,93.08,0,0,0,23.491-9.425c1.486-1.351,3.281-4.088-2.88-3.616s-12.661.694-13.511-1.4,2.879-4.606,1.159-7.437a.817.817,0,0,0-.749-.4Q208.7,48.588,196.254,63.187Z" transform="translate(0 0)" fill="#e3ba95"/>
      <path id="Coat_Back" data-name="Coat Back" d="M0,120.738l9.19,2.413C46.421,96.323,65.658,40.208,110.75,13.534L101.642,0C27.232,2.66,2.865,71.029,0,120.738Z" transform="translate(90.822 69.901) rotate(-4.992)"/>
      <path id="Shirt" d="M0,0H82.889c3.788,0,3.074,5.46,2.527,8.216C79.1,40.017,54.43,74.295,54.43,119.564l-23.91,3.743C10.744,91.552,3.9,52.455,0,0Z" transform="translate(60.491 72.641)" fill="#dde3e9"/>
      <path id="Coat_Front" data-name="Coat Front" d="M.11,0C-1.8,61.738,21.61,109.249,41.2,137.894a12.575,12.575,0,0,0-10.76,6.6c-8.738,15.741-5.582,24.409,3.757,27.259s17.667-3.021,32.547-3.021a11.616,11.616,0,0,0,1.774-.126l7.934-.452s32.208-109,17.767-145.442H28.707A207.423,207.423,0,0,0,17.886,0Z" transform="translate(22.463 27.213)" fill="#262626"/>
      <path id="Shade" d="M24.487,0H0C4.491,10.769,9.445,24.068,14.724,39.53,16.924,20.475,20.206,7.177,24.486,0Z" transform="translate(51.17 49.927)" fill="rgba(0,0,0,0.1)"/>
    </g>
  </g>
</svg>
