<svg id="humaaan-10" xmlns="http://www.w3.org/2000/svg" width="300"  viewBox="0 0 269.282 419.417">
  <g id="Head_Front" data-name="Head/Front" transform="translate(99.231 0)">
    <g id="Head" transform="translate(3.594 3.786)">
      <path id="Head-2" data-name="Head" d="M43.761,76.03,35.152,35.921c4.8-5.633,8.051-12.537,7.509-20.272C41.1-6.64,10.055-1.736,4.018,9.513S-1.3,49.3,6.5,51.313c3.112.8,9.742-1.162,16.489-5.227l-4.235,29.95Z" transform="translate(0 0)" fill="#e3ba95"/>
    </g>
    <path id="Hair" d="M38.941,41.709c4.145-2.486,7.3-7.516,8.236-13.125a21.676,21.676,0,0,0-.487-9.346,23.982,23.982,0,0,0-2.283-5.5C40.582-2.02,24.733-.6,12.877.813,7.1,1.5,2.277,2.193.238.9-1.123,9.4,3.255,16.26,18.651,14.931,22,16.807,24.415,20.323,27.36,25.049a6.25,6.25,0,0,1,6.655,10.288c1.6,2.265,3.216,4.349,4.924,6.373h0Z" transform="translate(-0.004 -0.001)" fill="#2e1919"/>
  </g>
  <g id="Bottom_Skinny_Jeans_1" data-name="Bottom/Skinny Jeans 1" transform="translate(7.895 170.499)">
    <path id="Leg" d="M99.789,0,48.233,129.384,13.654,238.768H0L52.863,0Z" transform="translate(39.72)" fill="#e3b895"/>
    <path id="Leg-2" data-name="Leg" d="M51.348,0C51.9,45.467,59.9,106.68,61.183,109.514S149.5,181.6,149.5,181.6l-9.4,9.979S37.4,132.207,32.651,124.289,12.422,43.5,0,0Z" transform="translate(98.542)" fill="#e3ba95"/>
    <g id="Left_Shoe" data-name="Left Shoe" transform="matrix(-0.643, 0.766, -0.766, -0.643, 261.388, 186.148)">
      <path id="shoe" d="M4.474,15.967a2,2,0,0,1-2.566-1.348L0,7.894A64.241,64.241,0,0,1,.9,0H57.3s2.2,7.268-2.538,7.848-7.87,1.047-7.87,1.047L20.68,20.581a1,1,0,0,1-1.332-.532l-1.685-4.088s-4.385-2.046-7.127-2.046Z" transform="translate(0 0)" fill="#e4e4e4"/>
    </g>
    <g id="Right_Shoe" data-name="Right Shoe" transform="translate(0 227.395)">
      <path id="shoe-2" data-name="shoe" d="M56.027,5.228a2.1,2.1,0,0,1,2.7,1.4l2,7a66.367,66.367,0,0,1-.947,8.222H.535S-1.774,14.284,3.2,13.68s8.267-1.09,8.267-1.09L39,.422a1.054,1.054,0,0,1,1.4.554l1.77,4.257S46.78,7.364,49.66,7.364Z" transform="translate(0 -0.331)" fill="#e4e4e4"/>
    </g>
    <path id="Pant" d="M64.92,227.5,0,220.514,48.113,0H106.26Z" transform="translate(39.925)" fill="#ebb000"/>
    <path id="Pant-2" data-name="Pant" d="M141.112,165.5,98.528,215.478S31.249,142.62,20.08,120.4,0,0,0,0H65.463s4.868,86.369,6.563,90.388S141.112,165.5,141.112,165.5Z" transform="translate(93.501)" fill="#fabc05"/>
  </g>
  <g id="Body_Long_Sleeve_1" data-name="Body/Long Sleeve 1" transform="translate(0 53.42)">
    <path id="Skin" d="M244.007,112.239c1.206-.739,2.528-3.521-.664-5.7-7.954-5.417-19.416-14.9-20.965-18.017-3.169-6.377-19-88.522-19-88.522L179.711.088s27.043,87.012,28.711,91.12c2.5,6.157-2.792,15.533-5.055,20.572,3.568,1.586,5.225-.439,7.04-2.463,1.934-2.158,4.048-4.315,8.847-2.1,6.141,2.838,11.217,7.342,17.269,7.341a14.111,14.111,0,0,0,7.484-2.319ZM31.965,62.975,63.808,44.329,53.633,26.852,23.015,56.52a93,93,0,0,0-21.9,12.5c-1.279,1.532-2.673,4.471,3.349,3.156s12.414-2.428,13.547-.483-2.2,4.925-.112,7.47a.793.793,0,0,0,.642.3Q21.42,79.472,31.965,62.975Z" transform="translate(0 77.493)" fill="#e3ba95"/>
    <path id="Clothes_Back" data-name="Clothes Back" d="M0,118.764l9.171,2.4c19.171-50.206,97.6-78.71,103.905-97.552,2.314-6.911-2.488-10.926.341-12.844L102.086.91c-2.257,2.2-6.25-2.53-15.649-.292S5.334,57.8,0,118.764Z" transform="translate(141.586 129.116) rotate(175.008)" fill="#db2721"/>
    <path id="Clothes_Front" data-name="Clothes Front" d="M136.729,160.733c-1.078-5.922,6.418-8.806,4.408-22.033C129.775,63.9,86.174,23.729,68.581,10.284l-.443-6.289A4.314,4.314,0,0,0,63.525.011L34.408,2.033A4.3,4.3,0,0,0,30.4,6.616l.779,11.06c1.076,68.437-38.76,85.9-29.886,113.356,7.328,22.673,77.465,47.046,89.6,24.821,4.864-8.908,7.1-19.664,7.386-31.359,3.059,8.83,5.62,16.769,7.368,23.125,3.113,11.316,15.182,13.114,15.182,17.473Z" transform="translate(84.353 0)" fill="#e94436"/>
  </g>
</svg>
