<svg id="A_Human-Standing" data-name="A Human-Standing" xmlns="http://www.w3.org/2000/svg" width="300" viewBox="0 0 235.81 337.972">
  <g id="Head_Front" data-name="Head/Front" transform="translate(115.836 0)">
    <g id="Head" transform="translate(6.974 15.972)">
      <path id="Head-2" data-name="Head" d="M42,73,33.738,34.49c4.607-5.409,7.726-12.038,7.205-19.464C39.443-6.374,9.651-1.667,3.857,9.134s-5.107,38.2,2.382,40.13c2.987.77,9.349-1.116,15.825-5.019L18,73Z" transform="translate(0 -0.001)" fill="#e3ba95"/>
    </g>
    <path id="hair" d="M-7.618,23.9A7.5,7.5,0,0,0-6.055,21a29.389,29.389,0,0,0,1-3.3c.5-2.249.509-4.836-1.1-6.582a7.548,7.548,0,0,0-5-2.165A9.187,9.187,0,0,0-14.7,9.4c-1.129.371-2.1,1.111-3.2,1.57a14.306,14.306,0,0,0-1.687-7.03A7.008,7.008,0,0,0-24.8.542a10.347,10.347,0,0,0-6.357,1.28,16.847,16.847,0,0,0-1.453.865,4.071,4.071,0,0,1-1.261.693c-.513.121-.768-.176-1.1-.55a8.368,8.368,0,0,0-1.3-1.168A7.647,7.647,0,0,0-43.425.423a6.649,6.649,0,0,0-2.917,2.109C-47.008,3.4-47.482,4.79-48.4,5.4c-.39.258-.665-.084-1.02-.337-.533-.38-1.042-.8-1.581-1.169a7.242,7.242,0,0,0-2.453-1.111c-1.286-.3-3.064-.228-3.432,1.457a6.954,6.954,0,0,0,.012,1.948c.061.876.125,1.751.2,2.625a18.953,18.953,0,0,0,.256,1.957,2.863,2.863,0,0,1,.127,1.343c-.186.435-1.046.188-1.413.2a5.582,5.582,0,0,0-2.12.469,2.286,2.286,0,0,0-1.285,1.189,2.136,2.136,0,0,0-.036,1.118,3.335,3.335,0,0,1-.068,1.147c-.974-.48-4.349-1.545-4.774.2a2.731,2.731,0,0,0,.426,1.728,14.979,14.979,0,0,0,1.573,2.4,21.412,21.412,0,0,0,4.19,4.065,2.746,2.746,0,0,0-1.632,2.1,2.746,2.746,0,0,0,.916,2.5,3.4,3.4,0,0,0,2.5.725,5.524,5.524,0,0,1,1.033-.082,2.47,2.47,0,0,0,.468.158,13.928,13.928,0,0,0,3.832-.486,12.636,12.636,0,0,0,5.844-3.056,1.8,1.8,0,0,1,1.352-.621c.5,0,1,.143,1.5.156a10.791,10.791,0,0,0,3.761-1.048,14.189,14.189,0,0,0,1.232,5c.556,1.223,1.717,1.4,2.858,1.508,3.649.343,7.31-.04,10.963-.035-3.536.8-7.191,1.129-10.7,2.069-1.584.425-.375,1.493.3,2.233a12.87,12.87,0,0,1,2.52,4.32c1.73-2.255,4.788-3.741,7.5-3.048,2.993.765,5.1,4.813,3.187,7.723-1.111,1.689-3.118,2.341-4.788,3.067,1.3,1.354,1.618,3.354,2.4,5.039a3.606,3.606,0,0,0,1.794,2.06,2.1,2.1,0,0,1,.947.377c.313.323.387.684.786.961a4.434,4.434,0,0,0,5.494-.423,3.586,3.586,0,0,0-.122-4.7c1.7-.708,4.791-1.618,4.116-4.263,3.679-.244,12.611-6.211,7.674-10.571,2.71-1.531,5.2-5.274,3.459-8.574C-1.945,25.17-5.062,24.035-7.62,23.9" transform="translate(65.999 -0.028)" fill="#191847"/>
  </g>
  <g id="Bottom_Skinny_Jeans_1" data-name="Bottom/Skinny Jeans 1" transform="translate(0 171.972)">
    <g id="Seat" transform="translate(120.81 42)">
      <g id="Seat-2" data-name="Seat">
        <path id="Seat_Stuff" data-name="Seat Stuff" d="M87.377,0H10.122L0,124H115Z" fill="#d8d8d8"/>
        <path id="Seat_Stuff-2" data-name="Seat Stuff" d="M37.977,0H14.217L0,124H65.6Z" transform="translate(49.4)" fill="rgba(0,0,0,0.1)"/>
      </g>
    </g>
    <path id="Skin" d="M32.793,141.549c1-12.65,2.861-56.444,1-76.715-.785-8.557-1.633-16.7-2.465-23.927,17.858,32.116,47.08,79.1,47.08,79.1l11.516-5.264s-13.566-44.694-22.247-63.1c-9.91-21.017-19.2-39.015-23.112-45.355-6.151-9.971-16.86-6.492-22.518-.456C13.81.882-.009,7.236,0,14.309.029,35.474,19.344,135.223,20.352,141.528c.534,3.337,3.812,5.375,6.872,5.375C29.947,146.9,32.5,145.292,32.793,141.549Z" transform="translate(20.809 14.929)" fill="#b28b67"/>
    <path id="LegLower" d="M0,0,5.118,101.51c3.688,17.553,34.907,9.406,34.894,0C39.983,80.155,27.155,6.383,27.146.021Z" transform="translate(109.91 113.125) rotate(160)" fill="#243248"/>
    <g id="Right_Shoe" data-name="Right Shoe" transform="translate(120.858 135.57) rotate(150)">
      <path id="shoe" d="M4.474,15.967a2,2,0,0,1-2.566-1.348L0,7.894A64.241,64.241,0,0,1,.9,0H57.3s2.2,7.268-2.538,7.848S46.892,8.9,46.892,8.9L20.68,20.581a1,1,0,0,1-1.332-.532l-1.685-4.088s-4.385-2.046-7.127-2.046Z" transform="translate(0 0)" fill="#e4e4e4"/>
    </g>
    <g id="Right_Shoe-2" data-name="Right Shoe" transform="translate(0 145.332)">
      <path id="shoe-2" data-name="shoe" d="M53.336,5.033A2,2,0,0,1,55.9,6.381l1.908,6.725A64.241,64.241,0,0,1,56.91,21H.51s-2.2-7.268,2.538-7.848,7.87-1.047,7.87-1.047L37.13.419a1,1,0,0,1,1.332.532l1.685,4.088s4.385,2.046,7.127,2.046Z" transform="translate(0 -0.332)" fill="#e4e4e4"/>
    </g>
    <path id="Leg_and_Butt" data-name="Leg and Butt" d="M0,36.433C0,63,12.617,124.97,12.625,130.82l27.145.021S33.81,47.9,35.543,47s71.051,6.921,91.84,6.921c29.979,0,42.381-18.9,43.387-53.921H111.384C99.292,1.294,36.222,14.015,12.8,18.388,2.77,20.261,0,29.115,0,36.433Z" transform="translate(18.04)" fill="#314360"/>
  </g>
  <g id="Body_Long_Sleeve_1" data-name="Body/Long Sleeve 1" transform="translate(22.345 66.972)">
    <path id="Skin-2" data-name="Skin" d="M43.465,51.451,28.218,43.076s-3.208-12.21-7.672-12.287C19.4,30.253,19.834,32.6,20,34.942c.163,2.309.059,4.619-2.091,4.177C13.575,38.227,3,30.362,1.178,31.959c-2.7,2.363-.293,9.617,2.54,13.226,5.294,6.745,9.676,9.051,20.508,12.072,8.5,2.369,18.37,9.5,18.37,9.5Zm54.362-16.04L63.118,16.4A85.9,85.9,0,0,0,46.056.431c-1.712-.715-4.7-1.147-1.906,3.822s5.521,10.321,4.1,11.852c-.626.672-1.664.636-2.776.6-1.417-.046-2.955-.091-3.909,1.336q-1.7,2.543,18.228,8.035L85.009,49.169Z" transform="translate(0 7.288)" fill="#e3b895"/>
    <path id="Sleeve" d="M5.5,24.36a85.286,85.286,0,0,1,47.25,6.364L57.091,14.7C43.454,4.869,25.361-2.116,10.936.585-.432,2.715-4.08,17.451,5.5,24.36Z" transform="translate(116.359 63.387) rotate(-171)" fill="#336bc7"/>
    <path id="Clothes" d="M122.887,142.48c12.21-1.587,23.571-3.173,30.172-1.874,11.318-36.755-10.565-51.691-10.582-75.206-.02-25.758-20.7-65.4-23.742-65.4H90.988c-1.53,19.659-9.229,41.325-15.551,62.729C55.273,67.307,10.5,51.373,10.5,51.373S-.8,74.758.045,84.716c26.064,13.615,48.4,19.685,66.8,20.085-.585,10.919.745,21.311,5.209,30.8,3.341,7.1,12.583,9.227,23.862,9.227C104.313,144.832,113.835,143.656,122.887,142.48Z" transform="translate(22.933)" fill="#4385f3"/>
  </g>
</svg>
