<svg xmlns="http://www.w3.org/2000/svg" width="25" height="25" viewBox="0 0 25 25">
  <g id="flight_black_24dp" transform="translate(25) rotate(90)">
    <path id="Path_6" data-name="Path 6" d="M0,0H25V25H0Z" fill="none"/>
    <path id="Path_7" data-name="Path 7" d="M19.792,13.1a1.121,1.121,0,0,0-.51-.927L11.458,7.292V1.562a1.562,1.562,0,1,0-3.125,0V7.292L.51,12.177A1.107,1.107,0,0,0,0,13.1a1.093,1.093,0,0,0,1.417,1.042l6.917-2.167v5.729L6.458,19.115a.5.5,0,0,0-.208.417v.615a.524.524,0,0,0,.667.5L9.9,19.792l2.979.854a.524.524,0,0,0,.667-.5v-.615a.5.5,0,0,0-.208-.417l-1.875-1.406V11.979l6.917,2.167A1.093,1.093,0,0,0,19.792,13.1Z" transform="translate(2.083 2.083)" fill="#f4f6fa"/>
  </g>
</svg>
