<svg xmlns="http://www.w3.org/2000/svg" width="436" height="384.59" viewBox="0 0 610.834 538.241">
  <g id="Group_35" data-name="Group 35" transform="translate(-1169.167 -633.709)">
    <g id="Group_19" data-name="Group 19" transform="translate(39.333 179.383)">
      <path id="Background_Shape" data-name="Background Shape" d="M.391,80.006c7.865-40.5,87.449-17.429,139.624-29.95s113.9-70.837,154.753-42.271-2.614,97.617-96.311,113.2S-7.474,120.509.391,80.006Z" transform="translate(1288.619 594.055)" fill="#f2f2f2"/>
      <g id="Cells" transform="translate(1308.976 483.665)" opacity="0.5">
        <path id="Fill_5" data-name="Fill 5" d="M.523.484c-.759.757-.464,3.45-.48,4.446-.024,1.551.072,3.088.2,4.633C.332,10.6.822,20.473,2.185,19.714c.768-.427.287-3.284.285-4.187,0-2.009-.087-4.012-.221-6.017a52.658,52.658,0,0,1-.131-5.564c.017-.455.443-5.5-1.6-3.463" transform="translate(0.298 0.742)" fill="#c7c7c7"/>
        <path id="Fill_7" data-name="Fill 7" d="M33.827.009c-6.518.052-13.033.373-19.548.57-3.135.095-6.268.215-9.4.389C3.812,1.027,1.524.686.635,1.254-1.339,2.517,1.844,2.812,2.692,2.781,15.585,2.313,28.482,1.7,41.386,1.669c6.33-.014,12.657.166,18.987.126,2.42-.015,5.1-1.058,5.711,1.759.69,3.178-.1,6.717-.318,9.911a56.036,56.036,0,0,0,0,6.35,33.326,33.326,0,0,0,.142,4.242c.232,1.29,1.159,2.063,2.009.618.508-.863.255-2.995.289-3.995.045-1.347,0-2.693,0-4.04,0-3.288.464-6.563.4-9.85-.039-2.12-.152-5.963-2.826-6.472-2.944-.561-6.563,0-9.576-.031C48.747.2,41.295-.05,33.827.009" transform="translate(0.034 0)" fill="#c7c7c7"/>
        <path id="Fill_9" data-name="Fill 9" d="M15.9.04Q12.215.04,8.528.1c-2.108.035-5.422-.4-7.383.35-1.343.516-1.7,2.016,0,2.415C3,3.3,5.792,2.584,7.732,2.55c9.726-.172,19.545-.4,29.257.22,9.1.576,18.376,1.135,27.49.527.767-.051,4.678-.207,2.893-1.673-1.041-.856-5.261-.293-6.614-.334-4.772-.144-9.549-.176-14.32-.357C41.729.754,37.042.224,32.332.093,26.859-.059,21.375.04,15.9.04" transform="translate(0 20.534)" fill="#c7c7c7"/>
        <path id="face" d="M8.086,13.457h0c-3.331,0-6.967-1.6-7.581-5.173a3.326,3.326,0,0,1-.023-.634,2.833,2.833,0,0,0-.035-.682,1.318,1.318,0,0,0-.213-.4A1.046,1.046,0,0,1,0,6.063,2.78,2.78,0,0,1,1.21,3.945a9.663,9.663,0,0,0,.72-.728A8.6,8.6,0,0,1,5.773.3,4.535,4.535,0,0,1,7.431,0,8.218,8.218,0,0,1,12.27,1.876a7.614,7.614,0,0,1,2.876,4.076,5.8,5.8,0,0,1-.8,4.41,6.653,6.653,0,0,1-4.178,2.88A9.864,9.864,0,0,1,8.086,13.457Zm-5.2-7.689h0A3.794,3.794,0,0,0,3.248,9.4,6.015,6.015,0,0,0,8.134,11.66a5.664,5.664,0,0,0,3.25-.95,3.637,3.637,0,0,0,1.47-1.9,3.751,3.751,0,0,0-.017-2.194,6.3,6.3,0,0,0-1.977-2.939A5.462,5.462,0,0,0,7.639,2.3a.833.833,0,0,1-.459.226A.4.4,0,0,1,6.99,2.47l0,0a.431.431,0,0,0-.206-.06.464.464,0,0,0-.14.024A5.633,5.633,0,0,0,5,3.4l-.119.09-.137.1A9.329,9.329,0,0,0,3.33,4.806s-.052.111-.114.249c-.122.268-.325.715-.335.719a.01.01,0,0,1,0-.006Z" transform="translate(5.804 4.293)" fill="#c7c7c7"/>
        <path id="Fill_13" data-name="Fill 13" d="M0,1.176a1.228,1.228,0,0,0,2.453,0A1.227,1.227,0,0,0,0,1.176" transform="translate(9.98 9.441)" fill="#c7c7c7"/>
        <path id="Fill_15" data-name="Fill 15" d="M0,.935a.976.976,0,0,0,1.949,0A.975.975,0,0,0,0,.935" transform="translate(13.048 9.368)" fill="#c7c7c7"/>
        <path id="Fill_17" data-name="Fill 17" d="M2.315.046C1.691.285.9-.212.387.116c-.907.581,0,1.106.489,1.34C3.065,2.507,3.455-.391,2.315.046" transform="translate(11.337 12.802)" fill="#c7c7c7"/>
        <path id="Fill_19" data-name="Fill 19" d="M.993,4.537A1.1,1.1,0,0,1,.7,4.5c-.518-.142-.751-.432-.693-.862A4.55,4.55,0,0,1,1.784,1.388,5.269,5.269,0,0,1,4.486.125,1.168,1.168,0,0,1,4.65.136,4.52,4.52,0,0,1,6.434.964,4.391,4.391,0,0,0,8.286,1.8a2.883,2.883,0,0,0,.328.019,5.578,5.578,0,0,0,2.59-.9A7.615,7.615,0,0,1,13.089.106,4.312,4.312,0,0,1,14.032,0a7.249,7.249,0,0,1,3.254,1.027l.02.01a7.182,7.182,0,0,0,3.186,1.016,4.171,4.171,0,0,0,1.45-.265c.16-.058.335-.132.535-.226l.012,0c.194-.092.388-.191.576-.286A5.726,5.726,0,0,1,25.2.517c.061,0,.123-.006.183-.006a5.273,5.273,0,0,1,2.767,1.115c.337.216.685.44,1.032.62a2.273,2.273,0,0,0,.513.166c.407.1.791.19.844.677a.634.634,0,0,1-.114.513.7.7,0,0,1-.551.176,4.344,4.344,0,0,1-.479-.036l-.182-.019a4.245,4.245,0,0,1-1.883-.849,4.216,4.216,0,0,0-1.813-.829,1.956,1.956,0,0,0-.2-.01,6.158,6.158,0,0,0-2.424.808,7.851,7.851,0,0,1-1.833.718,4.819,4.819,0,0,1-.881.083,6.582,6.582,0,0,1-3.047-.9l-.318-.166a5.8,5.8,0,0,0-2.695-.918,4,4,0,0,0-1.509.324c-.424.172-.828.368-1.219.558a6.882,6.882,0,0,1-3.051.936,4.321,4.321,0,0,1-.715-.061A5.473,5.473,0,0,1,6.139,2.79a4.367,4.367,0,0,0-1.8-.675,1.2,1.2,0,0,0-.131.007c-.567.062-1.051.633-1.519,1.185C2.179,3.912,1.649,4.537.993,4.537Z" transform="translate(24.47 7.906)" fill="#c7c7c7"/>
        <path id="Fill_21" data-name="Fill 21" d="M37.825.026c-6.7.061-13.42.161-20.1.7C16.14.851-.031,2.378,0,2.488c.057.2,2.137.514,2.124.562q-.21-.521-.961-.432c15.337,0,30.625-1.373,45.982-1.126,3.859.062,7.732.036,11.588.158.963.03,3.348.72,4.1.286C64.82.795,61.216.663,60.619.615,53.061.011,45.4-.05,37.825.026" transform="translate(2.636 30.351)" fill="#aaa"/>
        <path id="Fill_23" data-name="Fill 23" d="M.465.5c-1,1-.079,4.616-.04,5.974.057,1.963.01,3.939.182,5.9A39.887,39.887,0,0,0,1.7,19.161c.323,1.2,1.457,3.095,1.907.923.321-1.551-.166-3.609-.336-5.189a61.166,61.166,0,0,1-.29-6.324c-.008-1.851-.043-3.71-.2-5.555C2.7,2.057,2.221-1.245.465.5" transform="translate(0.186 33.131)" fill="#aaa"/>
        <path id="Fill_25" data-name="Fill 25" d="M23.408.04C18.654.122,13.89.234,9.144.531,7.2.653,5.255.834,3.317,1.04c-.4.042-4.773.22-2.817,1.835C1.384,3.6,5.015,2.6,6.214,2.49c2.017-.177,4.034-.292,6.057-.377,4.687-.2,9.389-.375,14.081-.293,8.569.149,17.083.215,25.655.024C53.226,1.817,62.767,2.071,63.091.8,63.352-.217,59.94.252,59.318.27c-2.282.068-4.565.052-6.848.041C42.8.261,33.071-.123,23.408.04" transform="translate(2.439 51.987)" fill="#aaa"/>
        <path id="Fill_27" data-name="Fill 27" d="M0,1.189C.152,5.422.873,9.65,1.1,13.895c.105,1.941.229,3.88.324,5.821.031.626-.222,2.135.519,2.5,1.016.494,1.153-.5,1.343-1.175.549-1.945.178-4.472.128-6.47-.048-1.935-.052-3.873-.194-5.8-.146-1.973-.543-3.909-.728-5.875C2.417,2.056,2.689.672,1.807.156A1.21,1.21,0,0,0,0,1.189" transform="translate(63.914 30.749)" fill="#aaa"/>
        <path id="face-2" data-name="face" d="M8.788,13.943H8.714a13.855,13.855,0,0,1-5.693-1.163A5.755,5.755,0,0,1,.872,11.051,4.672,4.672,0,0,1,0,8.283,8.943,8.943,0,0,1,2.034,2.834,8.26,8.26,0,0,1,4.274.864,5.987,5.987,0,0,1,7.023.009C7.135,0,7.248,0,7.36,0A7.658,7.658,0,0,1,10.1.531a9.635,9.635,0,0,1,2.512,1.435,9.594,9.594,0,0,1,1.984,2.1A7.579,7.579,0,0,1,15.744,6.6a5.348,5.348,0,0,1-.943,4.714,6.677,6.677,0,0,1-2.625,1.947,8.668,8.668,0,0,1-3.388.684h0ZM6.918,1.928a5.189,5.189,0,0,0-3.768,1.9A6.7,6.7,0,0,0,1.594,7.832,3.5,3.5,0,0,0,2.543,10.5a5.671,5.671,0,0,0,2.78,1.439A13.918,13.918,0,0,0,8.6,12.3h.223a5.816,5.816,0,0,0,4.543-1.99A3.7,3.7,0,0,0,13.913,7a5.744,5.744,0,0,0-1.107-2.065A9.893,9.893,0,0,0,11.1,3.295,5.838,5.838,0,0,0,8.247,2.212a12.555,12.555,0,0,1-1.33-.284Z" transform="translate(6.232 35.796)" fill="#aaa"/>
        <path id="Fill_31" data-name="Fill 31" d="M0,.945a.987.987,0,0,0,1.972,0A.987.987,0,0,0,0,.945" transform="translate(9.326 40.869)" fill="#aaa"/>
        <path id="Fill_33" data-name="Fill 33" d="M0,.953a1,1,0,0,0,1.987,0A1,1,0,0,0,0,.953" transform="translate(13.462 40.314)" fill="#aaa"/>
        <path id="Fill_35" data-name="Fill 35" d="M.228.166C-1.056,1.447,3.453,3.693,4.516,1.911,5.39.447,3.488.932,2.814.853,2.082.767.826-.43.228.166" transform="translate(10.954 43.947)" fill="#aaa"/>
        <path id="Fill_37" data-name="Fill 37" d="M.977,4.5h0a.945.945,0,0,1-.71-.253A1.283,1.283,0,0,1,0,3.289C.059,1.761,4.288.315,5.623.065A3.774,3.774,0,0,1,6.317,0,6.34,6.34,0,0,1,9.155.9L9.167.9a6.388,6.388,0,0,0,2.88.9,3.966,3.966,0,0,0,.863-.1A11.274,11.274,0,0,0,14.477,1.2,8.137,8.137,0,0,1,16.638.585c.121-.011.24-.016.353-.016a3.744,3.744,0,0,1,2.157.761,8.013,8.013,0,0,0,1.216.656,2.225,2.225,0,0,0,.876.174,4.989,4.989,0,0,0,.637-.053l.014,0a5.321,5.321,0,0,1,.68-.055c.065,0,.13,0,.192.006.645.041,1.053.258,1.12.6.073.368-.283.792-.928,1.108a3.075,3.075,0,0,1-1.363.349,4.152,4.152,0,0,1-2.128-.786,5.171,5.171,0,0,0-2.1-.85,3.186,3.186,0,0,0-.34-.018,7.372,7.372,0,0,0-2.74.757l-.044.018A7.658,7.658,0,0,1,11.373,4c-.053,0-.107,0-.159,0a6.858,6.858,0,0,1-2.6-.761,5.557,5.557,0,0,0-2.3-.663,3.487,3.487,0,0,0-1.331.275c-.16.065-.418.206-.745.385A8.651,8.651,0,0,1,.977,4.5Z" transform="translate(24.675 39.141)" fill="#aaa"/>
        <path id="point" d="M3.211,6h0a2.9,2.9,0,0,1-1.987-.915A4.2,4.2,0,0,1,.074,3.04,2.715,2.715,0,0,1,.2,1.381,2.467,2.467,0,0,1,1.5.12,1.48,1.48,0,0,1,2.119,0,4.914,4.914,0,0,1,4.9,1.2a2.621,2.621,0,0,1,.816,2A2.986,2.986,0,0,1,4.705,5.421,2.281,2.281,0,0,1,3.211,6ZM2.271,1.88A1.244,1.244,0,0,0,2.155,3.2c.2.5.556.827.909.827A.609.609,0,0,0,3.2,4.015c.367-.081.571-.227.6-.434.108-.665-1.512-1.691-1.529-1.7Z" transform="translate(53.809 38.56)" fill="#aaa"/>
        <path id="Fill_41" data-name="Fill 41" d="M18.229.016C13.587.017,8.9-.08,4.268.195,3.488.241.516.093.114.908c-.735,1.492,2.323.751,2.767.707,9.231-.924,18.873-.392,28.134-.129,7.574.215,15.108.349,22.673.739q2.983.154,5.963.336c.648.039,2.278.468,2.414-.566.126-.957-1.907-.741-2.415-.768Q53.591.908,47.536.564C37.816.016,27.965.014,18.229.016" transform="translate(2.159 62.586)" fill="#c7c7c7"/>
        <path id="Fill_43" data-name="Fill 43" d="M.671.477C-.2,1.339.21,4.63.186,5.718c-.042,1.9-.132,3.8-.172,5.706-.042,1.988.016,3.985.134,5.97.049.834.733,4.862,1.811,2.557.481-1.03-.012-3.9,0-5.067.013-2.124.128-4.24.233-6.362.091-1.824.094-3.649.174-5.473.025-.582.094-4.362-1.69-2.572" transform="translate(1.453 63.783)" fill="#c7c7c7"/>
        <path id="Fill_45" data-name="Fill 45" d="M63.649,0C59.131.467,54.541.248,50.006.59c-3.908.295-7.813.415-11.732.5-8.873.187-17.761.37-26.609,1.109-2.016.168-4.03.347-6.052.438C4.6,2.68.36,2.22.044,3.286c-.538,1.815,4,1.1,4.978,1.068,2.152-.062,4.294-.218,6.44-.381,9.021-.687,18.077-.893,27.117-1.178,4.917-.155,9.8-.515,14.705-.842,2.445-.163,4.9-.168,7.342-.326.64-.041,2.9.04,3.364-.475.316-.353.4-1.216-.342-1.148" transform="translate(1.356 81.251)" fill="#c7c7c7"/>
        <path id="Fill_47" data-name="Fill 47" d="M0,1.323C.156,5.656.4,9.985.547,14.317.591,15.62.2,17.955.923,19.1,2.09,20.951,3,19,3.214,17.845c.674-3.633-.051-7.647-.239-11.3C2.9,5.148,3.336,2.043,2.662.8,2.02-.394-.056-.275,0,1.323" transform="translate(63.473 63.246)" fill="#c7c7c7"/>
        <path id="hola_:_" data-name="hola :)" d="M3.39,7.622a3.631,3.631,0,0,1-1.179-.216,3.229,3.229,0,0,1-1.3-.882A3.6,3.6,0,0,1,.115,5.163,2.714,2.714,0,0,1,.387,3.044,3.966,3.966,0,0,0,.78,1.786a2.207,2.207,0,0,0-.039-.453A1.445,1.445,0,0,1,.808.325c.155-.2.533-.3,1.154-.3.228,0,.451.013.647.024.1.006.195.011.272.013A2.807,2.807,0,0,1,3.436,0,2.364,2.364,0,0,1,5.47,1.191a4.977,4.977,0,0,1,.706,2.62,4.411,4.411,0,0,1-1.057,3.1A2.351,2.351,0,0,1,3.39,7.622ZM3.366,1.554h0A3.8,3.8,0,0,0,1.707,5.129a1.192,1.192,0,0,0,1.3.964A2.746,2.746,0,0,0,3.4,6.064a1.4,1.4,0,0,0,.987-.634,2.476,2.476,0,0,0,.374-1.224,3.42,3.42,0,0,0-.311-1.652,1.781,1.781,0,0,0-1.081-1Z" transform="translate(52.524 69.186)" fill="#c7c7c7"/>
        <path id="Fill_51" data-name="Fill 51" d="M6.773,13.8h0a6.734,6.734,0,0,1-5.635-3.1A5.685,5.685,0,0,1,1,4.993a.662.662,0,0,1-.4.172c-.351,0-.522-.469-.593-.749C-.1,3.977.594,3.209,1.053,2.7c.105-.117.2-.218.259-.294A5.326,5.326,0,0,1,5.274,0c.063,0,.127,0,.19,0A6.575,6.575,0,0,1,9.616,1.583,8.974,8.974,0,0,1,12.3,5.322a7.119,7.119,0,0,1,.421,3.665,5.4,5.4,0,0,1-1.809,3.236A6.189,6.189,0,0,1,6.773,13.8ZM5.156,3.169a1.543,1.543,0,0,0-.441.048,3.568,3.568,0,0,0-1.7,1.34,6.113,6.113,0,0,0-.963,1.974A4.588,4.588,0,0,0,2.4,10.087a4.5,4.5,0,0,0,2.868,2.026,5.862,5.862,0,0,0,1.474.192,4.69,4.69,0,0,0,2.615-.743A3.949,3.949,0,0,0,10.971,9.3a5.027,5.027,0,0,0-.655-4.313A8.4,8.4,0,0,0,6.842,2.172l.03.261.03.261c-.12.437-.574.5-1,.5-.127,0-.261-.006-.379-.011H5.509C5.386,3.173,5.269,3.169,5.156,3.169Zm.1-1.527a3.247,3.247,0,0,0-1.99.752A4.043,4.043,0,0,1,5.254,1.641Z" transform="translate(5.621 65.05)" fill="#c7c7c7"/>
        <path id="Fill_53" data-name="Fill 53" d="M0,.624a.646.646,0,0,0,1.291,0A.646.646,0,0,0,0,.624" transform="translate(9.294 70.232)" fill="#c7c7c7"/>
        <path id="Fill_55" data-name="Fill 55" d="M0,.634a.656.656,0,0,0,1.312,0A.656.656,0,0,0,0,.634" transform="translate(11.498 70.364)" fill="#c7c7c7"/>
        <path id="Fill_57" data-name="Fill 57" d="M3.466,0C2.852.053.6-.156.211.382c-.659.9.393.93.909,1.027.465.087,2.488.038,2.773-.375C4.145.668,4.086-.05,3.466,0" transform="translate(9.032 73.964)" fill="#c7c7c7"/>
        <path id="Fill_59" data-name="Fill 59" d="M.83,4.493h0c-.324,0-.574-.223-.763-.681C-.33,2.853,1.145,1.6,1.629,1.189a3.124,3.124,0,0,1,2.1-.877A4.165,4.165,0,0,1,4.987.533c.357.114.657.241.947.365a3.873,3.873,0,0,0,1.594.425,3.252,3.252,0,0,0,.765-.1A11.11,11.11,0,0,0,9.864.677,7.668,7.668,0,0,1,12.17.011c.1-.007.194-.011.292-.011a7.559,7.559,0,0,1,2.575.614,11.4,11.4,0,0,0,1.71.527,5.875,5.875,0,0,0,1.141.115,7.468,7.468,0,0,0,2.67-.582A7,7,0,0,1,23.077.1a5.679,5.679,0,0,1,1.739.3c.079.025.233.068.428.123,1,.28,3.071.864,3.17,1.22a.751.751,0,0,1-.047.665.758.758,0,0,1-.634.224,6.335,6.335,0,0,1-1.774-.405h0l-.092-.031c-.239-.08-.469-.163-.691-.244a6.958,6.958,0,0,0-2.4-.566,4.026,4.026,0,0,0-1.117.161c-.422.12-.816.25-1.2.376a9.526,9.526,0,0,1-3.078.645,6.462,6.462,0,0,1-.855-.058,9.767,9.767,0,0,1-1.651-.425,7.3,7.3,0,0,0-2.187-.462h-.026a6.879,6.879,0,0,0-2.629.735,10.056,10.056,0,0,1-1.8.64,2.915,2.915,0,0,1-.616.065,5.426,5.426,0,0,1-1.743-.376l-.045-.015a5.044,5.044,0,0,0-1.6-.361,2.3,2.3,0,0,0-.389.033,3.375,3.375,0,0,0-1.2.927C2.044,3.839,1.377,4.493.83,4.493Z" transform="translate(18.909 71.005)" fill="#c7c7c7"/>
      </g>
      <g id="Big_Cards" data-name="Big Cards" transform="translate(1401.545 454.326)" opacity="0.5">
        <path id="Fill_67" data-name="Fill 67" d="M2.491,48.882h0a8.682,8.682,0,0,1-1-.054C.8,48.747.4,48.6.254,48.359.089,48.1.21,47.746.362,47.3A6.369,6.369,0,0,0,.6,46.5a13.083,13.083,0,0,0-.152-4.059c-.1-.761-.2-1.48-.226-2.122-.358-8.849-.2-17.716-.03-25.333.042-1.834.094-3.7.144-5.5q.017-.6.033-1.2c0-.149.009-.3.014-.454A17.03,17.03,0,0,0,.349,5.447,1.826,1.826,0,0,0,.19,4.9C.065,4.61-.025,4.4.349,3.91c.489-.637,1.753-.719,2.8-.719.333,0,.668.009,1.01.019l.07,0c.3.009.586.017.84.017.222,0,.4-.007.542-.02,2.039-.2,3.932-.34,5.784-.437,5.829-.307,11.746-.7,17.468-1.083C41.3.859,54.163,0,66.875,0H68a30.451,30.451,0,0,1,6.725.529,10.7,10.7,0,0,0,1.4.257,1.8,1.8,0,0,0,.188.009c.087,0,.171,0,.253-.01h0c.08,0,.162-.009.243-.009a1.267,1.267,0,0,1,.506.092,1.912,1.912,0,0,1,1.12,1.425,7.989,7.989,0,0,1-.2,3.171c-.106.564-.205,1.1-.242,1.557-.156,1.943-.229,4.056-.223,6.46q0,.377,0,.754a87.411,87.411,0,0,0,.481,10.925c.116.9.245,1.812.37,2.693.338,2.383.687,4.846.8,7.315.039.834.07,1.682.1,2.5v.006c.042,1.167.085,2.374.155,3.563.012.2.011.415.011.639a5.246,5.246,0,0,0,.1,1.3.968.968,0,0,0,.352.5.578.578,0,0,1,.21.266c.147.591.2.985.013,1.249-.169.244-.518.376-1.188.566a31.332,31.332,0,0,1-8.334.837c-.566,0-1.122,0-1.66-.008h-.16c-.5,0-.963-.007-1.435-.007h-.076c-9.562.005-18.18.029-26.82.264-2.624.072-5.3.113-7.886.153-6.151.1-12.511.194-18.728.706-1.461.12-2.945.265-4.379.4l-1.712.166c-.621.059-1.273.155-1.963.257A25,25,0,0,1,2.491,48.882Zm25.931-32.94a12.533,12.533,0,0,1,6.428,2.122,47.021,47.021,0,0,1,5.566,4.164l.272.226c.63.523,1.264,1.058,1.876,1.576,1.388,1.173,2.823,2.386,4.291,3.513l.288.221.05.038c1.243.955,2.529,1.942,3.863,2.8a3.3,3.3,0,0,0,1.736.68,4.353,4.353,0,0,0,2.212-1.011c.327-.217.655-.439.971-.652a36.145,36.145,0,0,1,4.015-2.465,12.344,12.344,0,0,1,4.533-1.335c.309-.026.629-.039.951-.039,2.029,0,5.381.526,9.827,3.033A80.483,80.483,0,0,1,74.15,7.987c.08-1.194.212-2.394.342-3.512.013-.108.05-.277.094-.473a3.049,3.049,0,0,0,.13-1.339c-.245-.484-1.136-.546-1.884-.546-.2,0-.4,0-.611.01h-.032c-.187,0-.363.009-.522.009l-.188,0c-.918-.029-1.865-.042-2.9-.042-2.333,0-4.707.074-7,.145-1.043.032-2.121.066-3.179.092-9.441.232-19.325.756-29.377,1.558-3.737.3-7.54.512-11.218.72-4.294.242-8.732.492-13.088.877-1.621.143-1.622.28-1.632,1.59,0,.154,0,.328-.007.519-.01.441-.021.89-.032,1.323v0l-.007.264c-.058,2.273-.121,4.7-.2,7.144-.1,3.045-.266,6.137-.424,9.127-.091,1.73-.186,3.517-.268,5.276,2.45-1.5,4.819-3.209,7.111-4.862,2.208-1.593,4.492-3.241,6.848-4.7,3.4-2.1,6.746-4.069,10.4-4.988A7.876,7.876,0,0,1,28.421,15.942Z" transform="translate(0 0)" fill="#aaa"/>
        <path id="Fill_69" data-name="Fill 69" d="M.035,1.107c0,1.345-.211,3.329.409,4.6.786,1.606,1.77,1.1,2.031-.405a13.7,13.7,0,0,0-.132-4.191C1.95.023.035-.716.035,1.107" transform="translate(56.57 8.082)" fill="#c7c7c7"/>
        <path id="Fill_71" data-name="Fill 71" d="M6.236.01C4.974.054,1.3-.249.443.766c-1.465,1.741,1.086,2.05,2.181,1.952,1.268-.113,5.184.162,6.033-.854C10.076.164,7.229-.027,6.236.01" transform="translate(52.626 9.699)" fill="#c7c7c7"/>
        <path id="Fill_73" data-name="Fill 73" d="M7.531,12.858h0a8.031,8.031,0,0,1-4.354-1.394A7.207,7.207,0,0,1,.321,8.039,5.76,5.76,0,0,1,.838,3.171a6.519,6.519,0,0,1,1.8-1.989A5.974,5.974,0,0,1,5.161.118,8.553,8.553,0,0,1,6.577,0a7.834,7.834,0,0,1,3.929,1,5.687,5.687,0,0,1,2.582,3.076,6.427,6.427,0,0,1,.323,2.475,7.712,7.712,0,0,1-.576,2.5,6.967,6.967,0,0,1-1.376,2.133,5.338,5.338,0,0,1-2.075,1.364A5.543,5.543,0,0,1,7.531,12.858ZM7.046,2.73a6.008,6.008,0,0,0-2.635.651,3.99,3.99,0,0,0-1.9,1.853,2.5,2.5,0,0,0,0,2.043,6.375,6.375,0,0,0,3.519,2.939,4.332,4.332,0,0,0,1.509.293A3.066,3.066,0,0,0,9.88,9.47,4.08,4.08,0,0,0,10.865,7.1,3.925,3.925,0,0,0,7.459,2.749C7.327,2.736,7.187,2.73,7.046,2.73Z" transform="translate(2.406 51.888)" fill="#c7c7c7"/>
        <path id="Fill_75" data-name="Fill 75" d="M22.566.011C21.184.126,19.99,1.094,18.6,1.265A8.609,8.609,0,0,1,15,.625,7.854,7.854,0,0,0,10.679.388C9.53.68,8.4,1.462,7.2,1.556,4.854,1.741,2.124-.939.29,2.093-.589,3.546.688,4.482,2,3.8c1.371-.706.7-.959,2.4-.542a6.5,6.5,0,0,0,3.987.049c1.287-.442,2.418-1.25,3.817-1.34,1.37-.089,2.562.535,3.871.8a8.485,8.485,0,0,0,4.562-.424c1.451-.48,2.031-.743,3.5-.314.927.271,2.953,1.133,3.856.439,1.561-1.2-.529-1.376-1.352-1.547C25.312.654,23.941-.1,22.566.011" transform="translate(18.764 55.616)" fill="#c7c7c7"/>
        <path id="Fill_77" data-name="Fill 77" d="M5.3,9.853h0A5.076,5.076,0,0,1,1.706,8.4,5.626,5.626,0,0,1,.049,5.134a4.534,4.534,0,0,1,.6-3.049A4.885,4.885,0,0,1,3.583.033,1.039,1.039,0,0,1,3.858,0,8.072,8.072,0,0,1,7,1.172a5.27,5.27,0,0,1,2.095,2.49,5.279,5.279,0,0,1,.333,2.2,4.855,4.855,0,0,1-.6,2.1,3.535,3.535,0,0,1-2.548,1.8A5.859,5.859,0,0,1,5.3,9.853ZM3.866,3.04A1.385,1.385,0,0,0,2.771,4.665a2.92,2.92,0,0,0,.9,1.571,2.5,2.5,0,0,0,1.636.741l.08,0c.8-.039,1.236-.406,1.241-1.034A2.99,2.99,0,0,0,5.759,4.1,2.989,2.989,0,0,0,3.866,3.04Z" transform="translate(67.733 51.497)" fill="#c7c7c7"/>
        <path id="Image_Border" data-name="Image Border" d="M.565,40.968c-.451-1.088.176-1.588,1.092-1.816a12.1,12.1,0,0,1-.1-2.412c-.049-1.387-.067-2.774-.12-4.16-.127-3.3-.211-6.625-.466-9.921-.244-3.15-.858-6.2-.876-9.379C.087,11.134-.509,5.7,1.37,4.237,4.6,2.352,3.324,9,3.27,10.155a68.673,68.673,0,0,0,.406,10.223,67.49,67.49,0,0,1-.171,9.455c-.065,1.676-.1,3.349-.227,5.022a29.553,29.553,0,0,1-.252,4.125c.416-.018.82-.014,1.158-.01.234,0,.437,0,.59,0,2.617-.079,5.235-.148,7.851-.247,10.066-.379,20.138-.207,30.2-.685,9.519-.452,19.074-.548,28.6-.665a.966.966,0,0,1,.671,1.62c-.523.658-2.95.514-3.706.575-2.683.215-5.361.313-8.052.338-5.668.054-11.313.3-16.971.619-10.053.573-20.121.526-30.18.935-2.442.1-4.883.173-7.326.237-.654.017-1.843.225-2.941.225C1.858,41.923.88,41.727.565,40.968ZM73.281,32.13q-.318-5.5-.81-11c-.536-5.913-.995-11.687-.991-17.624a1.338,1.338,0,0,1,2.441-.734c.717.917.255,3.692.273,4.789.058,3.614.4,7.208.724,10.806.322,3.568.55,7.138.8,10.712.115,1.652,1.384,8.244-.461,9.206a1.228,1.228,0,0,1-.563.159C72.977,38.449,73.341,33.168,73.281,32.13ZM1.444,3.762C.841,3.515.353,3.171.685,2.44c.273-.6,1.243-.548,1.979-.494.228.016.434.033.59.03C5.628,1.929,8,1.8,10.369,1.651,15.752,1.321,21.123.936,26.516.844,36.795.669,47.059.1,57.342.007c3.046-.028,6.074.025,9.116.2,1.349.077,2.7.152,4.047.209.248.01.6-.009.982-.027a5.5,5.5,0,0,1,2.262.166c2.684,1.42-2.785,1.576-3.45,1.565-2.79-.047-5.575-.264-8.365-.333-10.261-.252-20.6.372-30.852.793-4.932.2-9.861.231-14.791.508-2.695.151-5.388.324-8.083.467-1.242.066-2.486.129-3.73.16-.528.013-1.435.169-2.179.169A2.376,2.376,0,0,1,1.444,3.762Z" transform="translate(1.057 69.861)" fill="#aaa"/>
        <path id="Image_X" data-name="Image X" d="M1.169,23.669c-.655-.015-1.1-.155-1.166-.949-.087-1.016,1.549-1.433,2.21-1.764q3.4-1.7,6.836-3.33c4.543-2.167,9.129-4.248,13.731-6.287l.08-.035q-3.829-1.3-7.677-2.532C13.717,8.3,3.439,5.763,3.813,4.4c.421-1.526,9.524,2.072,10.925,2.519q5.171,1.648,10.3,3.409c8.206-3.687,16.5-7.615,25.06-10.3.539-.168.88.387.757.853-.164.624-2.084,1.13-2.617,1.367-2.108.942-4.227,1.86-6.335,2.8-4.592,2.052-9.194,4.085-13.786,6.139l-.27.121q4.843,1.721,9.635,3.581c1.71.661,3.412,1.343,5.118,2.013.855.336,4.409,1.178,4.614,2.032.288,1.205-3.5-.275-4.1-.468-1.7-.544-3.384-1.153-5.065-1.759-3.762-1.355-7.509-2.753-11.286-4.068l-1.06-.368q-6.014,2.7-12,5.466Q10.5,19.227,7.32,20.772c-1.559.755-4.37,2.9-6.106,2.9Z" transform="translate(13.587 79.032)" fill="#c7c7c7"/>
        <path id="Fill_117" data-name="Fill 117" d="M6.28,11.866a6.091,6.091,0,0,1-3.856-1.228A4.1,4.1,0,0,1,1.045,8.621a4.623,4.623,0,0,1-.1-1.907,1.261,1.261,0,0,1-.185.014.836.836,0,0,1-.753-.436C-.135,4.509,1.5,2.948,2.486,2.176A10.6,10.6,0,0,1,7.063.037,4.664,4.664,0,0,1,7.645,0a5.071,5.071,0,0,1,3.672,1.675,6.087,6.087,0,0,1,1.688,4.409,5.783,5.783,0,0,1-1.77,3.943,6.787,6.787,0,0,1-3.974,1.782A8.623,8.623,0,0,1,6.28,11.866ZM7.687,1.882a.921.921,0,0,0-1,.553,1.59,1.59,0,0,1-.757.74,1.3,1.3,0,0,1-.55.075,1.538,1.538,0,0,0-.679.1A3.357,3.357,0,0,0,3.465,4.76l-.031.052A3.953,3.953,0,0,0,2.965,8.5a3.206,3.206,0,0,0,2.629,1.669,6.3,6.3,0,0,0,.881.062A5.541,5.541,0,0,0,9.7,9.26a3.982,3.982,0,0,0,1.671-2.872,4.1,4.1,0,0,0-.8-2.9A4.043,4.043,0,0,0,8.019,1.9C7.9,1.887,7.787,1.882,7.687,1.882Z" transform="translate(3.065 114.262)" fill="#c7c7c7"/>
        <path id="Fill_119" data-name="Fill 119" d="M3.915.471C2.765,1.08.947,2.016.274,3.173-.438,4.394.3,5.731,1.8,5.153,2.99,4.694,3.747,3.236,5.017,2.769c1.121-.412,1.573-.2,2.757.208a8.525,8.525,0,0,0,3.607.728c1.659-.13,3.1-1.092,4.719-1.311,1.367-.184,2.494.348,3.8.559,1.519.245,2.512-.329,3.933-.629.967-.2,2.67.625,3.375.315,1.585-.7-.092-1.549-.969-1.831-1.478-.474-2.388-.056-3.794.338-1.527.427-2.186.106-3.645-.286-2.952-.793-5.233,1.125-8.032.776C8.181,1.314,6.63-.967,3.915.471" transform="translate(18.619 117.686)" fill="#c7c7c7"/>
        <path id="Fill_121" data-name="Fill 121" d="M4.939,9.078h0a6.488,6.488,0,0,1-2.22-.388A4.662,4.662,0,0,1,.9,7.525a3.361,3.361,0,0,1-.89-2.647A4.483,4.483,0,0,1,1.807,1.523,8.554,8.554,0,0,1,5.413.079,4.173,4.173,0,0,1,6.2,0,3.048,3.048,0,0,1,8.678,1.2,4.727,4.727,0,0,1,9.6,3.928a5.5,5.5,0,0,1-.957,3.361,4.225,4.225,0,0,1-3.22,1.77C5.263,9.072,5.1,9.078,4.939,9.078ZM6.164,2.223a4.653,4.653,0,0,0-3.444,1.3,2.352,2.352,0,0,0-.589,1.779,1.857,1.857,0,0,0,.851,1.251,3.324,3.324,0,0,0,1.88.624A2.712,2.712,0,0,0,6.414,6.7a2.681,2.681,0,0,0,.972-1.22,2.61,2.61,0,0,0,.1-1.593A3.389,3.389,0,0,0,6.466,2.232C6.369,2.226,6.267,2.223,6.164,2.223Z" transform="translate(64.343 114.509)" fill="#c7c7c7"/>
      </g>
      <path id="Fill_79" data-name="Fill 79" d="M8.267,0C6.143.044.9.816.119,3.328c-.592,1.907,1.166,1.488,2.108.794A8.909,8.909,0,0,1,6.2,2.337C12.216,1.249,18,5.152,23.955,5.645a18.64,18.64,0,0,0,7.136-.422c1.535-.521,1.735-1.655-.016-1.828-1.488-.147-3.135.316-4.66.3C20.1,3.643,14.489-.116,8.267,0" transform="translate(1525.924 469.615)" fill="#e2e2e2" opacity="0.5"/>
      <g id="Cards" transform="translate(1284.536 588.909)" opacity="0.5">
        <path id="Fill_173" data-name="Fill 173" d="M25.712.015q-6.095.068-12.18.452C9.675.712,5.491.526,1.7,1.274.62,1.486-.835,2.468.6,3.548c1.007.759,4.69-.114,5.892-.188,4.427-.272,8.857-.6,13.29-.755,4.2-.148,8.394-.2,12.593-.243a9.555,9.555,0,0,1,2.344-.026c.917.268.7.34.768,1.5.125,2.11.09,4.227.048,6.339-.04,2.044-.116,4.087-.109,6.131.005,1.459-.461,4.357.271,5.624,1.053,1.823,2.146-.157,2.225-1.369.151-2.317.083-4.663.084-6.983,0-2.178.016-4.356-.061-6.533-.056-1.573.169-4.317-.678-5.747C36.4-.153,34.327.161,32.811.092c-2.364-.109-4.733-.1-7.1-.077" transform="translate(0.803 0)" fill="#c7c7c7"/>
        <path id="Fill_171" data-name="Fill 171" d="M.662,1.236c0,4.092-.469,8.157-.6,12.244a20.935,20.935,0,0,0,.291,5.788c.48,1.863,2,2.266,2.18.187.356-4.211.268-8.577.545-12.822.1-1.5.734-4.245.14-5.649C2.694-.252.66-.489.662,1.236" transform="translate(0 1.407)" fill="#c7c7c7"/>
        <path id="Fill_175" data-name="Fill 175" d="M37.675.006C30.618.94,23.241.6,16.134.746c-3.41.07-6.819.075-10.229.111C4.716.869,1.694.417.664,1.086-.975,2.151.8,2.973,1.888,3c6.73.147,13.534-.162,20.262-.383,3.023-.1,6.056-.148,9.071-.4a31.971,31.971,0,0,0,5.687-.81c.384-.107,1.22-.084,1.306-.608.053-.324-.043-.853-.539-.784" transform="translate(1.09 20.675)" fill="#c7c7c7"/>
        <path id="Fill_177" data-name="Fill 177" d="M8.859.207C6.9.218.988-.693.176,1.22-.907,3.77,3.317,3.175,4.453,3.146c2.58-.066,5.159-.073,7.739-.072,2.532,0,5.064-.015,7.6-.075.733-.018,2.441.287,2.863-.6A1.112,1.112,0,0,0,22.127.846C20.7-.01,17.007.486,15.341.409c-2.157-.1-4.322-.2-6.482-.2" transform="translate(0.563 26.423)" fill="#c7c7c7"/>
        <path id="Fill_179" data-name="Fill 179" d="M5.084.128C3.964.194,1.7-.268.692.245c-1.141.583-.739,1.5.246,1.9a9.687,9.687,0,0,0,4.146-.19c.693-.336,1.476-1.916,0-1.825" transform="translate(28.196 26.974)" fill="#c7c7c7"/>
        <path id="Fill_181" data-name="Fill 181" d="M.987,0C-.21.333.153,7.128.122,8.206c-.085,2.952-.416,6.664.564,9.507.625,1.812,1.827,1.566,1.622-.341-.18-1.675-.488-3.33-.622-5.015A77.966,77.966,0,0,1,1.26.657c.121.222,1.257,2.279,1.524,2.125C2.7,2.83,1.474-.124.987,0" transform="translate(44.582 3.041)" fill="#c7c7c7"/>
        <path id="Fill_183" data-name="Fill 183" d="M15.156.037c-2.423.036-4.845.079-7.267.146C5.963.237,2.937-.08,1.171.73c-2.1.964-1.105,3.113.87,3.159,1.747.04,3.61-.354,5.373-.414,4.762-.163,9.533-.2,14.3-.239,4.309-.037,8.8.422,13.072-.225.634,5.625-1.08,11.274-.5,16.964.09.883.05,2.131,1.174,2.332,1.419.254,1.478-1.152,1.532-2.159.154-2.874.07-5.751.281-8.629a41.879,41.879,0,0,0,.254-8.064C37.129.169,35.554.432,32.769.3,26.888.007,21.043-.049,15.156.037" transform="translate(43.878 0.505)" fill="#c7c7c7"/>
        <path id="Fill_185" data-name="Fill 185" d="M4.38.07C3.146.1,1.1-.28.3.9-.518,2.136.458,3.21,1.655,3.463c1.416.3,3.263-.111,4.733-.115,1.531,0,3.062.013,4.593.019,6.564.026,13.155.125,19.714-.146.916-.038,3.516.269,4.15-.609.563-.779.169-1.478-.572-1.875C33.058.084,30.561.331,29.209.28,27.539.216,25.867.2,24.2.169,17.6.067,10.974-.093,4.38.07" transform="translate(46.535 20.447)" fill="#c7c7c7"/>
        <path id="Fill_187" data-name="Fill 187" d="M9.227,0A56.865,56.865,0,0,0,1.718.307c-2.138.328-2.4,2.395-.1,2.636a43.292,43.292,0,0,0,6.805-.33c.755-.049,1.633.02,1.995-.814A1.341,1.341,0,0,0,9.227,0" transform="translate(47.241 26.21)" fill="#c7c7c7"/>
        <path id="Fill_189" data-name="Fill 189" d="M5.937.17C4.626.2.8-.361.147,1.137c-1.081,2.493,4.1,1.546,5.1,1.509,1.253-.046,6.138.686,6.14-1.31C11.386-.621,7.138.14,5.937.17" transform="translate(69.099 26.257)" fill="#c7c7c7"/>
        <path id="Fill_191" data-name="Fill 191" d="M.091,1.545c0,4.535-.279,9.113.135,13.636.171,1.871.142,5.455,1.225,7.041.769,1.126,1.836,1.047,2.256-.3.281-.9-.168-2.711-.218-3.678-.048-.928-.1-1.855-.148-2.783-.11-2.391-.1-4.778-.069-7.171.028-2.052.522-4.767.056-6.74C2.895-.294.091-.724.091,1.545" transform="translate(0.359 37.27)" fill="#aaa"/>
        <path id="Fill_193" data-name="Fill 193" d="M44.822.153c-7.868.2-15.754.021-23.615.411-3.877.192-7.739.614-11.6,1.034-1.9.207-3.789.42-5.681.653-.571.07-5.315.254-3.531,2.058.779.788,3.258-.035,4.239-.151,1.9-.224,3.8-.42,5.7-.621,3.62-.383,7.244-.746,10.879-.947,8.561-.474,17.157-.332,25.727-.648,2.318-.085,4.629-.147,6.948-.055.609.024,5.084.251,3.141-1.4-.919-.782-4.382-.378-5.53-.4C49.279.037,47.05.1,44.822.153" transform="translate(1.206 34.672)" fill="#aaa"/>
        <path id="Wireframy_Stuff" data-name="Wireframy Stuff" d="M0,27.025c-.183-2.578,6.284-2.573,8.134-2.745a225.684,225.684,0,0,1,23.974-.472c3.851.053,7.7.171,11.543-.064s7.819-.173,11.635-.587a36.764,36.764,0,0,1-.558-6.236c-.354-5-.259-10.016-.487-15.02-.1-2.2,2.9-2.539,3.794-.754.9,1.8.315,5.379.373,7.378.135,4.627.993,9.808.086,14.385-.315,1.592-1.658,2.428-2.552,1.561l0,.006c-.336.5-1.382.494-2.153.494-.212,0-.4,0-.553.01-2.111.144-4.183.385-6.276.7a100.758,100.758,0,0,1-12.517,1.113c-8.335.206-16.7.013-25.027.584a45.691,45.691,0,0,0-5.472.691,12.6,12.6,0,0,1-2.3.376C.8,28.443.082,28.139,0,27.025Z" transform="translate(2.336 34.281)" fill="#aaa"/>
        <path id="Fill_199" data-name="Fill 199" d="M1.606.319A1.623,1.623,0,0,0,.131,2.527c.6,1.453,2.378.885,3.554.793,3.738-.293,7.641.292,11.334-.149,1.009-.121,2.472-.67,1.566-2.025C15.9.127,13.425.306,12.371.208A56.234,56.234,0,0,0,1.606.319" transform="translate(61.517 37.478)" fill="#e2e2e2"/>
        <path id="Fill_201" data-name="Fill 201" d="M5.613.052C4.163.15.788.073.177,1.722c-1.1,2.959,3.2,1.916,4.5,1.748,1.518-.2,5.1.328,5.905-1.144C12.031-.306,6.884-.036,5.613.052" transform="translate(63.819 44.083)" fill="#e2e2e2"/>
        <path id="Fill_203" data-name="Fill 203" d="M.516.639a1.9,1.9,0,0,0,0,2.6c.843.842,2.681.667,3.789.729,1.545.086,5.984.9,6.752-.916C12.092.6,8.072.653,6.75.513,5.222.353,1.783-.628.516.639" transform="translate(65.188 49.99)" fill="#e2e2e2"/>
        <path id="Fill_205" data-name="Fill 205" d="M0,1.984c0,2.64,4.123,2.64,4.123,0S0-.681,0,1.984" transform="translate(11.528 6.615)" fill="#c7c7c7"/>
        <path id="Fill_207" data-name="Fill 207" d="M0,2.267c0,3.018,4.7,3.012,4.7,0S0-.771,0,2.267" transform="translate(19.349 6.362)" fill="#c7c7c7"/>
        <path id="Fill_209" data-name="Fill 209" d="M1.022.041c-2.283.63-.18,2.565.88,3.007,1.685.7,3.984,1.22,5.669.167.67-.419,1.215-.976.723-1.789-.524-.866-1.24-.481-2.037-.4a6.251,6.251,0,0,1-2.8-.238C2.729.545,1.816-.178,1.022.041" transform="translate(13.595 12.601)" fill="#c7c7c7"/>
        <path id="Fill_211" data-name="Fill 211" d="M0,1.339a1.387,1.387,0,0,0,2.772,0A1.387,1.387,0,0,0,0,1.339" transform="translate(56.024 7.427)" fill="#c7c7c7"/>
        <path id="Fill_213" data-name="Fill 213" d="M0,1.488a1.541,1.541,0,0,0,3.08,0,1.541,1.541,0,0,0-3.08,0" transform="translate(62.156 7.547)" fill="#c7c7c7"/>
        <path id="Fill_215" data-name="Fill 215" d="M6.582.087C4.964.3.284.769.023,2.764c-.4,3.077,4.723.587,5.894.345a16.961,16.961,0,0,1,4.309-.168c.817.033,1.9.165,1.818-1.079C11.9-.182,8-.095,6.582.087" transform="translate(55.346 13.254)" fill="#c7c7c7"/>
        <path id="Fill_217" data-name="Fill 217" d="M2.125.04C.952.353-.582,2.38.225,3.621c1.323,2.035,1.906-1.089,2.46-1.39,1.007-.547,1.825,1.452,2.878.4C7.224.979,3.171-.24,2.125.04" transform="translate(19.124 41.674)" fill="#aaa"/>
        <path id="eye" d="M4.551,0C3.161.013.225,1.982.017,3.436A1.438,1.438,0,0,0,1.4,5.141c1.268.015,1.671-1.633,2.77-1.978,1.186-.372,1.01.484,2.034.928a1.328,1.328,0,0,0,1.947-.732C8.639,1.621,5.98-.027,4.551,0" transform="translate(30.135 40.209)" fill="#aaa"/>
        <path id="Fill_221" data-name="Fill 221" d="M.7.215c-2.224,1.3,1.436,4.1,2.7,4.447,1.916.527,5.771-.457,6.225-2.8A1.251,1.251,0,0,0,8.2.257c-.846.137-1.389,1.2-2.173,1.579a2.426,2.426,0,0,1-2.9-.294C2.4.912,2.007-.546.7.215" transform="translate(23.339 48.319)" fill="#aaa"/>
        <path id="Fill_223" data-name="Fill 223" d="M19.3.19c-1.987.424-4.008.139-6,.538-2.036.407-3.253,1.176-5.145.4l-.267-.113A4.507,4.507,0,0,0,3.356,1.2C2.449,1.8-.3,3.856.028,5.111.747,7.833,3.845,3.565,4.635,3.149c1.507-.793,2.539.22,4.091.506,1.858.343,3.353-.639,5.1-1.03,2.047-.457,4.349-.617,6.432-.861.823-.1,3.939.554,4.22-.47.483-1.759-4.4-1.27-5.176-1.1" transform="translate(6.349 67.604)" fill="#e2e2e2"/>
        <path id="Fill_225" data-name="Fill 225" d="M7.843,9.745h0c-1.481,0-2.668-.048-3.735-.151a5.7,5.7,0,0,1-2.129-.5A2.494,2.494,0,0,1,.753,7.428a23.634,23.634,0,0,1-.674-3.16C-.12,2.684.056,1.747.6,1.483a1.275,1.275,0,0,1,.567-.107c.111,0,.226.007.318.013H1.5c.1.006.195.012.283.012a1.116,1.116,0,0,0,.2-.015c.478-.088.966-.215,1.483-.35A17.586,17.586,0,0,1,5.525.587c1.963-.266,4.1-.446,6.52-.55h.03C12.466.019,12.909,0,13.388,0a9.124,9.124,0,0,1,2.693.327,2.817,2.817,0,0,1,1.886,1.52,5.833,5.833,0,0,1,.067,3.143,10.845,10.845,0,0,1-1.012,3.024C16.174,9.531,14.491,9.74,12.8,9.74c-.317,0-.641-.008-.926-.014h-.019c-.3-.007-.587-.014-.867-.014H10.8l-.813.011H9.974C9.276,9.734,8.555,9.745,7.843,9.745ZM2.171,2.486h0c.038.24.063.694.092,1.221.074,1.329.175,3.149.572,3.6.379.428,1.721.441,2.523.449.2,0,.372,0,.491.011,1.265.079,2.554.117,3.8.153.523.015,1.065.031,1.6.05.277.01.651.057,1.047.108a14.718,14.718,0,0,0,1.771.154,2.494,2.494,0,0,0,1.082-.182,4.559,4.559,0,0,0,1.413-2.6,5.007,5.007,0,0,0,.116-3.321,1.914,1.914,0,0,0-1.156-.739,6.962,6.962,0,0,0-1.825-.2A29.182,29.182,0,0,0,9.579,1.6c-.469.07-.874.131-1.167.161a19.039,19.039,0,0,0-1.919.358,16.917,16.917,0,0,1-3.295.5,3.336,3.336,0,0,1-1.027-.135Z" transform="translate(37.145 65.928)" fill="#e2e2e2"/>
        <path id="quare" d="M11.175,12.032h0A60.877,60.877,0,0,1,4.4,11.686a5.145,5.145,0,0,1-2.84-.953A3.822,3.822,0,0,1,.405,8C.377,7.7.327,7.34.269,6.924c-.278-2-.7-5.01.852-6C2.283.184,4.61.11,6.31.057,6.7.045,7.078.033,7.4.014,7.578,0,7.769,0,7.962,0a25.56,25.56,0,0,1,3.18.273c.863.11,1.755.224,2.62.261a6.253,6.253,0,0,1,3.1.622,3.787,3.787,0,0,1,1.419,2.628,2.563,2.563,0,0,0,.188.515,1.881,1.881,0,0,1,.217.816,10.819,10.819,0,0,1-.334,2.127c-.074.334-.143.649-.19.92a4.474,4.474,0,0,1-1.538,2.959A5.337,5.337,0,0,1,13.436,12C12.664,12.022,11.9,12.032,11.175,12.032ZM13.2,8.66c-.868.158-1.784.328-2.883.535l-.542.1c.339.024.644.067.938.109a7.051,7.051,0,0,0,.949.093A1.72,1.72,0,0,0,13.2,8.66ZM6.464,8.5h0l-.147.049-.584.2h0l-.395.13c.43.053.839.1,1.249.145a1,1,0,0,1-.119-.52ZM3.821,6.993a.23.23,0,0,0-.172.052.17.17,0,0,0-.039.131.319.319,0,0,0,.042.239.116.116,0,0,0,.09.036c.126,0,.343-.135.646-.4H4.346a1.825,1.825,0,0,1-.266-.029h0A1.766,1.766,0,0,0,3.821,6.993Zm7.5-3.676a.151.151,0,0,0-.12.067c-.086.068-.125.109-.119.127s.01.009.023.009a1.416,1.416,0,0,0,.3-.092L11.5,3.4A.279.279,0,0,0,11.325,3.316Zm4.052-.705c.409.594.607.64.658.64a.065.065,0,0,0,.069-.067C16.116,3.029,15.878,2.7,15.377,2.611Z" transform="translate(58.556 64.501)" fill="#c7c7c7"/>
      </g>
      <g id="Profile" transform="translate(1406.483 586.958)" opacity="0.5">
        <path id="face-3" data-name="face" d="M10.713,18.584h0a11.2,11.2,0,0,1-2.929-.4,12,12,0,0,1-2.731-1.118,11.338,11.338,0,0,1-2.329-1.724A9.557,9.557,0,0,1,1,13.127,7.62,7.62,0,0,1,0,9.242,8.5,8.5,0,0,1,1.367,4.9c-.546-.111-.843-.31-.884-.59-.111-.764,1.676-1.9,2.124-2.136l.161-.086A15.452,15.452,0,0,1,7.6.158,14.508,14.508,0,0,1,9.752,0a13.486,13.486,0,0,1,5.605,1.163,9.8,9.8,0,0,1,2.377,1.526,8.228,8.228,0,0,1,1.789,2.218,7.742,7.742,0,0,1,.93,3.125,9.066,9.066,0,0,1-.332,3.21,10.54,10.54,0,0,1-1.373,2.967,10.369,10.369,0,0,1-2.193,2.4A9.3,9.3,0,0,1,10.713,18.584ZM9.557,2.231A8.055,8.055,0,0,0,3.543,4.854a6.349,6.349,0,0,0-1.3,2.284,6.452,6.452,0,0,0-.225,2.811,7.731,7.731,0,0,0,2.9,4.932,9.08,9.08,0,0,0,2.554,1.46,8.172,8.172,0,0,0,2.856.53c.171,0,.343-.006.512-.018A8.113,8.113,0,0,0,15.8,14.642a8.144,8.144,0,0,0,2.525-4.815,5.677,5.677,0,0,0-1.288-4.64A8.035,8.035,0,0,0,13.779,3a12.181,12.181,0,0,0-4.043-.771Z" transform="translate(24.831 0)" fill="#c7c7c7"/>
        <path id="Fill_231" data-name="Fill 231" d="M0,1.282a1.327,1.327,0,0,0,2.653,0A1.327,1.327,0,0,0,0,1.282" transform="translate(31.397 6.666)" fill="#c7c7c7"/>
        <path id="Fill_233" data-name="Fill 233" d="M0,1.39a1.439,1.439,0,0,0,2.876,0A1.439,1.439,0,0,0,0,1.39" transform="translate(36.316 6.832)" fill="#c7c7c7"/>
        <path id="Fill_235" data-name="Fill 235" d="M.024.48C-.363,1.886,4.051,2.607,4.2.98,4.267.2.293-.5.024.48" transform="translate(32.972 11.406)" fill="#c7c7c7"/>
        <path id="Fill_237" data-name="Fill 237" d="M.5,2.9c5.079-.609,10.315-.328,15.418-.182,1.277.037,2.554.073,3.832.094.812.014,2.566.4,3.274.023,2.9-1.556-2.791-2.309-3.6-2.381a175.825,175.825,0,0,0-18-.37C-.078.144-.4,3.009.5,2.9" transform="translate(45.433 8.117)" fill="#c7c7c7"/>
        <path id="Hola_:_2" data-name="Hola :)" d="M68.787,26.783c.044-5.321.234-10.678.643-15.984.167-2.162.366-4.322.532-6.484C70.041,3.3,70.4,1.87,69.8.976a1.824,1.824,0,0,0-2.786-.3c-.976,1.264-.693,3.385-.814,4.914-.187,2.351-.412,4.7-.524,7.055a108.216,108.216,0,0,0,.1,13.751,41.742,41.742,0,0,0,1.047,6.34c.227.954,2.035,5.2,1.655,5.788-.589.909-4.942.565-5.886.59-2.423.065-4.847.107-7.271.154q-3.113.059-6.225.086c-.824.007-5.666-.139-4.592,1.082-12.01.837-24.249-.56-36.185-1.039-.6-.024-1.589-.2-2.5-.245A7.95,7.95,0,0,1,5.6,38.05c-.157-1.918-.2-3.843-.368-5.761C4.922,28.78,4.318,25.306,3.959,21.8s-.322-7.009-.531-10.517c-.036-.6-.12-5.525-1.363-6.721a5.64,5.64,0,0,0,2.086.208c4.428-.357,8.824-1.127,13.213-1.787,1.256-.189,4.106-.055,5.148-.683.9-.544,1.258-2.449-.31-2.295-4.377.469-8.731,1.2-13.074,1.913-1.162.192-2.32.4-3.479.606-.774.14-2.816.129-3.416.6-.729.566-.806.951-.559,1.208C1.332,4.237.92,4.385.426,4.88-.509,6.1.37,9.092.481,10.518c.134,1.711.2,3.424.278,5.138A85.176,85.176,0,0,0,1.79,25.52c.6,3.671,1.107,7.357,1.706,11.026a25.514,25.514,0,0,0,.619,2.81c-1.615.826-.517,2.14.764,2.373l.028,0c.4.974.958,1.876,1.394.571a1.29,1.29,0,0,0,.053-.362c3.308.375,6.945.142,10.2.275,7.055.288,14.154.721,21.217.5a81.971,81.971,0,0,0,8.373-.708c1.624-.219,3.255-.479,4.853-.842.114-.026.289-.053.49-.086l.1,0q3.671-.055,7.338-.2c2.053-.085,4.115-.129,6.161-.323,1.271-.12,3.957-.1,4.737-1.376.71-1.162-.477-4.156-.645-5.461a50.992,50.992,0,0,1-.391-6.934" transform="translate(0 9.48)" fill="#e2e2e2"/>
        <path id="Fill_241" data-name="Fill 241" d="M25.938.012C23.982.18,22.174,1.1,20.2,1.109,18.543,1.119,16.912.624,15.247.7c-1.954.085-3.029,1.349-4.74,1.772-1.363.336-2.221-.707-3.42-1.168a3.834,3.834,0,0,0-3.928.6C2.205,2.548-.017,4,0,5.311.051,9.278,4.68,3.8,5.613,3.731c1.24-.088,2.625,1.325,3.944,1.406,1.744.107,2.862-1.018,4.468-1.427,1.624-.414,3.38.093,5.008.251a15.217,15.217,0,0,0,5.281-.678,10.668,10.668,0,0,1,5-.046C30.5,3.48,33.48,4.9,34,3.075,34.714.6,27.3-.1,25.938.012" transform="translate(18.046 20.887)" fill="#c7c7c7"/>
        <path id="Fill_243" data-name="Fill 243" d="M19.953.005c-4.007.389-8.039.73-12.064.839C6.145.892-.557.145.037,2.36c.509,1.9,9.631.7,11.488.559,2.051-.159,4.1-.382,6.139-.64.723-.092,2.47,0,2.98-.6.486-.579.247-1.764-.692-1.67" transform="translate(24.626 28.461)" fill="#c7c7c7"/>
        <path id="have_a_nice_day_:_" data-name="have a nice day :)" d="M4.452,9.07a4.11,4.11,0,0,1-3.208-1.6A5.663,5.663,0,0,1,0,4.049,3.989,3.989,0,0,1,.924,1.3,4.188,4.188,0,0,1,4.038,0h.043a.686.686,0,0,1,.566.263.57.57,0,0,0,.372.219h.012A.722.722,0,0,0,5.337.327L5.38.3A.866.866,0,0,1,5.8.114H5.82A3.077,3.077,0,0,1,8.642,1.5,3.774,3.774,0,0,1,9.2,3.4a5.833,5.833,0,0,1-.319,2.1A5.177,5.177,0,0,1,6.044,8.775,4.679,4.679,0,0,1,4.452,9.07Zm.886-6.923a.9.9,0,0,0-.477.143,1.6,1.6,0,0,1-.822.22C2.983,2.543,2.386,3.1,2.4,4.034a2.968,2.968,0,0,0,.691,1.754,2.139,2.139,0,0,0,1.595.867,1.9,1.9,0,0,0,1.352-.638,3.78,3.78,0,0,0,.84-1.645,2.134,2.134,0,0,0-.2-1.769c-.243-.3-.344-.308-.527-.323a1.664,1.664,0,0,1-.336-.056A1.857,1.857,0,0,0,5.338,2.147Z" transform="translate(13.742 36.035)" fill="#c7c7c7"/>
        <path id="espero" d="M3.728,8.207H3.645A3.534,3.534,0,0,1,1.014,6.969a4.3,4.3,0,0,1-.982-3.3C.291,1.555,1.611.4,4.183.036A3.65,3.65,0,0,1,4.685,0,2.667,2.667,0,0,1,6.7.855,4.346,4.346,0,0,1,7.65,4.1a4.954,4.954,0,0,1-1.1,2.821A3.593,3.593,0,0,1,3.728,8.207ZM3.15,2.944h0l0,0A1.347,1.347,0,0,0,2.67,4.519,1.278,1.278,0,0,0,3.844,5.531,1.272,1.272,0,0,0,4.3,5.443a1.975,1.975,0,0,0,.953-1.3.892.892,0,0,0-.154-.825c.016.017.022.03.018.04s-.033.021-.079.021a6.141,6.141,0,0,1-1.078-.217c-.324-.083-.619-.165-.745-.2L3.15,2.944Z" transform="translate(31.238 35.978)" fill="#c7c7c7"/>
        <path id="hola" d="M3.352,9.7h0a3.179,3.179,0,0,1-2.343-.955,3.705,3.705,0,0,1-.986-2.2A3.938,3.938,0,0,1,.631,3.975a3.856,3.856,0,0,1,2.5-1.624A1.2,1.2,0,0,1,2.637.727a1.207,1.207,0,0,1,1-.727C5.071,0,6.76,3.373,6.907,4.229A6.405,6.405,0,0,1,6.69,7.524a3.4,3.4,0,0,1-.863,1.308A3.219,3.219,0,0,1,4.31,9.6,4.509,4.509,0,0,1,3.352,9.7ZM4.4,4.969h0c-1.5.132-1.637.749-1.626,1.008a.921.921,0,0,0,.86.831.6.6,0,0,0,.451-.2A2.131,2.131,0,0,0,4.4,4.969Z" transform="translate(54.697 34.053)" fill="#c7c7c7"/>
      </g>
      <path id="Fill_251" data-name="Fill 251" d="M4.833.138C3.388.4-.03,1.992,0,3.706c.046,2.677,2.951-.247,3.6-.64,3.471-2.112,7.966.625,11.58,1.207,1.657.267,4.9.76,6.362-.35,2.6-1.975-3.417-1.48-4.183-1.56C13.189,1.933,9.043-.614,4.833.138" transform="translate(1470.456 625.407)" fill="#e2e2e2" opacity="0.5"/>
      <g id="List" transform="translate(1542.381 602.375)" opacity="0.5">
        <path id="Fill_253" data-name="Fill 253" d="M.018,1.485a44.821,44.821,0,0,0,.365,8.24c.153.819.273,2.388,1.138,2.813A1.318,1.318,0,0,0,3.446,11.6c.252-1.035-.3-2.585-.356-3.672-.077-1.485-.082-2.971-.083-4.458,0-1.074.353-2.8-.915-3.353A1.525,1.525,0,0,0,.018,1.485" transform="translate(1.171 2.865)" fill="#e2e2e2"/>
        <path id="Fill_255" data-name="Fill 255" d="M42.7.019c-9.074.911-18.278,1.1-27.385,1.575-4.21.219-9.3-.061-13.263,1.569C1.318,3.465-1.32,5.15.821,5.835c.667.214,1.345-.505,1.894-.746a12.131,12.131,0,0,1,2.943-.681c8.275-1.329,16.93-1.1,25.29-1.718,2.142-.159,4.285-.323,6.423-.533,1.527-.15,4.737-1.251,6.147-.688,2.408.962,2.352,7.213,2.4,9.363.025,1.112-1.054,5.1,1.091,4.7,1.717-.324,1.1-4.47.961-5.6C47.618,6.952,47.019-.419,42.7.019" transform="translate(1.785 0)" fill="#e2e2e2"/>
        <path id="Fill_257" data-name="Fill 257" d="M44.813,0C36.931.716,28.868.017,20.954.3,16.806.444,12.662.678,8.513.815,6.718.874,4.922.877,3.127.89,2.268.9-1.639,1.416.778,3.118c1.07.754,4.481.147,5.709.132,1.845-.022,3.688-.1,5.532-.171,4.27-.167,8.537-.4,12.809-.514,4.086-.111,8.175-.134,12.261-.245A51.63,51.63,0,0,0,43.2,1.906c.455-.067,1.932-.12,2.247-.627.3-.479.089-1.344-.633-1.275" transform="translate(3.02 15.381)" fill="#c7c7c7"/>
        <path id="Fill_259" data-name="Fill 259" d="M4.491,8.489h0A4.386,4.386,0,0,1,1.341,7.232,4.568,4.568,0,0,1,.016,4.422,3.9,3.9,0,0,1,.782,1.691,4.749,4.749,0,0,1,3.806.018,1.116,1.116,0,0,1,4,0a1.384,1.384,0,0,1,.634.187,1.539,1.539,0,0,0,.511.178A1.451,1.451,0,0,0,5.31.373,3.3,3.3,0,0,0,5.785.327,3.279,3.279,0,0,1,6.264.281a1.357,1.357,0,0,1,.385.052A2.876,2.876,0,0,1,8,1.266,4.7,4.7,0,0,1,8.82,2.7a4.386,4.386,0,0,1,.244,1.869A4.23,4.23,0,0,1,7.352,7.61a4.378,4.378,0,0,1-1.722.759A5.659,5.659,0,0,1,4.491,8.489ZM5.757,2.854h0C4.729,2.86,2.9,3.079,2.565,3.861c-.15.35.011.78.48,1.277a2.03,2.03,0,0,0,1.481.68A1.881,1.881,0,0,0,6.238,4.725a1.69,1.69,0,0,0-.482-1.871Z" transform="translate(6.592 5.546)" fill="#e2e2e2"/>
        <path id="Fill_261" data-name="Fill 261" d="M15.65.058C11.829.07,8.008.232,4.188.3,3.016.327,0-.2,0,1.649-.005,3.623,3.349,2.894,4.466,2.868c3.789-.091,7.588-.257,11.362-.617.953-.091,4.253.066,4.25-1.23,0-1.374-3.658-.962-4.428-.962" transform="translate(18.996 7.884)" fill="#e2e2e2"/>
        <path id="Fill_263" data-name="Fill 263" d="M42.3.009C32.851.263,23.416.351,13.975.835c-3.531.181-7.058.315-10.595.315C2.7,1.15,1.328.886.687,1.315-1.053,2.479.928,3.477,2.062,3.54c7.756.43,15.624-.641,23.376-.883,4.538-.141,9.077-.183,13.612-.414,1.237-.063,2.475-.136,3.71-.232.71-.055,2.589.1,3.163-.32C48.43-.123,43.145-.013,42.3.009" transform="translate(1.471 20.814)" fill="#c7c7c7"/>
        <path id="Fill_265" data-name="Fill 265" d="M.053,1.638A43.406,43.406,0,0,0,.276,8.931c.126.959.184,2.047,1.308,2.29,1.02.221,1.538-.551,1.749-1.407.516-2.09.062-5.1.056-7.269,0-1.073,0-2.275-1.33-2.517A1.689,1.689,0,0,0,.053,1.638" transform="translate(0.364 23.805)" fill="#c7c7c7"/>
        <path id="Fill_267" data-name="Fill 267" d="M53.786,0Q30.843,1.213,7.909,2.16C6.715,2.211-2.558,2.11.684,5.344c1,1,3.581.322,4.876.259,1.946-.1,3.893-.169,5.839-.268,7.716-.393,15.451-.5,23.161-.939q6.364-.364,12.7-1.116c2.008-.235,4.5-.211,6.38-1C54.6,1.877,55.648-.1,53.786,0" transform="translate(0 31.346)" fill="#c7c7c7"/>
        <path id="Fill_269" data-name="Fill 269" d="M.709.653C-.454,1.812.144,4.1.231,5.529.352,7.5.5,9.471.745,11.431.9,12.7.82,14.685,1.5,15.785a1.879,1.879,0,0,0,3.265-.1c.636-1.1.314-3.415.3-4.634-.023-1.686-.128-3.375-.228-5.057C4.75,4.588,5.069,2.334,4.3,1.13A2.312,2.312,0,0,0,.709.653" transform="translate(44.283 18.269)" fill="#c7c7c7"/>
        <path id="Fill_271" data-name="Fill 271" d="M4.194,7.013h0a4.967,4.967,0,0,1-.761-.056A4.28,4.28,0,0,1,.358,4.814,3.088,3.088,0,0,1,0,3.464,3.123,3.123,0,0,1,.339,1.989,3.117,3.117,0,0,1,2.375.436a12.682,12.682,0,0,1,2.7-.407L5.306.011C5.393,0,5.482,0,5.57,0A3.669,3.669,0,0,1,8.2,1.161a3.136,3.136,0,0,1,.871,2.367,3.361,3.361,0,0,1-1.7,2.595A6.122,6.122,0,0,1,4.194,7.013ZM3,2.817a.286.286,0,0,0-.187.079c-.156.132-.366.436-.017.983a1.53,1.53,0,0,0,1.351.7A2.939,2.939,0,0,0,5.683,4.1a1.535,1.535,0,0,0,.781-.963c.024-.239-.1-.553-.808-.7H5.613a7,7,0,0,0-2.036.53.248.248,0,0,1-.1.021A.51.51,0,0,1,3.238,2.9.507.507,0,0,0,3,2.817Z" transform="translate(7.092 25.132)" fill="#c7c7c7"/>
        <path id="Fill_273" data-name="Fill 273" d="M7.752.133C5.961.162,2.439-.368.878.505c-1.545.864-.856,2.4.553,2.771a14.033,14.033,0,0,0,3.423-.189c1.275-.052,2.552-.063,3.828-.081,2.146-.029,4.292,0,6.439,0,2.192,0,4.422.06,6.611-.1C24.5,2.7,24.428.624,21.719.364A126.849,126.849,0,0,0,7.752.133" transform="translate(19.094 26.242)" fill="#c7c7c7"/>
        <path id="Fill_275" data-name="Fill 275" d="M0,.438c0,.985.874,0,.868,0S0-.547,0,.438" transform="translate(22.27 49.161)" fill="#c7c7c7"/>
        <path id="Fill_277" data-name="Fill 277" d="M0,1.377c.056,2.864.093,5.73.216,8.592.039.9-.22,2.672.876,3.133,1.221.513,1.6-.766,1.741-1.634C3.278,8.72,2.842,5.583,2.8,2.8,2.785,1.87,2.987.57,1.926.1A1.414,1.414,0,0,0,0,1.377" transform="translate(2.497 40.291)" fill="#c7c7c7"/>
        <path id="Fill_279" data-name="Fill 279" d="M49.175,10.284h0a1.348,1.348,0,0,1-1.1-.787c-.413-.692-.235-1.908-.062-3.084a9.18,9.18,0,0,0,.16-1.868c-.01-.119-.018-.236-.026-.349-.057-.827-.107-1.541-.806-1.848a2.527,2.527,0,0,0-.994-.154c-.409,0-.845.044-1.267.087-.349.035-.679.069-.942.07-2.194.01-4.424.016-6.582.022h0c-6.559.017-13.342.036-20.01.17-3.947.079-6.968.181-9.8.33a26.923,26.923,0,0,0-4.48.515A9.491,9.491,0,0,1,1.419,3.6C.655,3.6.194,3.448.049,3.147c-.134-.278.007-.682.42-1.2.73-.919,3.25-1.1,4.756-1.2C5.5.721,5.741.7,5.939.685,7.564.532,9.232.462,10.846.394h.006l.728-.031C15.506.2,19.5.134,23.367.076h.044L24.768.054C27.119.018,29.533,0,32.148,0c1.94,0,3.95.01,6.145.03,2.576.024,5.174.144,7.94.368a6.486,6.486,0,0,1,2.55.5,3.221,3.221,0,0,1,1.37,2.119A12.7,12.7,0,0,1,50.83,8.5a2.608,2.608,0,0,1-.6,1.209A1.47,1.47,0,0,1,49.175,10.284Z" transform="translate(1.79 39.315)" fill="#c7c7c7"/>
        <path id="Fill_281" data-name="Fill 281" d="M41.436.827c-9.535,1.107-19.342.455-28.928.494-2.331.01-4.664.028-6.993.141-1.23.059-4.146-.28-4.989.669-1.776,2,1.424,2.292,2.592,2.209,2.362-.168,4.729-.245,7.1-.263,8.341-.064,16.729.325,25.063-.087A72.74,72.74,0,0,0,45.609,2.553c.759-.148,5.956-1.136,2.993-2.32-1.751-.7-5.326.379-7.166.594" transform="translate(2.511 50.38)" fill="#c7c7c7"/>
        <path id="Fill_284" data-name="Fill 284" d="M4.314,7.14h0a5.385,5.385,0,0,1-1.938-.353A3.973,3.973,0,0,1,.806,5.716C-.8,3.885.28,2.026,1.546.449A1.321,1.321,0,0,1,2.649,0a5.976,5.976,0,0,1,1.3.2c.23.054.448.1.63.128L4.964.38A2.939,2.939,0,0,1,7.311,1.455,3.881,3.881,0,0,1,8.257,4.52,2.745,2.745,0,0,1,6.908,6.466,5.1,5.1,0,0,1,4.314,7.14ZM4.633,2.9A1.42,1.42,0,0,0,3.6,3.179a.291.291,0,0,0-.077.235c.035.251.426.518,1.081.518a2.977,2.977,0,0,0,.774-.11,2.2,2.2,0,0,0-.464-.917C4.819,2.9,4.724,2.9,4.633,2.9Z" transform="translate(10.501 43.843)" fill="#c7c7c7"/>
        <path id="Fill_286" data-name="Fill 286" d="M0,1.376C0,3.5,9.155,2.584,10.784,2.582c1.364,0,9.614.751,9.022-1.431-.487-1.793-8.613-.9-10.343-.9C7.967.244,0-.783,0,1.376" transform="translate(25.264 45.863)" fill="#c7c7c7"/>
      </g>
      <g id="Checkmark_" data-name="Checkmark!" transform="translate(1435.735 664.989)" opacity="0.5">
        <path id="Fill_292" data-name="Fill 292" d="M13.507,22.317h0A9.939,9.939,0,0,1,10.7,21.9a11.641,11.641,0,0,1-2.762-1.238,13.694,13.694,0,0,1-4.8-5.007A11.647,11.647,0,0,1,1.64,8.923a1.6,1.6,0,0,1-.823.3.678.678,0,0,1-.61-.364A2.651,2.651,0,0,1,.276,6.664a16.652,16.652,0,0,1,1.8-2.484c.117-.142.237-.288.352-.43A10.028,10.028,0,0,1,5.852.933,9.952,9.952,0,0,1,10.223,0H10.4a18.405,18.405,0,0,1,7,1.366,12.852,12.852,0,0,1,3.079,1.809,9.3,9.3,0,0,1,3.457,6.012,11.283,11.283,0,0,1-.043,3.573,12,12,0,0,1-3.157,6.335,10.943,10.943,0,0,1-3.422,2.418A9.383,9.383,0,0,1,13.507,22.317ZM10.291,2.754a6.971,6.971,0,0,0-2.6.431A4.655,4.655,0,0,0,5.573,4.861,8.453,8.453,0,0,0,4.257,7.781a8.843,8.843,0,0,0-.172,3.2,9.7,9.7,0,0,0,1.023,3.1,12.77,12.77,0,0,0,2.045,2.871,11.088,11.088,0,0,0,2.758,2.152,7.52,7.52,0,0,0,3.163.946c.129.007.26.011.389.011a7.746,7.746,0,0,0,5.85-2.865,10.1,10.1,0,0,0,1.743-2.891,9.2,9.2,0,0,0,.648-3.249,6.817,6.817,0,0,0-2.923-5.831A14.4,14.4,0,0,0,12.389,2.9,17.57,17.57,0,0,0,10.291,2.754Z" transform="translate(0 1.589)" fill="#c7c7c7"/>
        <path id="Fill_294" data-name="Fill 294" d="M14.987.323A29.5,29.5,0,0,0,9.315,6.006C7.741,8.037,6.7,10.574,4.81,12.345,3.856,11.305,2.737,8.5.833,9.611c-1.58.925-.563,2.515.207,3.559,1.988,2.7,4.195,3.781,6.744,1.117,2.315-2.419,3.63-5.646,5.794-8.2A33.361,33.361,0,0,0,16.75,2.607c.685-1.123-.162-3.461-1.763-2.285" transform="translate(5.18 0)" fill="#c7c7c7"/>
      </g>
      <g id="Whiteboard_Stuff" data-name="Whiteboard Stuff" transform="translate(1493.126 489.536)" opacity="0.5">
        <path id="Wireframy_Stuff-2" data-name="Wireframy Stuff" d="M1.261,23.193C.2,22.713.224,22.18.658,21.767a7.109,7.109,0,0,1-.276-1.976A46.784,46.784,0,0,1,0,14.1C-.006,10.34,0,6.44,1.04,2.8a.923.923,0,0,1-.666-.838C.379.064,6.152.111,9.115.159c.619.01,1.114.02,1.41.012,2.1-.055,4.2-.062,6.307-.051.459,0,.973-.029,1.5-.06a11.749,11.749,0,0,1,3.148.089c2.694.626,2.523,5.243,2.579,7.476a117.214,117.214,0,0,1-.284,12.212c-.112,1.38-1.116,3.129-2.261,1.227-.639-1.06-.354-3.538-.355-4.71,0-4.165.65-8.457.025-12.6-.2-1.358-.159-1.45-1.541-1.422-1.1.023-2.193.059-3.289.082-2.233.047-4.466.078-6.7.159-.847.031-3.893.563-6.268.561,0,.019,0,.038,0,.057C3.428,4.8,2.64,6.748,2.533,8.438,2.275,12.5,2.583,16.66,2.2,20.7c-.012.123-.018.253-.025.385.071-.011.141-.019.208-.023,1.77-.112,3.564-.066,5.338-.107,1.131-.026,2.276-.025,3.426-.024a64.735,64.735,0,0,0,7.592-.287c.734-.1.991.846.661,1.334-.369.548-1.552.52-2.1.6a47.343,47.343,0,0,1-4.844.392c-1.7.075-3.4.132-5.1.179-.986.027-2.779.313-4.264.313A4.743,4.743,0,0,1,1.261,23.193Z" transform="translate(18.961 0)" fill="#c7c7c7"/>
        <path id="Wireframy_Stuff-3" data-name="Wireframy Stuff" d="M1.459,22.292a.712.712,0,0,1,.153-.446,3,3,0,0,1-.684-1.212,21.182,21.182,0,0,1-.67-5.777C.168,10.748.213,6.632.188,2.521A1.055,1.055,0,0,1,.5,1.049C1.758-.03,5.379.244,6.973.16,9.269.039,11.566.01,13.864,0c2.434-.013,4.871.031,7.3.106.9.027,7.177.185,4.373,1.706a2.929,2.929,0,0,1-.539.22,8.884,8.884,0,0,1,.112,1.749c-.119,2.187-.17,4.379-.267,6.567-.109,2.443-.211,4.886-.3,7.33-.045,1.292.4,4.3-.625,5.229-.689.629-1.16.5-1.477.076-1.757.51-5.165.418-7.327.325-.849-.036-1.505-.072-1.795-.072-.97,0-4.2.329-7.048.329C3.716,23.568,1.467,23.3,1.459,22.292ZM3.006,8.282c0,4.159.148,8.3.241,12.432q0,.2-.009.378a34.968,34.968,0,0,1,7.278-.265c.842.032,1.5.064,1.814.063,2.04-.008,4.08.02,6.119.1.231.009.584,0,1-.012a18.85,18.85,0,0,1,2.419.051c-.011-.111-.018-.213-.023-.3-.111-2.2.01-4.423.081-6.623.071-2.217.181-4.433.266-6.65A33.848,33.848,0,0,1,22.258,2.3c-1.482-.028-3.036-.207-4.035-.207-2.346,0-4.691-.027-7.037.02a68.122,68.122,0,0,0-7.61.414c-.138.018-.3.054-.487.1C3.472,4.221,3.007,6.8,3.006,8.282Z" transform="translate(51.501 0.417)" fill="#c7c7c7"/>
        <path id="Fill_135" data-name="Fill 135" d="M.866.233C-.643,1.115.171,4.64.693,5.859a10.085,10.085,0,0,0,4.483,4.614c3.8,2.1,9.282,1.544,12.157,5.191.03.038,1.024,1.022,1.25-.253.186-1.046-1.67-2.643-2.389-3.167-2.045-1.49-4.667-1.971-7.032-2.716C6.641,8.734,3.874,7.27,2.816,4.67,2.442,3.749,3.156-1.111.866.233" transform="translate(28.693 22.832)" fill="#e2e2e2"/>
        <path id="Fill_137" data-name="Fill 137" d="M16.713.048c-1.382.381-.468,2.283-.47,3.236a5.641,5.641,0,0,1-1.115,3.38c-1.857,2.4-5.493,2.765-8.219,3.454-1.979.5-6.716,1.575-6.9,4.252-.207,2.99,3.974-.649,4.327-.8,3.908-1.434,8.964-1.71,11.98-4.866a7.755,7.755,0,0,0,2.1-4.835c.066-1.01.077-4.309-1.7-3.823" transform="translate(47.331 24.712)" fill="#e2e2e2"/>
        <path id="Fill_139" data-name="Fill 139" d="M11.385,19.964h0a12.62,12.62,0,0,1-3.99-.68,13.006,13.006,0,0,1-3.66-1.925,9.977,9.977,0,0,1-2.681-3A7.911,7.911,0,0,1,0,10.457a8.051,8.051,0,0,1,.883-3.74,9.947,9.947,0,0,1,2.334-2.93A17.078,17.078,0,0,1,10.049.321,9.6,9.6,0,0,1,12.491,0a9.2,9.2,0,0,1,6.24,2.456,9.957,9.957,0,0,1,3.109,6.18,9.893,9.893,0,0,1-2.264,7.651,10.2,10.2,0,0,1-3.365,2.585,11.085,11.085,0,0,1-4.351,1.081C11.7,19.96,11.544,19.964,11.385,19.964ZM3.493,6.969a5.615,5.615,0,0,0-.187,5.877,8.314,8.314,0,0,0,3.563,3.167A11.278,11.278,0,0,0,11.812,17.2a8.1,8.1,0,0,0,3.412-.7,6.747,6.747,0,0,0,3.425-3.561,7.993,7.993,0,0,0,.435-4.764,6.776,6.776,0,0,0-2.028-3.64,6.21,6.21,0,0,0-4.2-1.559,1.433,1.433,0,0,1,.326,1,.7.7,0,0,1-.361.467.828.828,0,0,1-.416.131c-.344,0-.572-.319-.791-.627a1.423,1.423,0,0,0-.654-.615A.942.942,0,0,0,10.7,3.3a4.448,4.448,0,0,0-2.151,1,8.568,8.568,0,0,0-.967.987c-.893.995-2.116,2.357-3.1,2.357A1.148,1.148,0,0,1,3.493,6.969Z" transform="translate(35.48 40.821)" fill="#c7c7c7"/>
        <path id="Fill_141" data-name="Fill 141" d="M0,.962a1,1,0,0,0,2,0,1,1,0,0,0-2,0" transform="translate(43.067 48.465)" fill="#c7c7c7"/>
        <path id="Fill_143" data-name="Fill 143" d="M0,1.178a1.23,1.23,0,0,0,2.457,0A1.23,1.23,0,0,0,0,1.178" transform="translate(46.594 48.01)" fill="#c7c7c7"/>
        <path id="Fill_145" data-name="Fill 145" d="M.426.113C-1.584,1.3,4.163,3.644,4.389,1.244c.1-1.035-.9-.756-1.573-.832C2.177.339,1.032-.24.426.113" transform="translate(43.644 52.699)" fill="#c7c7c7"/>
        <path id="Fill_147" data-name="Fill 147" d="M0,1.012a55.972,55.972,0,0,0,.618,9.013c.109.565.184,2.616.631,3.036,1.1,1.033,1.117-.947,1.16-1.706.152-2.718-.133-5.521-.2-8.245A7.16,7.16,0,0,0,2.079.742C1.64-.159-.042-.426,0,1.012" transform="translate(43.197 60.186)" fill="#e2e2e2"/>
        <path id="Fill_149" data-name="Fill 149" d="M29.382.335C24.977,5.279,18.911,4.915,12.8,5.348c-3.229.229-6.494.7-9.092,2.787A11.036,11.036,0,0,0,.757,11.71c-.306.606-1.758,4.1.422,3.275.773-.294,1.534-2.608,2.034-3.292A9.716,9.716,0,0,1,6.847,8.614c2.82-1.349,6.188-1.326,9.246-1.5,3.2-.179,6.627-.346,9.566-1.736a14.485,14.485,0,0,0,3.791-2.52c.4-.376,1.25-1.014,1.313-1.588C30.836.616,30.2-.586,29.382.335" transform="translate(11.667 58.415)" fill="#e2e2e2"/>
        <path id="Fill_151" data-name="Fill 151" d="M15.47.3C11.332.443,7.2.61,3.067.872,2.22.925-.6.754.116,2.489c.576,1.391,4.02.471,5.159.4C9.581,2.637,13.9,2.548,18.2,2.161c.965-.087,5.328-.052,3.527-1.763C20.87-.416,16.654.264,15.47.3" transform="translate(3.341 73.621)" fill="#c7c7c7"/>
        <path id="Fill_153" data-name="Fill 153" d="M.829.395C-.475,2.108.124,6.271.223,8.331c.1,2-.292,5.645,2.313,5.954-.827-.109.628.05.865.063.529.028,1.06.038,1.59.043,1.223.013,2.448,0,3.671-.027,2.771-.055,5.549-.136,8.317-.289,1.163-.065,7.474-.011,7.724-1.219.319-1.544-5.732-.671-6.815-.621-2.638.121-5.28.146-7.92.181-1.309.017-2.619.03-3.927,0-.54-.01-2.68.211-3.009-.149-.28-.307-.061-3.128-.068-3.56C2.944,7.3,2.946,5.893,3,4.486c.034-.947.546-2.748.129-3.638A1.441,1.441,0,0,0,.829.395" transform="translate(0 75.527)" fill="#c7c7c7"/>
        <path id="Fill_155" data-name="Fill 155" d="M0,1.636a44.524,44.524,0,0,0,.839,9.4c.246,1.02.591,3.123,1.616,3.651a1.406,1.406,0,0,0,2.074-1.3c.089-1.34-.629-3.1-.776-4.473C3.582,7.3,3.482,5.7,3.424,4.087c-.044-1.212.324-3.029-.832-3.811A1.666,1.666,0,0,0,0,1.636" transform="translate(22.136 74.365)" fill="#c7c7c7"/>
        <path id="Fill_157" data-name="Fill 157" d="M.818.505C-.469,1.787.107,5.846.268,7.493.385,8.7,1.706,14.635,3.684,11.54c.875-1.369-.237-4.989-.229-6.585a20.439,20.439,0,0,0,.191-3.279C3.417.385,1.986-.66.818.505" transform="translate(29.553 74.731)" fill="#c7c7c7"/>
        <path id="Wireframy_Stuff-4" data-name="Wireframy Stuff" d="M1.826,15.278C.84,15.238-.213,14.915.037,13.641.259,12.51,1.4,12.5,2.324,12.407a79.759,79.759,0,0,1,8.4-.375c5.9.02,11.794-.01,17.693-.041a1.278,1.278,0,0,1,.658.253c-.308-.374-.16-.929-.217-1.47C28.7,9.315,28.6,7.88,28.324,6.421c-.221-1.167-.388-3.15-1.469-3.884-.921-.625-2.717-.6-4.131-.578-.4.007-.77.013-1.08.005a98.179,98.179,0,0,0-11.38.514c-1.721.157-3.464.276-5.166.585C4.15,3.236,1.37,4.627.613,3.771-1.21,1.709,6.8.863,7.887.751c3.865-.4,7.736-.7,11.622-.735,2.625-.02,7.117-.244,9.047,1.909,1.159,1.293,1.566,3.424,2.018,5.037.347,1.239,1.289,3.474.62,4.754-.3.58-.79,1.073-1.531.868a1.391,1.391,0,0,1-.414-.181,1.074,1.074,0,0,1,.225,1.171c-.442,1.027-2.071.805-2.955.879-2.951.246-5.916.41-8.878.436-1.41.012-2.819,0-4.228-.011-1.452-.012-2.9-.024-4.357-.01-2.168.021-4.417.423-6.582.423Q2.148,15.291,1.826,15.278Z" transform="translate(31.396 73.427)" fill="#c7c7c7"/>
        <path id="Line" d="M28.867,15.231h0c-.714,0-1.448-1.214-1.935-2.017a7.063,7.063,0,0,0-.412-.638,6.714,6.714,0,0,0-3.3-2.437,38.855,38.855,0,0,0-7.97-1.494c-.914-.107-1.858-.217-2.763-.346-.467-.067-.943-.127-1.447-.191C8.612,7.8,5.863,7.453,3.79,6.281,2.882,5.767.015,3.14,0,1.387A1.27,1.27,0,0,1,.686.225,1.436,1.436,0,0,1,1.4,0c.693,0,1.079.755,1.419,1.42.109.213.211.414.319.58A5.664,5.664,0,0,0,6.611,4.512a52.293,52.293,0,0,0,6.726,1.322c.58.088,1.178.178,1.764.272.48.077.978.152,1.46.225a30.747,30.747,0,0,1,7.805,1.875,14.2,14.2,0,0,1,3,2.478c.83.855,2.233,2.455,2.294,3.565a.9.9,0,0,1-.463.888A.653.653,0,0,1,28.867,15.231Z" transform="translate(53.563 56.489)" fill="#e2e2e2"/>
        <path id="Wireframy_Stuff-5" data-name="Wireframy Stuff" d="M3.2,15.738c-1.009-.1-2.093-.454-1.843-1.726A16.174,16.174,0,0,1,.267,9.57,47.165,47.165,0,0,1,.014,2.981,1.443,1.443,0,0,1,2.329,1.868,17.36,17.36,0,0,1,6.67,1.177c1.8-.182,3.618-.25,5.424-.358,4.217-.252,8.43-.707,12.656-.8,1.264-.026,2.957-.141,3.969.793,1.151,1.063,1.38,3.7,1.726,5.119a34.65,34.65,0,0,1,.979,4.694,8.936,8.936,0,0,1,.091,1.58.989.989,0,0,1,.788,1.139c-.1,1.035-1.532,1.176-2.371,1.34a53.1,53.1,0,0,1-8.6.5c-4.585.129-9.416.732-14.1.732C5.871,15.917,4.523,15.866,3.2,15.738Zm.589-2.943c.13,0,.257,0,.38,0q4.464-.078,8.922-.257c3.033-.116,6.065-.246,9.1-.281,1.057-.012,2.128.021,3.2.054,1.377.042,2.759.085,4.123.032-.522-1.367-.443-3.52-.722-4.936a22.484,22.484,0,0,0-.947-4.393C27.208,1.529,26.655,1.873,25,1.985c-1.7.115-3.405.278-5.107.418-3.741.308-7.485.5-11.229.763-1.942.135-3.8.689-5.7.907-.029.678-.124,1.362-.113,1.856.032,1.459.176,2.908.3,4.36.051.591.3,1.611.332,2.5h.3Z" transform="translate(65.489 72.514)" fill="#c7c7c7"/>
      </g>
    </g>
    <g id="Humaaan" transform="translate(1169.167 757)">
      <g id="Head_Front" data-name="Head/Front" transform="translate(97.822)">
        <g id="Head" transform="translate(4.953 8.61)">
          <path id="Head-2" data-name="Head" d="M0,90.436,10.231,42.728C4.525,36.028.663,27.816,1.308,18.615,3.168-7.9,40.056-2.065,47.23,11.315s6.323,47.323-2.95,49.715c-3.7.954-11.577-1.382-19.6-6.218l5.033,35.624Z" transform="translate(0 0)" fill="#e3b895"/>
        </g>
        <path id="Hair" d="M12.9,57.356C9.17,40.754-1.456,29.437.167,22.017a12.626,12.626,0,0,1,8.651-9.229S12.453-1.923,32.263.273s31.9,10.428,26.68,28.54c-4.8,0-10.594-1.737-18.607,1.239-3.814,1.416-5.455,8.784-5.455,8.784H31.261s-5.271-8.743-10.4-6.426-2.329,11.258-2.329,11.258L16.752,57.356Z" transform="translate(0 -0.05)"/>
      </g>
      <g id="Bottom_Skinny_Jeans_1" data-name="Bottom/Skinny Jeans 1" transform="translate(0 202.244)">
        <g id="Seat" transform="translate(0 51.657)">
          <path id="Seat-2" data-name="Seat" d="M166.022,153.617H16a16,16,0,0,1-16-16V16A16,16,0,0,1,16,0H166.022a16,16,0,0,1,16,16V137.616a16,16,0,0,1-16,16ZM38.671,34.688a4,4,0,0,0-4,4v76.242a4,4,0,0,0,4,4h104.68a4,4,0,0,0,4-4V38.687a4,4,0,0,0-4-4Z" fill="#c5cfd6"/>
        </g>
        <path id="LegLower" d="M81.921,144.944Q45.3,100.205,32.366,78.609C17.6,53.957,5.514,32.022,1.7,23.642-7.394,3.661,22.638-5.7,29.434,3.625Q44.865,24.784,95.345,136.79Z" transform="translate(222.884 54.135)" fill="#b28b67"/>
        <path id="LegLower-2" data-name="LegLower" d="M46.753,142.467,1.319,28.043C-8.4,7.185,38.529-6.526,45.671,3.181c16.214,22.038,54.75,108.976,59.58,115.542Z" transform="translate(208.026 47.94)" fill="#1a1a1a"/>
        <g id="Lower_Leg" data-name="Lower Leg" transform="translate(213.597 65.284) rotate(39)">
          <path id="LegLower-3" data-name="LegLower" d="M2.265,129.642C1.015,114.034-1.314,60,1,35c.664-7.186,1.364-14.134,2.07-20.652C5.164-5.027,41.083-4.406,38.235,14,31.142,59.834,18.654,124.069,17.759,129.62,16.505,137.4,3.051,139.45,2.265,129.642Z" transform="translate(0 0)" fill="#b28b67"/>
        </g>
        <g id="Right_Shoe" data-name="Right Shoe" transform="translate(137.8 154.074) rotate(30)">
          <path id="shoe" d="M4.474,5.033A2,2,0,0,0,1.908,6.381L0,13.106A64.242,64.242,0,0,0,.9,21H57.3s2.2-7.268-2.538-7.848-7.87-1.047-7.87-1.047L20.68.419a1,1,0,0,0-1.332.532L17.663,5.039s-4.385,2.046-7.127,2.046Z" transform="translate(0 -0.332)" fill="#e4e4e4"/>
        </g>
        <g id="Right_Shoe-2" data-name="Right Shoe" transform="translate(292.226 187.102)">
          <path id="shoe-2" data-name="shoe" d="M5.539,6.156a2.476,2.476,0,0,0-3.176,1.67L0,16.157a79.622,79.622,0,0,0,1.116,9.78H70.955s2.722-9-3.143-9.722-9.745-1.3-9.745-1.3L25.607.44a1.238,1.238,0,0,0-1.649.659L21.871,6.163S16.442,8.7,13.047,8.7Z" transform="translate(0 -0.332)" fill="#e4e4e4"/>
        </g>
        <path id="Leg_and_Butt" data-name="Leg and Butt" d="M118.5,81.7S61.855,72.466,42.617,69.073C6.06,62.624-4.6,42.942,1.7,0H69.058C82.429,3.863,180.79,47.781,180.79,47.781c11.8,5.86,9.6,23.136,7.444,28.828-.132.348-59.668,102.292-59.668,102.292l-55.1-35.118L118.6,85.837S120.39,82.234,118.5,81.7Z" transform="translate(74.497)" fill="#383838"/>
      </g>
      <g id="Body_Long_Sleeve_1" data-name="Body/Long Sleeve 1" transform="translate(3.916 67.439)">
        <path id="Skin" d="M1.519,107.51c-1.382-.852-2.9-4.063.761-6.572,9.112-6.249,22.241-17.188,24.015-20.789C29.923,72.784,42.28,1,42.28,1l25.876.1S44.19,78.506,42.28,83.243c-2.865,7.1,3.2,17.924,5.791,23.739-4.087,1.83-5.986-.506-8.064-2.842-2.215-2.49-4.637-4.979-10.133-2.421-7.034,3.274-12.849,8.471-19.781,8.47A16.078,16.078,0,0,1,1.519,107.51Zm222.8-69.688L185.2,21.594,193.932,0l39.5,29.018q16.069,4.338,26.85,10.8c1.7,1.548,3.75,4.682-3.291,4.141s-14.472-.795-15.444,1.608,3.29,5.276,1.325,8.518a.933.933,0,0,1-.857.462Q238.543,54.542,224.314,37.822Z" transform="translate(0 118.588)" fill="#e3b895"/>
        <path id="Coat_Back" data-name="Coat Back" d="M0,2.764,10.507,0c42.568,30.742,64.573,95.03,116.128,125.6l-10.409,15.5C31.157,138.036,3.286,59.709,0,2.764Z" transform="matrix(0.996, 0.087, -0.087, 0.996, 116.057, 8.204)" fill="#e87613"/>
        <path id="Shirt" d="M0,141.228H94.74c4.329,0,3.513-6.254,2.888-9.41C90.405,95.4,62.211,56.134,62.211,4.287L34.884,0C12.28,36.37,4.464,81.15,0,141.228Z" transform="translate(69.14 4.352)" fill="#dde3e9"/>
        <path id="Coat_Front" data-name="Coat Front" d="M.126,197.611C-2.06,126.9,24.7,72.484,47.095,39.675c-4.973-.355-9.461-2.437-12.3-7.559C24.809,14.085,28.415,4.157,39.09.894s20.193,3.459,37.2,3.459a13.249,13.249,0,0,1,2.028.145l9.069.518S124.2,129.853,107.7,171.6H32.811a237.778,237.778,0,0,1-12.367,26.015Z" transform="translate(25.676)" fill="#ff9b21"/>
        <path id="Shade" d="M27.988,45.275H0C5.133,32.941,10.8,17.709,16.829,0c2.513,21.824,6.266,37.056,11.158,45.273Z" transform="translate(58.488 126.321)" fill="rgba(0,0,0,0.1)"/>
      </g>
    </g>
    <g id="humaaan-4" transform="translate(1502.097 677.116)">
      <g id="Head_Front-2" data-name="Head/Front" transform="translate(100.769 0)">
        <g id="Head-3" data-name="Head" transform="translate(7.539 18.425)">
          <path id="Head-4" data-name="Head" d="M45.489,79.085,36.54,37.365c4.991-5.86,8.369-13.041,7.805-21.087C42.718-6.906,10.453-1.806,4.177,9.9s-5.531,41.383,2.58,43.474c3.235.834,10.126-1.209,17.14-5.437L19.5,79.09Z" transform="translate(0 -0.001)" fill="#e3ba95"/>
        </g>
        <path id="hair-2" data-name="hair" d="M.207,12.091A5.624,5.624,0,0,1,4.144,8.1a5.185,5.185,0,0,1,1.449-.144c.175.007.224.057.305-.065a1.6,1.6,0,0,0,.087-.418A7.888,7.888,0,0,1,6.279,6.5,7.968,7.968,0,0,1,8.2,3.64,9.67,9.67,0,0,1,14.009.888a8.467,8.467,0,0,1,3.492.476,13.825,13.825,0,0,1,1.7.725c.165.083.7.489.868.463s.552-.485.7-.6A10.264,10.264,0,0,1,27.18,0c2.59.02,5.085.149,7.249,1.729a14.493,14.493,0,0,1,1.3,1.086c.218.2.43.414.632.633q.183.2.354.407c.194.236.163.313.434.149a5.385,5.385,0,0,1,3.459-.778,7.738,7.738,0,0,1,2.088.59c.227.1.751.484.993.488s.757-.355,1-.446a8.23,8.23,0,0,1,4.18-.388A10.773,10.773,0,0,1,52.96,5.079a5.5,5.5,0,0,1,1.516,1.379c.178.246.339.507.541.735.118.134.353.271.416.44a8.983,8.983,0,0,1,1.734-.766,4.27,4.27,0,0,1,2.44.093,9.7,9.7,0,0,1,3.847,2.734,10.926,10.926,0,0,1,1.424,1.913q.291.493.533,1.012a3.765,3.765,0,0,0,.234.527c.133.194.223.2.465.283a7.506,7.506,0,0,1,3.2,2.141,7.371,7.371,0,0,1,1.655,3.51,1.788,1.788,0,0,0,.064.432c.061.057.308.032.4.043a8.433,8.433,0,0,1,.961.169,7.928,7.928,0,0,1,1.689.607A8.827,8.827,0,0,1,78.406,25.5a10.485,10.485,0,0,1-.164,7.177,7.012,7.012,0,0,1-.533,1.051c-.127.205-.169.206-.086.421.092.239.261.472.37.706a10.133,10.133,0,0,1,.765,2.4A11.256,11.256,0,0,1,78.89,41.4a5.989,5.989,0,0,1-.64,1.82,5.222,5.222,0,0,1-.561.814q-.165.2-.35.377a2.336,2.336,0,0,0-.221.205c-.145.187-.176.033-.1.308a12.282,12.282,0,0,0,.488,1.135c.15.385.285.774.409,1.168a17.237,17.237,0,0,1,.6,2.435,7.646,7.646,0,0,1-.539,4.729,4.73,4.73,0,0,1-1.347,1.592,4.965,4.965,0,0,1-.879.534c-.159.076-.363.108-.436.262s.038.495.064.68a11.342,11.342,0,0,1-.133,4.885,6.749,6.749,0,0,1-2.675,3.591,8.319,8.319,0,0,1-8.318.236A8.733,8.733,0,0,1,62.4,64.895c-1.424,1.918-4.356,1.857-6.438,1.311a9.248,9.248,0,0,1-5.874-4.855c-1.64,2-5.081,1.349-6.218-.817a5.183,5.183,0,0,1-.525-1.706c-.043-.311-.015-.625-.048-.933a4.821,4.821,0,0,0-.454-1.155,6.377,6.377,0,0,1-.484-2.3,11.692,11.692,0,0,1,.088-1.236,4.249,4.249,0,0,0-.126-1.086,4.964,4.964,0,0,0,2.1-.263,4.151,4.151,0,0,0,1.625-1.143,9.487,9.487,0,0,0,2.045-3.824c.924-3.028.545-6.661-2.5-8.323-1.419-.774-5.668-.772-7.358-.389-1.777.4-3.79,4.323-3.89,4.692-.061.228-.03.51-.24.662-.46.334-1.22-.246-1.559-.532a6.151,6.151,0,0,1-1.366-1.817,22.488,22.488,0,0,1-1.874-4.6c-.346-1.225-.568-2.488-1.02-3.682a5.632,5.632,0,0,0-2.264-2.922A19.936,19.936,0,0,0,22.129,28.4a9.669,9.669,0,0,1-3.6-1.98,4.981,4.981,0,0,1-.618-.689c-.142-.2-.281-.576-.5-.7-.335-.2-.824.312-1.114.5a12.88,12.88,0,0,0-3.586,3.56,22.153,22.153,0,0,0-2.38,4.239c-.473,1.14-.769,2.6-1.6,3.535-.372.417-3.134.67-4.029.305a5.091,5.091,0,0,1-2.2-1.9,2.956,2.956,0,0,1-.25-1.937c.077-.391.235-.756.321-1.139a3.553,3.553,0,0,1,.3-.922,2.274,2.274,0,0,1,1.418-1.13A6.659,6.659,0,0,1,2.76,28.065a8.916,8.916,0,0,1-.793-2.706,3.286,3.286,0,0,1,.439-2.108,5.55,5.55,0,0,1,1.8-1.494A11.707,11.707,0,0,1,1.7,19.028,8.521,8.521,0,0,1,.207,12.091Z" transform="translate(-0.007 0.007)" fill="#2c2c2c"/>
      </g>
      <g id="Bottom_Skinny_Jeans_1-2" data-name="Bottom/Skinny Jeans 1" transform="translate(7.172 187.428)">
        <path id="Leg" d="M111.178,0,58.253,137.832l-37.1,101.59H0L51,0Z" transform="translate(44.026)" fill="#ebb000"/>
        <path id="Leg-2" data-name="Leg" d="M71.42,0c.575,47.293.159,110.965,1.5,113.913s83.385,67.178,83.385,67.178l-10.9,18.247S48,137.515,43.019,129.278,13.017,45.244,0,0Z" transform="translate(96.865)" fill="#fabc05"/>
        <g id="Left_Shoe" data-name="Left Shoe" transform="matrix(-0.643, 0.766, -0.766, -0.643, 270.731, 192.244)">
          <path id="Shoe-3" data-name="Shoe" d="M0,0,1,21H22C36.936,10.5,61,4,61,4V0H23L10,2V0Z" transform="translate(0 0)" fill="#191847"/>
        </g>
        <g id="Right_Shoe-3" data-name="Right Shoe" transform="translate(0 234.588)">
          <path id="Shoe-4" data-name="Shoe" d="M67.145,24.334,66.045,0H42.929C26.488,12.167,0,19.7,0,19.7v4.635H41.828l14.31-2.318v2.318Z" fill="#191847"/>
        </g>
      </g>
      <g id="Body_Long_Sleeve_1-2" data-name="Body/Long Sleeve 1" transform="translate(0 73.675)">
        <path id="Skin-2" data-name="Skin" d="M256.269,138.664c1.209-.746,2.532-3.553-.666-5.747-7.97-5.466-19.454-15.032-21.005-18.18C231.424,108.3,203.653,25.4,203.653,25.4l-23.717.09s39.01,87.806,40.68,91.948c2.506,6.212-2.8,15.673-5.065,20.758,3.575,1.6,5.236-.443,7.053-2.484,1.938-2.178,4.056-4.355,8.864-2.117,6.152,2.863,11.239,7.407,17.3,7.407A14.066,14.066,0,0,0,256.269,138.664ZM69.318,15.5,26.555,9.665A93.23,93.23,0,0,0,2.945,0C.923-.059-2.293.677,2.5,4.672s9.653,8.415,8.8,10.548-5.31,1.339-6.048,4.619q-.738,3.279,21.7,1.066l34.7,13.76Z" transform="translate(0 55.251)" fill="#e3b895"/>
        <path id="Clothes_Back" data-name="Clothes Back" d="M0,106.366l18.6.386c8.161-40.82,35.25-64.686,90.027-51.012L120.655,3.3C69.323-7.95,21.975,8.858,7.713,64.334,4.022,78.7.789,93.7,0,106.366Z" transform="translate(147.945 111.379) rotate(175.008)" fill="#d8d8d8"/>
        <path id="Clothes" d="M134.951,159.253Q115.612,56.331,53.315,0H51.472l-.015.017L23.322,6.463c0,48.4-15.415,79.286-23.322,114.873H75.985c1.07,12.3,1.728,24.937,2.07,37.917Z" transform="translate(96.394)" fill="#e4e4e4"/>
        <path id="Shade-2" data-name="Shade" d="M0,70.852H15.444C13.124,44.2,9.034,21.028,2.944,0c.834,14.036,1.116,26.722.837,37.706C3.426,51.688,2.155,62.839.005,70.851Z" transform="translate(156.936 50.484)" fill="rgba(0,0,0,0.1)"/>
      </g>
    </g>
  </g>
</svg>
