<svg xmlns="http://www.w3.org/2000/svg" width="300" viewBox="0 0 282.975 425.425">
  <g id="humaaan-11" transform="translate(-12.848 -0.407)">
    <g id="Head_Front" data-name="Head/Front" transform="translate(206.574 103.21) rotate(-164.991)">
      <g id="Head" transform="translate(39.599 0)">
        <path id="Head-2" data-name="Head" d="M0,0,8.61,40.171c-4.8,5.642-8.052,12.557-7.51,20.3C2.665,82.8,33.7,77.887,39.747,66.621s5.322-39.846-2.482-41.86c-3.112-.8-9.743,1.164-16.491,5.236L25.009,0Z" transform="translate(0)" fill="#e0bfac"/>
      </g>
      <path id="hair" d="M81.71,31.833A28.644,28.644,0,0,1,80.367,36.3a20.9,20.9,0,0,1-2.632,4.9,37.025,37.025,0,0,1-6.959,7.559c-4.78,3.9-10.861,6.152-16.842,5.421a17.277,17.277,0,0,1-8.446-3.441C43.235,49,41.067,46.45,38.147,46.264c-3.176-.2-6.087,2.606-8.634,4.34a23.19,23.19,0,0,1-9.283,3.933A15.428,15.428,0,0,1,5.45,48.944C1.326,44.03-1.672,36.823,1.036,30.312a8.355,8.355,0,0,1,2.08-3.076c.852-.775,2.154-1.6,2.5-2.839.367-1.317-.729-3.016-1.155-4.2a12.387,12.387,0,0,1-.931-5.341A13.774,13.774,0,0,1,7.746,6.916a14.007,14.007,0,0,1,7.27-3.736,20.38,20.38,0,0,1,5.469-.422,17,17,0,0,1,2.589.52,2.34,2.34,0,0,0,2.059-.5A16.885,16.885,0,0,1,36.025.077C39.312.351,43.1,1.148,45.78,3.4,48.758,5.9,48.7,9.357,48,13.046c.742-.368,2.8-.6,1.568.871a6.642,6.642,0,0,1-2.028,1.16,7.38,7.38,0,0,0-2.032,1.552c-2.277,2.622.023,7.958,2.884,8.837,4.252,1.306,5.2-4.714,8.24-6.271,1.745-.9,3.571.328,4.879,1.578a19.555,19.555,0,0,1,3.976,6.148c.849,1.858,1.639,3.742,2.5,5.592.4.863,1.8,3.3,1.1,4.281,3.045.608,6.438-.659,9.061-2.32a6.2,6.2,0,0,0,2.489-2.656c.124-.26.394-1.032.732-1.064.63-.059.4.712.333,1.079" transform="translate(0 29.728)" fill="#2e1919"/>
    </g>
    <g id="Bottom_Skinny_Jeans_1" data-name="Bottom/Skinny Jeans 1" transform="translate(17.058 172.254)">
      <path id="Skirt_Shadow" data-name="Skirt Shadow" d="M115.8,16.431s-37.679,10.49-65.017,10.49S0,10.767,0,10.767,36.871,0,60.73,0,115.8,16.431,115.8,16.431Z" transform="translate(61.582 90.282)" fill="#315da7"/>
      <path id="Leg" d="M49.744,122.8a5.886,5.886,0,0,0,.609-1.184C53.711,112.779,107.492,17.432,112.85,0H52.3C48.226,13.254,29.891,96.428,27.31,113.022,19.168,139.2,2.41,223.972.266,229.845c-2.251,6.178,10.415,12.614,13.791,5.019,5.371-12.085,18.167-45.526,23.865-65.944C43.264,149.778,47.613,132.557,49.744,122.8Z" transform="translate(40.874 4.482)" fill="#d0b3a0"/>
      <path id="Leg-2" data-name="Leg" d="M36.692,134.442c24.588,6.186,114.525,17.368,120.7,19.122,6.346,1.8,11.917-11.221,4.065-14.043-12.487-4.49-46.894-14.863-67.755-19.1-16.779-3.4-32.091-6.183-42.371-7.81C52.2,83.873,56.183,14.9,53.574,0H0C2.5,14.286,23.652,118.521,27.583,128.955c1.248,3.725,4.97,5.371,9.108,5.487Z" transform="translate(103.466 4.482)" fill="#e0bfac"/>
      <g id="Left_Shoe" data-name="Left Shoe" transform="translate(278.765 141.31) rotate(100.018)">
        <path id="shoe" d="M4.475,15.971a2,2,0,0,1-2.567-1.348L0,7.9A64.257,64.257,0,0,1,.9,0H57.314s2.2,7.27-2.539,7.85S46.9,8.9,46.9,8.9L20.685,20.586a1,1,0,0,1-1.332-.532l-1.685-4.089s-4.386-2.047-7.129-2.047Z" transform="translate(0 0)" fill="#e4e4e4"/>
      </g>
      <g id="Right_Shoe" data-name="Right Shoe" transform="translate(0 232.037)">
        <path id="shoe-2" data-name="shoe" d="M55.849,5.231a2.1,2.1,0,0,1,2.684,1.406l2,7.008a66.659,66.659,0,0,1-.944,8.228H.533s-2.3-7.575,2.658-8.179S11.433,12.6,11.433,12.6L38.879.423a1.049,1.049,0,0,1,1.394.554l1.76,4.261S46.633,7.37,49.5,7.37Z" transform="translate(0 -0.333)" fill="#e4e4e4"/>
      </g>
      <path id="Skirt" d="M95.287,5.02s-35.413-10.085-67.015,0C20.942,38.307,3.132,51.52,0,102.552c35.6,17.607,79.58-12.557,116.229,4.613C126.7,83.147,112.041,25.306,95.287,5.02Z" transform="translate(61.579 -0.538)" fill="#4385f3"/>
    </g>
    <g id="Body_Long_Sleeve_1" data-name="Body/Long Sleeve 1" transform="translate(183.953 227.547) rotate(-169.982)">
      <path id="Skin" d="M56.656,15.959,72.546,24.7s3.344,12.738,8,12.818c1.2.559.742-1.887.57-4.333-.17-2.41-.062-4.818,2.179-4.358,4.515.93,15.537,9.136,17.436,7.47,2.81-2.466.3-10.034-2.647-13.8C92.562,15.46,87.995,13.053,76.705,9.9,67.852,7.431,57.56,0,57.56,0ZM0,32.692,36.174,52.525A89.522,89.522,0,0,0,53.955,69.186c1.784.745,4.9,1.2,1.986-3.987s-5.753-10.767-4.267-12.367c.653-.7,1.734-.664,2.893-.626,1.477.047,3.08.1,4.074-1.393q1.773-2.652-19-8.383L13.358,18.34Z" transform="translate(84.85 73.858)" fill="#e0bfac"/>
      <path id="Sleeve" d="M5.74,25.41a88.822,88.822,0,0,1,49.241,6.648L59.5,15.339C45.286,5.083,26.428-2.207,11.389.61-.453,2.828-4.253,18.2,5.74,25.41Z" transform="translate(65.539 84.975) rotate(9)" fill="#127b45"/>
      <path id="Clothes" d="M34.831,2.455C22.106,4.11,10.265,5.765,3.386,4.409-8.409,42.755,14.4,58.338,14.415,82.873c.021,26.869,21.573,68.226,24.744,68.226H68.077c1.594-20.505,9.618-43.111,16.2-65.443C105.3,80.879,151.963,97.5,151.963,97.5s11.781-24.4,10.892-34.786c-27.164-14.2-50.443-20.536-69.622-20.953.609-11.392-.776-22.233-5.429-32.137C84.321,2.216,74.689,0,62.934,0,54.19,0,44.266,1.228,34.831,2.455Z" transform="translate(0 0)" fill="#179d58"/>
    </g>
  </g>
</svg>
