<svg xmlns="http://www.w3.org/2000/svg" width="50" height="50" viewBox="0 0 50 50">
  <g id="flight_black_24dp" transform="translate(50) rotate(90)">
    <path id="Path_6" data-name="Path 6" d="M0,0H50V50H0Z" fill="none"/>
    <path id="Path_7" data-name="Path 7" d="M41.583,28.208a2.241,2.241,0,0,0-1.021-1.854L24.917,16.583V5.125a3.125,3.125,0,1,0-6.25,0V16.583L3.021,26.354A2.214,2.214,0,0,0,2,28.208a2.186,2.186,0,0,0,2.833,2.083l13.833-4.333V37.417l-3.75,2.813a1,1,0,0,0-.417.833v1.229a1.048,1.048,0,0,0,1.333,1l5.958-1.708,5.958,1.708a1.048,1.048,0,0,0,1.333-1V41.063a1,1,0,0,0-.417-.833l-3.75-2.813V25.958L38.75,30.292A2.186,2.186,0,0,0,41.583,28.208Z" transform="translate(2.167 2.167)" fill="#4385f3"/>
  </g>
</svg>
