<svg xmlns="http://www.w3.org/2000/svg" height="40.705" width="165" viewBox="0 0 197.611 50">
  <g id="Slack_Technologies_Logo" transform="translate(-0.7 -0.6)">
    <path id="Path_12" data-name="Path 12" d="M159.5,41.115l2.468-5.732a16.454,16.454,0,0,0,9.713,3.025c2.588,0,4.22-1,4.22-2.508-.04-4.22-15.486-.916-15.605-11.5-.04-5.374,4.737-9.514,11.5-9.514,4.021,0,8.041,1,10.908,3.264L180.4,24a17.424,17.424,0,0,0-9-2.866c-2.11,0-3.5,1-3.5,2.269.04,4.14,15.605,1.871,15.764,11.982,0,5.494-4.658,9.355-11.346,9.355A21.793,21.793,0,0,1,159.5,41.115m94.705-7.8a7.126,7.126,0,1,1,0-7.006l6.807-3.782a14.928,14.928,0,1,0,0,14.57l-6.807-3.782ZM187.088,2.5h8.519V44.18h-8.519Zm77.269,0V44.18h8.519V31.68l10.111,12.5h10.908L281.037,29.331l11.9-13.854H282.51l-9.634,11.5V2.5ZM220.925,33.392a7.856,7.856,0,0,1-6.648,3.543,7.126,7.126,0,0,1,0-14.252,7.86,7.86,0,0,1,6.648,3.662Zm0-17.914v3.384c-1.393-2.349-4.857-3.981-8.479-3.981-7.484,0-13.376,6.608-13.376,14.889s5.892,14.968,13.376,14.968c3.623,0,7.086-1.632,8.479-3.981V44.14h8.519V15.478Z" transform="translate(-95.583 -1.144)"/>
    <path id="Path_13" data-name="Path 13" d="M11.31,72.055A5.255,5.255,0,1,1,6.055,66.8H11.31Zm2.627,0a5.255,5.255,0,0,1,10.51,0V85.192a5.255,5.255,0,0,1-10.51,0Z" transform="translate(-0.06 -39.846)" fill="#e01e5a"/>
    <path id="Path_14" data-name="Path 14" d="M19.132,11.11a5.255,5.255,0,1,1,5.255-5.255V11.11Zm0,2.667a5.255,5.255,0,0,1,0,10.51H5.955a5.255,5.255,0,0,1,0-10.51Z" fill="#36c5f0"/>
    <path id="Path_15" data-name="Path 15" d="M80.037,19.032a5.255,5.255,0,1,1,5.255,5.255H80.037Zm-2.627,0a5.255,5.255,0,1,1-10.51,0V5.855a5.255,5.255,0,1,1,10.51,0V19.032Z" transform="translate(-39.847)" fill="#2eb67d"/>
    <path id="Path_16" data-name="Path 16" d="M72.155,79.937A5.255,5.255,0,1,1,66.9,85.192V79.937Zm0-2.627a5.255,5.255,0,0,1,0-10.51H85.332a5.255,5.255,0,0,1,0,10.51Z" transform="translate(-39.846 -39.847)" fill="#ecb22e"/>
  </g>
</svg>
