<svg xmlns="http://www.w3.org/2000/svg"  height="40.705" width="165" viewBox="0 0 210.271 38.705">
  <g id="Group_36" data-name="Group 36" transform="translate(-314.949 -522.647)">
    <g id="discord-icon-svgrepo-com" transform="translate(314.949 522.647)">
      <path id="Path_17" data-name="Path 17" d="M42.355,3.242A40.723,40.723,0,0,0,32.039,0a30.246,30.246,0,0,0-1.321,2.743,37.876,37.876,0,0,0-11.432,0A29.324,29.324,0,0,0,17.949,0,40.588,40.588,0,0,0,7.625,3.25,43.262,43.262,0,0,0,.212,32.218,41.241,41.241,0,0,0,12.864,38.7a31.464,31.464,0,0,0,2.71-4.463,26.643,26.643,0,0,1-4.267-2.077c.358-.265.708-.542,1.046-.827a29.155,29.155,0,0,0,25.295,0c.342.285.692.562,1.046.827a26.577,26.577,0,0,1-4.275,2.081,31.326,31.326,0,0,0,2.71,4.462,41.159,41.159,0,0,0,12.659-6.487A43.219,43.219,0,0,0,42.355,3.242ZM16.694,26.386c-2.47,0-4.5-2.306-4.5-5.113s1.982-5.117,4.5-5.117a4.8,4.8,0,0,1,4.5,5.117C21.193,24.08,19.207,26.386,16.694,26.386Zm16.612,0c-2.47,0-4.5-2.306-4.5-5.113s1.982-5.117,4.5-5.117a4.8,4.8,0,0,1,4.5,5.117C37.8,24.08,35.819,26.386,33.306,26.386Z" transform="translate(0)" fill="#5865f2"/>
    </g>
    <path id="Path_19" data-name="Path 19" d="M2.88-28.64h9.68a17.029,17.029,0,0,1,6.12,1.04,13.206,13.206,0,0,1,4.64,2.94,12.778,12.778,0,0,1,2.94,4.54,15.965,15.965,0,0,1,1.02,5.8,16.081,16.081,0,0,1-1.02,5.84,12.581,12.581,0,0,1-2.94,4.52,13.353,13.353,0,0,1-4.64,2.92A17.029,17.029,0,0,1,12.56,0H2.88ZM12.32-5.12a12.053,12.053,0,0,0,4.16-.66,8.126,8.126,0,0,0,3-1.86,7.626,7.626,0,0,0,1.8-2.9,11.3,11.3,0,0,0,.6-3.78,11.3,11.3,0,0,0-.6-3.78,7.626,7.626,0,0,0-1.8-2.9,8.126,8.126,0,0,0-3-1.86,12.053,12.053,0,0,0-4.16-.66H8.28v18.4Zm21.6-17.32a3.328,3.328,0,0,1-1.3-.26,3.333,3.333,0,0,1-1.08-.72,3.394,3.394,0,0,1-.72-1.06,3.285,3.285,0,0,1-.26-1.32,3.285,3.285,0,0,1,.26-1.32,3.394,3.394,0,0,1,.72-1.06,3.333,3.333,0,0,1,1.08-.72,3.328,3.328,0,0,1,1.3-.26,3.307,3.307,0,0,1,2.4.98,3.208,3.208,0,0,1,1,2.38,3.208,3.208,0,0,1-1,2.38A3.307,3.307,0,0,1,33.92-22.44ZM31.32,0V-19.6h5.24V0Zm17.8.64A11.212,11.212,0,0,1,45.7.16,9.433,9.433,0,0,1,43.1-1.1a8.241,8.241,0,0,1-1.86-1.8,8.669,8.669,0,0,1-1.16-2.06l4.68-2A5.059,5.059,0,0,0,46.58-4.7a4.566,4.566,0,0,0,2.54.74,4.309,4.309,0,0,0,2.28-.52,1.477,1.477,0,0,0,.84-1.24,1.531,1.531,0,0,0-.7-1.3,7.243,7.243,0,0,0-2.42-.9l-2.76-.6a9.664,9.664,0,0,1-1.9-.64,7.433,7.433,0,0,1-1.78-1.12,5.677,5.677,0,0,1-1.32-1.64,4.632,4.632,0,0,1-.52-2.24,5.2,5.2,0,0,1,.62-2.56,5.777,5.777,0,0,1,1.7-1.9,8.14,8.14,0,0,1,2.54-1.2,11.313,11.313,0,0,1,3.14-.42,11.03,11.03,0,0,1,5,1.1,6.773,6.773,0,0,1,3.24,3.5L52.56-13.8a3.466,3.466,0,0,0-1.64-1.68A4.941,4.941,0,0,0,48.76-16a4.017,4.017,0,0,0-1.96.46,1.351,1.351,0,0,0-.84,1.18,1.209,1.209,0,0,0,.7,1.08,8.128,8.128,0,0,0,1.9.72l3,.72a8.671,8.671,0,0,1,4.46,2.3A5.327,5.327,0,0,1,57.48-5.8a5.24,5.24,0,0,1-.6,2.44,6.538,6.538,0,0,1-1.7,2.06A8.331,8.331,0,0,1,52.54.12,10.642,10.642,0,0,1,49.12.64ZM79.48-5A10.94,10.94,0,0,1,75.9-.94,9.9,9.9,0,0,1,70.16.64a10.9,10.9,0,0,1-4.18-.78A9.743,9.743,0,0,1,62.7-2.32a10.121,10.121,0,0,1-2.16-3.3,10.9,10.9,0,0,1-.78-4.18,11.056,11.056,0,0,1,.78-4.2,9.847,9.847,0,0,1,2.16-3.3,9.9,9.9,0,0,1,3.28-2.16,10.9,10.9,0,0,1,4.18-.78,10.02,10.02,0,0,1,5.72,1.56,9.238,9.238,0,0,1,3.4,4.04l-4.8,2a5.155,5.155,0,0,0-1.74-2.06,4.729,4.729,0,0,0-2.66-.7,4.862,4.862,0,0,0-1.96.4,5.043,5.043,0,0,0-1.62,1.12,5.129,5.129,0,0,0-1.1,1.76A6.417,6.417,0,0,0,65-9.8a6.417,6.417,0,0,0,.4,2.32,5.129,5.129,0,0,0,1.1,1.76A5.043,5.043,0,0,0,68.12-4.6a4.862,4.862,0,0,0,1.96.4,5,5,0,0,0,2.78-.74,5.163,5.163,0,0,0,1.82-2.14ZM91.76-20.24a10.9,10.9,0,0,1,4.18.78,9.9,9.9,0,0,1,3.28,2.16,9.847,9.847,0,0,1,2.16,3.3,11.056,11.056,0,0,1,.78,4.2,11.056,11.056,0,0,1-.78,4.2,9.847,9.847,0,0,1-2.16,3.3A9.9,9.9,0,0,1,95.94-.14a10.9,10.9,0,0,1-4.18.78,10.9,10.9,0,0,1-4.18-.78A9.9,9.9,0,0,1,84.3-2.3a9.847,9.847,0,0,1-2.16-3.3,11.056,11.056,0,0,1-.78-4.2,11.056,11.056,0,0,1,.78-4.2,9.847,9.847,0,0,1,2.16-3.3,9.9,9.9,0,0,1,3.28-2.16A10.9,10.9,0,0,1,91.76-20.24Zm0,16.04a5.131,5.131,0,0,0,1.94-.38,4.947,4.947,0,0,0,1.66-1.1A5.214,5.214,0,0,0,96.5-7.44a6.258,6.258,0,0,0,.42-2.36,6.258,6.258,0,0,0-.42-2.36,5.214,5.214,0,0,0-1.14-1.76,4.947,4.947,0,0,0-1.66-1.1,5.131,5.131,0,0,0-1.94-.38,5.083,5.083,0,0,0-1.96.38,5,5,0,0,0-1.64,1.1,5.214,5.214,0,0,0-1.14,1.76A6.258,6.258,0,0,0,86.6-9.8a6.258,6.258,0,0,0,.42,2.36,5.214,5.214,0,0,0,1.14,1.76,5,5,0,0,0,1.64,1.1A5.083,5.083,0,0,0,91.76-4.2Zm13.36-15.4h4.92v2.72h.32a5.065,5.065,0,0,1,.96-1.32,6.8,6.8,0,0,1,1.34-1.04,6.57,6.57,0,0,1,1.6-.68,6.3,6.3,0,0,1,1.7-.24,6.9,6.9,0,0,1,1.78.2,4.776,4.776,0,0,1,1.26.52l-1.4,4.76a4.97,4.97,0,0,0-1.06-.38,6.151,6.151,0,0,0-1.42-.14,4.492,4.492,0,0,0-1.96.42,4.309,4.309,0,0,0-1.5,1.18,5.572,5.572,0,0,0-.96,1.78,6.981,6.981,0,0,0-.34,2.22V0h-5.24ZM134.8-2.36h-.32a5.947,5.947,0,0,1-2.24,2.12,7.4,7.4,0,0,1-3.76.88,8.486,8.486,0,0,1-3.58-.78,9.571,9.571,0,0,1-3-2.16,10.258,10.258,0,0,1-2.06-3.3,11.313,11.313,0,0,1-.76-4.2,11.313,11.313,0,0,1,.76-4.2,10.258,10.258,0,0,1,2.06-3.3,9.571,9.571,0,0,1,3-2.16,8.486,8.486,0,0,1,3.58-.78,7.4,7.4,0,0,1,3.76.88,5.947,5.947,0,0,1,2.24,2.12h.32l-.32-2.8v-8.6h5.24V0H134.8ZM129.56-4.2a5.233,5.233,0,0,0,1.98-.38,4.947,4.947,0,0,0,1.66-1.1,5.468,5.468,0,0,0,1.16-1.76,6.006,6.006,0,0,0,.44-2.36,6.006,6.006,0,0,0-.44-2.36,5.468,5.468,0,0,0-1.16-1.76,4.947,4.947,0,0,0-1.66-1.1,5.233,5.233,0,0,0-1.98-.38,5,5,0,0,0-1.98.4,5.212,5.212,0,0,0-1.66,1.12,5.467,5.467,0,0,0-1.16,1.76,5.9,5.9,0,0,0-.44,2.32,5.9,5.9,0,0,0,.44,2.32,5.467,5.467,0,0,0,1.16,1.76,5.212,5.212,0,0,0,1.66,1.12A5,5,0,0,0,129.56-4.2Z" transform="translate(385 556)" fill="#5865f2" stroke="#5865f2" stroke-width="1"/>
  </g>
</svg>
