<svg xmlns="http://www.w3.org/2000/svg" width="56.5" height="28" viewBox="0 0 56.5 28">
  <g id="Group_1" data-name="Group 1" transform="translate(-444 -237)">
    <rect id="Rectangle_1" data-name="Rectangle 1" width="56.5" height="28" transform="translate(444 237)" fill="none"/>
    <g id="google-developers-seeklogo.com" transform="translate(446.373 238.393)">
      <path id="Path_1" data-name="Path 1" d="M151.462,46.854c2.731-1.569,5.455-3.15,8.2-4.7a4.148,4.148,0,0,1,6.251,2.753,4.091,4.091,0,0,1-1.9,4.324q-7.366,4.293-14.771,8.519a3.867,3.867,0,0,1-4.5-.356,4.08,4.08,0,0,1-1.53-4.307,4.716,4.716,0,0,1,2.431-2.865c1.957-1.092,3.882-2.242,5.821-3.367" transform="translate(-114.089 -33.126)" fill="#fabc05"/>
      <path id="Path_2" data-name="Path 2" d="M153.506,12.662c-2.724-1.581-5.455-3.149-8.17-4.746a4.148,4.148,0,0,1-.741-6.791,4.092,4.092,0,0,1,4.694-.519q7.4,4.233,14.763,8.533a3.868,3.868,0,0,1,1.942,4.075,4.081,4.081,0,0,1-2.965,3.479,4.716,4.716,0,0,1-3.7-.673c-1.924-1.149-3.883-2.241-5.827-3.357" transform="translate(-114.127 -0.074)" fill="#109d58"/>
      <path id="Path_3" data-name="Path 3" d="M14.549,11.469q-2.622,1.49-5.243,2.981c-1.022.583-2.032,1.185-3.059,1.758A4.153,4.153,0,0,1,2.064,9.032Q9.371,4.767,16.721.575A3.877,3.877,0,0,1,21.174.85a4.133,4.133,0,0,1,1.618,4.382,5.16,5.16,0,0,1-.632,1.276,8.006,8.006,0,0,1-1.693,1.47c-1.949,1.2-3.942,2.333-5.917,3.491" transform="translate(0 0)" fill="#e94436"/>
      <path id="Path_4" data-name="Path 4" d="M12.561,45.772q2.6,1.526,5.2,3.051c1.015.593,2.042,1.167,3.052,1.769A4.153,4.153,0,0,1,16.693,57.8q-7.347-4.2-14.653-8.465A3.877,3.877,0,0,1,.052,45.345a4.133,4.133,0,0,1,2.986-3.592,5.163,5.163,0,0,1,1.422-.09,8.008,8.008,0,0,1,2.12.731c2.015,1.087,3.991,2.247,5.982,3.379" transform="translate(-0.016 -33.189)" fill="#4385f3"/>
    </g>
  </g>
</svg>
