<svg id="Group_1" data-name="Group 1" xmlns="http://www.w3.org/2000/svg" width="21.948" height="10.877" viewBox="0 0 21.948 10.877">
  <rect id="Rectangle_1" data-name="Rectangle 1" width="21.948" height="10.877" transform="translate(0 0)" fill="none"/>
  <g id="google-developers-seeklogo.com" transform="translate(0.922 0.541)">
    <path id="Path_1" data-name="Path 1" d="M146.353,43.611c1.061-.609,2.119-1.224,3.184-1.827a1.611,1.611,0,0,1,2.428,1.07,1.589,1.589,0,0,1-.737,1.68q-2.861,1.667-5.738,3.309a1.5,1.5,0,0,1-1.748-.138,1.585,1.585,0,0,1-.594-1.673,1.832,1.832,0,0,1,.944-1.113c.76-.424,1.508-.871,2.261-1.308" transform="translate(-131.834 -38.278)" fill="#f4f6fa"/>
    <path id="Path_2" data-name="Path 2" d="M147.175,4.976c-1.058-.614-2.119-1.223-3.174-1.844a1.611,1.611,0,0,1-.288-2.638,1.59,1.59,0,0,1,1.823-.2q2.875,1.644,5.735,3.315a1.5,1.5,0,0,1,.754,1.583,1.585,1.585,0,0,1-1.152,1.351,1.832,1.832,0,0,1-1.436-.261c-.748-.446-1.508-.871-2.263-1.3" transform="translate(-131.878 -0.086)" fill="#f4f6fa" opacity="0.3"/>
    <path id="Path_3" data-name="Path 3" d="M5.652,4.455q-1.019.579-2.037,1.158c-.4.226-.789.46-1.188.683A1.613,1.613,0,0,1,.8,3.509Q3.64,1.852,6.5.223A1.506,1.506,0,0,1,8.225.33a1.605,1.605,0,0,1,.629,1.7,2,2,0,0,1-.246.5A3.11,3.11,0,0,1,7.95,3.1c-.757.467-1.531.906-2.3,1.356" transform="translate(0 0)" fill="#f4f6fa"/>
    <path id="Path_4" data-name="Path 4" d="M4.892,43.239q1.011.593,2.021,1.185c.394.23.793.453,1.186.687a1.613,1.613,0,0,1-1.6,2.8Q3.643,46.283.805,44.625a1.506,1.506,0,0,1-.772-1.552,1.605,1.605,0,0,1,1.16-1.4,2.006,2.006,0,0,1,.552-.035,3.111,3.111,0,0,1,.823.284c.783.422,1.55.873,2.324,1.313" transform="translate(-0.019 -38.351)" fill="#f4f6fa" opacity="0.34"/>
  </g>
</svg>
