<svg width="192" height="192" viewBox="0 0 192 192" fill="none" xmlns="http://www.w3.org/2000/svg">
<g clip-path="url(#clip0_405_148)">
<path d="M49.9189 86.6757C44.9838 86.6757 41 90.6595 41 95.5946C41 100.53 44.9838 104.514 49.9189 104.514C54.8541 104.514 58.8378 100.53 58.8378 95.5946C58.8378 90.6595 54.8541 86.6757 49.9189 86.6757ZM49.9189 51C44.9838 51 41 54.9838 41 59.9189C41 64.8541 44.9838 68.8378 49.9189 68.8378C54.8541 68.8378 58.8378 64.8541 58.8378 59.9189C58.8378 54.9838 54.8541 51 49.9189 51ZM49.9189 122.351C44.9838 122.351 41 126.395 41 131.27C41 136.146 45.0432 140.189 49.9189 140.189C54.7946 140.189 58.8378 136.146 58.8378 131.27C58.8378 126.395 54.8541 122.351 49.9189 122.351ZM73.7027 137.216H145.054C148.324 137.216 151 134.541 151 131.27C151 128 148.324 125.324 145.054 125.324H73.7027C70.4324 125.324 67.7568 128 67.7568 131.27C67.7568 134.541 70.4324 137.216 73.7027 137.216ZM73.7027 101.541H145.054C148.324 101.541 151 98.8649 151 95.5946C151 92.3243 148.324 89.6486 145.054 89.6486H73.7027C70.4324 89.6486 67.7568 92.3243 67.7568 95.5946C67.7568 98.8649 70.4324 101.541 73.7027 101.541ZM67.7568 59.9189C67.7568 63.1892 70.4324 65.8649 73.7027 65.8649H145.054C148.324 65.8649 151 63.1892 151 59.9189C151 56.6486 148.324 53.973 145.054 53.973H73.7027C70.4324 53.973 67.7568 56.6486 67.7568 59.9189Z" fill="black"/>
</g>
<defs>
<clipPath id="clip0_405_148">
<rect width="192" height="192" fill="white"/>
</clipPath>
</defs>
</svg>
