<svg width="192" height="192" viewBox="0 0 192 192" fill="none" xmlns="http://www.w3.org/2000/svg">
<path d="M143.2 56.7143V135.286H151.067C152.11 135.286 153.11 135.7 153.848 136.436C154.586 137.173 155 138.172 155 139.214V147.071C155 148.113 154.586 149.113 153.848 149.849C153.11 150.586 152.11 151 151.067 151H111.733C110.69 151 109.69 150.586 108.952 149.849C108.214 149.113 107.8 148.113 107.8 147.071V139.214C107.8 138.172 108.214 137.173 108.952 136.436C109.69 135.7 110.69 135.286 111.733 135.286H119.6V103.857H72.4V135.286H80.2667C81.3099 135.286 82.3103 135.7 83.048 136.436C83.7856 137.173 84.2 138.172 84.2 139.214V147.071C84.2 148.113 83.7856 149.113 83.048 149.849C82.3103 150.586 81.3099 151 80.2667 151H40.9333C39.8901 151 38.8897 150.586 38.152 149.849C37.4144 149.113 37 148.113 37 147.071V139.214C37 138.172 37.4144 137.173 38.152 136.436C38.8897 135.7 39.8901 135.286 40.9333 135.286H48.8V56.7143H40.9333C39.8901 56.7143 38.8897 56.3004 38.152 55.5636C37.4144 54.8269 37 53.8276 37 52.7857V44.9286C37 43.8866 37.4144 42.8874 38.152 42.1507C38.8897 41.4139 39.8901 41 40.9333 41H80.2667C81.3099 41 82.3103 41.4139 83.048 42.1507C83.7856 42.8874 84.2 43.8866 84.2 44.9286V52.7857C84.2 53.8276 83.7856 54.8269 83.048 55.5636C82.3103 56.3004 81.3099 56.7143 80.2667 56.7143H72.4V88.1429H119.6V56.7143H111.733C110.69 56.7143 109.69 56.3004 108.952 55.5636C108.214 54.8269 107.8 53.8276 107.8 52.7857V44.9286C107.8 43.8866 108.214 42.8874 108.952 42.1507C109.69 41.4139 110.69 41 111.733 41H151.067C152.11 41 153.11 41.4139 153.848 42.1507C154.586 42.8874 155 43.8866 155 44.9286V52.7857C155 53.8276 154.586 54.8269 153.848 55.5636C153.11 56.3004 152.11 56.7143 151.067 56.7143H143.2Z" fill="black"/>
</svg>
