<svg width="23" height="23" viewBox="0 0 23 23" fill="none" xmlns="http://www.w3.org/2000/svg">
<path d="M14.4425 7.79043L8.78499 13.4479L5.70298 10.3745L4.49249 11.585L8.78499 15.8775L15.653 9.0095L14.4425 7.79043ZM10.502 3C5.76307 3 1.91699 6.84608 1.91699 11.585C1.91699 16.3239 5.76307 20.17 10.502 20.17C15.2409 20.17 19.087 16.3239 19.087 11.585C19.087 6.84608 15.2409 3 10.502 3ZM10.502 18.453C6.70742 18.453 3.63399 15.3796 3.63399 11.585C3.63399 7.79043 6.70742 4.717 10.502 4.717C14.2966 4.717 17.37 7.79043 17.37 11.585C17.37 15.3796 14.2966 18.453 10.502 18.453Z" fill="#179D58"/>
</svg>
