<svg xmlns="http://www.w3.org/2000/svg" xmlns:xlink="http://www.w3.org/1999/xlink" width="703" height="703" viewBox="0 0 703 703">
  <defs>
    <clipPath id="clip-Public_Session">
      <rect width="703" height="703"/>
    </clipPath>
  </defs>
  <g id="Public_Session" data-name="Public Session" clip-path="url(#clip-Public_Session)">
    <g id="Group_157" data-name="Group 157" transform="translate(6280.004 -500.454) rotate(-30)">
      <g id="android_black_24dp" transform="translate(-5694.539 -2335.77)" opacity="0.7">
        <g id="Group_150" data-name="Group 150">
          <path id="Path_128" data-name="Path 128" d="M0,0H79.222V79.222H0Z" fill="#109d58" opacity="0"/>
        </g>
        <g id="Group_152" data-name="Group 152" transform="translate(3.301 17.75)">
          <g id="Group_151" data-name="Group 151">
            <path id="Path_129" data-name="Path 129" d="M55.795,18.92l6.074-10.5a2.079,2.079,0,0,0-3.6-2.08L52.065,17.039a37.837,37.837,0,0,0-29.51,0L16.349,6.344a2.079,2.079,0,0,0-3.6,2.08l6.074,10.5A35.586,35.586,0,0,0,1,47.044H73.62A35.586,35.586,0,0,0,55.795,18.92ZM20.805,37.966a4.126,4.126,0,1,1,4.126-4.126A4.128,4.128,0,0,1,20.805,37.966Zm33.009,0A4.126,4.126,0,1,1,57.94,33.84,4.128,4.128,0,0,1,53.814,37.966Z" transform="translate(-1 -5.377)" fill="#109d58"/>
          </g>
        </g>
      </g>
      <g id="android_black_24dp-2" data-name="android_black_24dp" transform="translate(-5357.848 -2111.309)" opacity="0.3">
        <g id="Group_150-2" data-name="Group 150">
          <path id="Path_128-2" data-name="Path 128" d="M0,0H79.222V79.222H0Z" fill="#109d58" opacity="0"/>
        </g>
        <g id="Group_152-2" data-name="Group 152" transform="translate(3.301 17.75)">
          <g id="Group_151-2" data-name="Group 151">
            <path id="Path_129-2" data-name="Path 129" d="M55.795,18.92l6.074-10.5a2.079,2.079,0,0,0-3.6-2.08L52.065,17.039a37.837,37.837,0,0,0-29.51,0L16.349,6.344a2.079,2.079,0,0,0-3.6,2.08l6.074,10.5A35.586,35.586,0,0,0,1,47.044H73.62A35.586,35.586,0,0,0,55.795,18.92ZM20.805,37.966a4.126,4.126,0,1,1,4.126-4.126A4.128,4.128,0,0,1,20.805,37.966Zm33.009,0A4.126,4.126,0,1,1,57.94,33.84,4.128,4.128,0,0,1,53.814,37.966Z" transform="translate(-1 -5.377)" fill="#109d58"/>
          </g>
        </g>
      </g>
      <g id="android_black_24dp-3" data-name="android_black_24dp" transform="translate(-5133.386 -1999.078)" opacity="0.2">
        <g id="Group_150-3" data-name="Group 150">
          <path id="Path_128-3" data-name="Path 128" d="M0,0H79.222V79.222H0Z" fill="#109d58" opacity="0"/>
        </g>
        <g id="Group_152-3" data-name="Group 152" transform="translate(3.301 17.75)">
          <g id="Group_151-3" data-name="Group 151">
            <path id="Path_129-3" data-name="Path 129" d="M55.795,18.92l6.074-10.5a2.079,2.079,0,0,0-3.6-2.08L52.065,17.039a37.837,37.837,0,0,0-29.51,0L16.349,6.344a2.079,2.079,0,0,0-3.6,2.08l6.074,10.5A35.586,35.586,0,0,0,1,47.044H73.62A35.586,35.586,0,0,0,55.795,18.92ZM20.805,37.966a4.126,4.126,0,1,1,4.126-4.126A4.128,4.128,0,0,1,20.805,37.966Zm33.009,0A4.126,4.126,0,1,1,57.94,33.84,4.128,4.128,0,0,1,53.814,37.966Z" transform="translate(-1 -5.377)" fill="#109d58"/>
          </g>
        </g>
      </g>
      <g id="api_black_24dp" transform="translate(-5806.77 -2223.539)" opacity="0.5">
        <rect id="Rectangle_93" data-name="Rectangle 93" width="79.222" height="79.222" fill="#e94436" opacity="0"/>
        <path id="Path_130" data-name="Path 130" d="M38.69,38.69h0a4.652,4.652,0,0,1-6.6.033V38.69a4.642,4.642,0,0,1,0-6.569v-.033a4.642,4.642,0,0,1,6.569,0h.033A4.682,4.682,0,0,1,38.69,38.69Zm-3.3-23.106,7,7,8.252-8.252L40.076,3.766a6.614,6.614,0,0,0-9.342,0L20.171,14.329l8.252,8.252ZM15.583,35.389l7-7-8.252-8.252L3.766,30.7a6.614,6.614,0,0,0,0,9.342L14.329,50.606l8.252-8.252Zm39.611,0-7,7,8.252,8.252L67.011,40.076a6.614,6.614,0,0,0,0-9.342L56.448,20.171,48.2,28.424ZM35.389,55.194l-7-7-8.252,8.252L30.7,67.011a6.614,6.614,0,0,0,9.342,0L50.606,56.448,42.354,48.2Z" transform="translate(4.222 4.222)" fill="#e94436"/>
      </g>
      <g id="api_black_24dp-2" data-name="api_black_24dp" transform="translate(-5357.848 -2335.77)" opacity="0.7">
        <rect id="Rectangle_93-2" data-name="Rectangle 93" width="79.222" height="79.222" fill="#e94436" opacity="0"/>
        <path id="Path_130-2" data-name="Path 130" d="M38.69,38.69h0a4.652,4.652,0,0,1-6.6.033V38.69a4.642,4.642,0,0,1,0-6.569v-.033a4.642,4.642,0,0,1,6.569,0h.033A4.682,4.682,0,0,1,38.69,38.69Zm-3.3-23.106,7,7,8.252-8.252L40.076,3.766a6.614,6.614,0,0,0-9.342,0L20.171,14.329l8.252,8.252ZM15.583,35.389l7-7-8.252-8.252L3.766,30.7a6.614,6.614,0,0,0,0,9.342L14.329,50.606l8.252-8.252Zm39.611,0-7,7,8.252,8.252L67.011,40.076a6.614,6.614,0,0,0,0-9.342L56.448,20.171,48.2,28.424ZM35.389,55.194l-7-7-8.252,8.252L30.7,67.011a6.614,6.614,0,0,0,9.342,0L50.606,56.448,42.354,48.2Z" transform="translate(4.222 4.222)" fill="#e94436"/>
      </g>
      <g id="api_black_24dp-3" data-name="api_black_24dp" transform="translate(-5245.617 -2111.309)" opacity="0.3">
        <rect id="Rectangle_93-3" data-name="Rectangle 93" width="79.222" height="79.222" fill="#e94436" opacity="0"/>
        <path id="Path_130-3" data-name="Path 130" d="M38.69,38.69h0a4.652,4.652,0,0,1-6.6.033V38.69a4.642,4.642,0,0,1,0-6.569v-.033a4.642,4.642,0,0,1,6.569,0h.033A4.682,4.682,0,0,1,38.69,38.69Zm-3.3-23.106,7,7,8.252-8.252L40.076,3.766a6.614,6.614,0,0,0-9.342,0L20.171,14.329l8.252,8.252ZM15.583,35.389l7-7-8.252-8.252L3.766,30.7a6.614,6.614,0,0,0,0,9.342L14.329,50.606l8.252-8.252Zm39.611,0-7,7,8.252,8.252L67.011,40.076a6.614,6.614,0,0,0,0-9.342L56.448,20.171,48.2,28.424ZM35.389,55.194l-7-7-8.252,8.252L30.7,67.011a6.614,6.614,0,0,0,9.342,0L50.606,56.448,42.354,48.2Z" transform="translate(4.222 4.222)" fill="#e94436"/>
      </g>
      <g id="api_black_24dp-4" data-name="api_black_24dp" transform="translate(-5806.77 -1999.078)" opacity="0.2">
        <rect id="Rectangle_93-4" data-name="Rectangle 93" width="79.222" height="79.222" fill="#e94436" opacity="0"/>
        <path id="Path_130-4" data-name="Path 130" d="M38.69,38.69h0a4.652,4.652,0,0,1-6.6.033V38.69a4.642,4.642,0,0,1,0-6.569v-.033a4.642,4.642,0,0,1,6.569,0h.033A4.682,4.682,0,0,1,38.69,38.69Zm-3.3-23.106,7,7,8.252-8.252L40.076,3.766a6.614,6.614,0,0,0-9.342,0L20.171,14.329l8.252,8.252ZM15.583,35.389l7-7-8.252-8.252L3.766,30.7a6.614,6.614,0,0,0,0,9.342L14.329,50.606l8.252-8.252Zm39.611,0-7,7,8.252,8.252L67.011,40.076a6.614,6.614,0,0,0,0-9.342L56.448,20.171,48.2,28.424ZM35.389,55.194l-7-7-8.252,8.252L30.7,67.011a6.614,6.614,0,0,0,9.342,0L50.606,56.448,42.354,48.2Z" transform="translate(4.222 4.222)" fill="#e94436"/>
      </g>
      <g id="cloud_black_24dp_1_" data-name="cloud_black_24dp (1)" transform="translate(-5694.539 -2223.539)" opacity="0.5">
        <path id="Path_131" data-name="Path 131" d="M0,0H79.222V79.222H0Z" fill="#4385f3" opacity="0"/>
        <path id="Path_132" data-name="Path 132" d="M63.872,23.937a24.732,24.732,0,0,0-46.213-6.6,19.8,19.8,0,0,0,2.146,39.479H62.717a16.457,16.457,0,0,0,1.155-32.877Z" transform="translate(0 9.204)" fill="#4385f3"/>
      </g>
      <g id="cloud_black_24dp_1_2" data-name="cloud_black_24dp (1)" transform="translate(-5470.078 -2335.77)" opacity="0.7">
        <path id="Path_131-2" data-name="Path 131" d="M0,0H79.222V79.222H0Z" fill="#4385f3" opacity="0"/>
        <path id="Path_132-2" data-name="Path 132" d="M63.872,23.937a24.732,24.732,0,0,0-46.213-6.6,19.8,19.8,0,0,0,2.146,39.479H62.717a16.457,16.457,0,0,0,1.155-32.877Z" transform="translate(0 9.204)" fill="#4385f3"/>
      </g>
      <g id="cloud_black_24dp_1_3" data-name="cloud_black_24dp (1)" transform="translate(-5470.078 -2111.309)" opacity="0.3">
        <path id="Path_131-3" data-name="Path 131" d="M0,0H79.222V79.222H0Z" fill="#4385f3" opacity="0"/>
        <path id="Path_132-3" data-name="Path 132" d="M63.872,23.937a24.732,24.732,0,0,0-46.213-6.6,19.8,19.8,0,0,0,2.146,39.479H62.717a16.457,16.457,0,0,0,1.155-32.877Z" transform="translate(0 9.204)" fill="#4385f3"/>
      </g>
      <g id="cloud_black_24dp_1_4" data-name="cloud_black_24dp (1)" transform="translate(-5919 -1999.078)" opacity="0.2">
        <path id="Path_131-4" data-name="Path 131" d="M0,0H79.222V79.222H0Z" fill="none" opacity="0"/>
        <path id="Path_132-4" data-name="Path 132" d="M63.872,23.937a24.732,24.732,0,0,0-46.213-6.6,19.8,19.8,0,0,0,2.146,39.479H62.717a16.457,16.457,0,0,0,1.155-32.877Z" transform="translate(0 9.204)" fill="#4385f3"/>
      </g>
      <g id="devices_black_24dp" transform="translate(-5582.309 -2223.539)" opacity="0.5">
        <path id="Path_133" data-name="Path 133" d="M0,0H79.222V79.222H0Z" fill="#fabc05" opacity="0"/>
        <path id="Path_134" data-name="Path 134" d="M13.2,13.9a3.311,3.311,0,0,1,3.3-3.3H69.319a3.3,3.3,0,0,0,0-6.6H13.2a6.621,6.621,0,0,0-6.6,6.6v36.31H4.951a4.951,4.951,0,1,0,0,9.9H46.213v-9.9H13.2Zm62.717,3.3H56.115a3.311,3.311,0,0,0-3.3,3.3V53.513a3.311,3.311,0,0,0,3.3,3.3H75.921a3.311,3.311,0,0,0,3.3-3.3V20.5A3.311,3.311,0,0,0,75.921,17.2Zm-3.3,29.708h-13.2V23.805h13.2Z" transform="translate(0 9.204)" fill="#fabc05"/>
      </g>
      <g id="devices_black_24dp-2" data-name="devices_black_24dp" transform="translate(-5133.386 -2111.309)" opacity="0.3">
        <path id="Path_133-2" data-name="Path 133" d="M0,0H79.222V79.222H0Z" fill="#727272" opacity="0"/>
        <path id="Path_134-2" data-name="Path 134" d="M13.2,13.9a3.311,3.311,0,0,1,3.3-3.3H69.319a3.3,3.3,0,0,0,0-6.6H13.2a6.621,6.621,0,0,0-6.6,6.6v36.31H4.951a4.951,4.951,0,1,0,0,9.9H46.213v-9.9H13.2Zm62.717,3.3H56.115a3.311,3.311,0,0,0-3.3,3.3V53.513a3.311,3.311,0,0,0,3.3,3.3H75.921a3.311,3.311,0,0,0,3.3-3.3V20.5A3.311,3.311,0,0,0,75.921,17.2Zm-3.3,29.708h-13.2V23.805h13.2Z" transform="translate(0 9.204)" fill="#727272"/>
      </g>
      <g id="devices_black_24dp-3" data-name="devices_black_24dp" transform="translate(-5357.848 -1999.078)" opacity="0.2">
        <path id="Path_133-3" data-name="Path 133" d="M0,0H79.222V79.222H0Z" fill="#c4c4c4" opacity="0"/>
        <path id="Path_134-3" data-name="Path 134" d="M13.2,13.9a3.311,3.311,0,0,1,3.3-3.3H69.319a3.3,3.3,0,0,0,0-6.6H13.2a6.621,6.621,0,0,0-6.6,6.6v36.31H4.951a4.951,4.951,0,1,0,0,9.9H46.213v-9.9H13.2Zm62.717,3.3H56.115a3.311,3.311,0,0,0-3.3,3.3V53.513a3.311,3.311,0,0,0,3.3,3.3H75.921a3.311,3.311,0,0,0,3.3-3.3V20.5A3.311,3.311,0,0,0,75.921,17.2Zm-3.3,29.708h-13.2V23.805h13.2Z" transform="translate(0 9.204)" fill="#c4c4c4"/>
      </g>
      <g id="language_black_24dp" transform="translate(-5470.078 -2223.539)" opacity="0.5">
        <path id="Path_135" data-name="Path 135" d="M0,0H79.222V79.222H0Z" fill="#4385f3" opacity="0"/>
        <path id="Path_136" data-name="Path 136" d="M34.976,2A33.009,33.009,0,1,0,68.018,35.009,32.993,32.993,0,0,0,34.976,2ZM57.851,21.805H48.114a51.656,51.656,0,0,0-4.555-11.751A26.505,26.505,0,0,1,57.851,21.805ZM35.009,8.734a46.5,46.5,0,0,1,6.3,13.072H28.7A46.5,46.5,0,0,1,35.009,8.734ZM9.46,41.611a27.206,27.206,0,0,1-.858-6.6,27.206,27.206,0,0,1,.858-6.6H20.617a54.515,54.515,0,0,0-.462,6.6,54.515,54.515,0,0,0,.462,6.6Zm2.707,6.6H21.9A51.656,51.656,0,0,0,26.46,59.964,26.364,26.364,0,0,1,12.167,48.213ZM21.9,21.805H12.167A26.364,26.364,0,0,1,26.46,10.054,51.656,51.656,0,0,0,21.9,21.805Zm13.1,39.479a46.5,46.5,0,0,1-6.3-13.072H41.314A46.5,46.5,0,0,1,35.009,61.284Zm7.724-19.673H27.285a48.565,48.565,0,0,1-.528-6.6,48.143,48.143,0,0,1,.528-6.6H42.733a48.143,48.143,0,0,1,.528,6.6A48.565,48.565,0,0,1,42.733,41.611Zm.825,18.353a51.656,51.656,0,0,0,4.555-11.751h9.738A26.505,26.505,0,0,1,43.558,59.964ZM49.4,41.611a54.514,54.514,0,0,0,.462-6.6,54.514,54.514,0,0,0-.462-6.6H60.558a27.205,27.205,0,0,1,.858,6.6,27.205,27.205,0,0,1-.858,6.6Z" transform="translate(4.602 4.602)" fill="#4385f3"/>
      </g>
      <g id="language_black_24dp-2" data-name="language_black_24dp" transform="translate(-5470.078 -2448)" opacity="0.8">
        <path id="Path_135-2" data-name="Path 135" d="M0,0H79.222V79.222H0Z" fill="#4385f3" opacity="0"/>
        <path id="Path_136-2" data-name="Path 136" d="M34.976,2A33.009,33.009,0,1,0,68.018,35.009,32.993,32.993,0,0,0,34.976,2ZM57.851,21.805H48.114a51.656,51.656,0,0,0-4.555-11.751A26.505,26.505,0,0,1,57.851,21.805ZM35.009,8.734a46.5,46.5,0,0,1,6.3,13.072H28.7A46.5,46.5,0,0,1,35.009,8.734ZM9.46,41.611a27.206,27.206,0,0,1-.858-6.6,27.206,27.206,0,0,1,.858-6.6H20.617a54.515,54.515,0,0,0-.462,6.6,54.515,54.515,0,0,0,.462,6.6Zm2.707,6.6H21.9A51.656,51.656,0,0,0,26.46,59.964,26.364,26.364,0,0,1,12.167,48.213ZM21.9,21.805H12.167A26.364,26.364,0,0,1,26.46,10.054,51.656,51.656,0,0,0,21.9,21.805Zm13.1,39.479a46.5,46.5,0,0,1-6.3-13.072H41.314A46.5,46.5,0,0,1,35.009,61.284Zm7.724-19.673H27.285a48.565,48.565,0,0,1-.528-6.6,48.143,48.143,0,0,1,.528-6.6H42.733a48.143,48.143,0,0,1,.528,6.6A48.565,48.565,0,0,1,42.733,41.611Zm.825,18.353a51.656,51.656,0,0,0,4.555-11.751h9.738A26.505,26.505,0,0,1,43.558,59.964ZM49.4,41.611a54.514,54.514,0,0,0,.462-6.6,54.514,54.514,0,0,0-.462-6.6H60.558a27.205,27.205,0,0,1,.858,6.6,27.205,27.205,0,0,1-.858,6.6Z" transform="translate(4.602 4.602)" fill="#4385f3"/>
      </g>
      <g id="language_black_24dp-3" data-name="language_black_24dp" transform="translate(-5694.539 -2111.309)" opacity="0.3">
        <path id="Path_135-3" data-name="Path 135" d="M0,0H79.222V79.222H0Z" fill="#4385f3" opacity="0"/>
        <path id="Path_136-3" data-name="Path 136" d="M34.976,2A33.009,33.009,0,1,0,68.018,35.009,32.993,32.993,0,0,0,34.976,2ZM57.851,21.805H48.114a51.656,51.656,0,0,0-4.555-11.751A26.505,26.505,0,0,1,57.851,21.805ZM35.009,8.734a46.5,46.5,0,0,1,6.3,13.072H28.7A46.5,46.5,0,0,1,35.009,8.734ZM9.46,41.611a27.206,27.206,0,0,1-.858-6.6,27.206,27.206,0,0,1,.858-6.6H20.617a54.515,54.515,0,0,0-.462,6.6,54.515,54.515,0,0,0,.462,6.6Zm2.707,6.6H21.9A51.656,51.656,0,0,0,26.46,59.964,26.364,26.364,0,0,1,12.167,48.213ZM21.9,21.805H12.167A26.364,26.364,0,0,1,26.46,10.054,51.656,51.656,0,0,0,21.9,21.805Zm13.1,39.479a46.5,46.5,0,0,1-6.3-13.072H41.314A46.5,46.5,0,0,1,35.009,61.284Zm7.724-19.673H27.285a48.565,48.565,0,0,1-.528-6.6,48.143,48.143,0,0,1,.528-6.6H42.733a48.143,48.143,0,0,1,.528,6.6A48.565,48.565,0,0,1,42.733,41.611Zm.825,18.353a51.656,51.656,0,0,0,4.555-11.751h9.738A26.505,26.505,0,0,1,43.558,59.964ZM49.4,41.611a54.514,54.514,0,0,0,.462-6.6,54.514,54.514,0,0,0-.462-6.6H60.558a27.205,27.205,0,0,1,.858,6.6,27.205,27.205,0,0,1-.858,6.6Z" transform="translate(4.602 4.602)" fill="#4385f3"/>
      </g>
      <g id="memory_black_24dp" transform="translate(-5357.848 -2223.539)" opacity="0.5">
        <path id="Path_137" data-name="Path 137" d="M0,0H79.222V79.222H0Z" fill="#c4c4c4" opacity="0"/>
        <path id="Path_138" data-name="Path 138" d="M42.611,22.805H22.805V42.611H42.611Zm-6.6,13.2h-6.6v-6.6h6.6Zm26.407-6.6v-6.6h-6.6V16.2a6.621,6.621,0,0,0-6.6-6.6h-6.6V3h-6.6V9.6h-6.6V3h-6.6V9.6H16.2a6.621,6.621,0,0,0-6.6,6.6v6.6H3v6.6H9.6v6.6H3v6.6H9.6v6.6a6.621,6.621,0,0,0,6.6,6.6h6.6v6.6h6.6v-6.6h6.6v6.6h6.6v-6.6h6.6a6.621,6.621,0,0,0,6.6-6.6v-6.6h6.6v-6.6h-6.6v-6.6Zm-13.2,19.805H16.2V16.2H49.213Z" transform="translate(6.903 6.903)" fill="#c4c4c4"/>
      </g>
      <g id="memory_black_24dp-2" data-name="memory_black_24dp" transform="translate(-5919 -2111.309)" opacity="0.3">
        <path id="Path_137-2" data-name="Path 137" d="M0,0H79.222V79.222H0Z" fill="#c4c4c4" opacity="0"/>
        <path id="Path_138-2" data-name="Path 138" d="M42.611,22.805H22.805V42.611H42.611Zm-6.6,13.2h-6.6v-6.6h6.6Zm26.407-6.6v-6.6h-6.6V16.2a6.621,6.621,0,0,0-6.6-6.6h-6.6V3h-6.6V9.6h-6.6V3h-6.6V9.6H16.2a6.621,6.621,0,0,0-6.6,6.6v6.6H3v6.6H9.6v6.6H3v6.6H9.6v6.6a6.621,6.621,0,0,0,6.6,6.6h6.6v6.6h6.6v-6.6h6.6v6.6h6.6v-6.6h6.6a6.621,6.621,0,0,0,6.6-6.6v-6.6h6.6v-6.6h-6.6v-6.6Zm-13.2,19.805H16.2V16.2H49.213Z" transform="translate(6.903 6.903)" fill="#c4c4c4"/>
      </g>
      <g id="memory_black_24dp-3" data-name="memory_black_24dp" transform="translate(-5582.309 -1999.078)" opacity="0.2">
        <path id="Path_137-3" data-name="Path 137" d="M0,0H79.222V79.222H0Z" fill="#c4c4c4" opacity="0"/>
        <path id="Path_138-3" data-name="Path 138" d="M42.611,22.805H22.805V42.611H42.611Zm-6.6,13.2h-6.6v-6.6h6.6Zm26.407-6.6v-6.6h-6.6V16.2a6.621,6.621,0,0,0-6.6-6.6h-6.6V3h-6.6V9.6h-6.6V3h-6.6V9.6H16.2a6.621,6.621,0,0,0-6.6,6.6v6.6H3v6.6H9.6v6.6H3v6.6H9.6v6.6a6.621,6.621,0,0,0,6.6,6.6h6.6v6.6h6.6v-6.6h6.6v6.6h6.6v-6.6h6.6a6.621,6.621,0,0,0,6.6-6.6v-6.6h6.6v-6.6h-6.6v-6.6Zm-13.2,19.805H16.2V16.2H49.213Z" transform="translate(6.903 6.903)" fill="#c4c4c4"/>
      </g>
      <g id="webhook_black_24dp" transform="translate(-5582.309 -2448)" opacity="0.8">
        <g id="Group_153" data-name="Group 153">
          <rect id="Rectangle_94" data-name="Rectangle 94" width="79.222" height="79.222" fill="#fabc05" opacity="0"/>
        </g>
        <g id="Group_154" data-name="Group 154" transform="translate(6.602 6.602)">
          <path id="Path_139" data-name="Path 139" d="M2,48.213a16.545,16.545,0,0,1,8.186-14.26A3.324,3.324,0,0,1,15.2,36.791a3.259,3.259,0,0,1-1.65,2.839,9.907,9.907,0,0,0,6.932,18.287,10.185,10.185,0,0,0,7.922-10.1h0a2.888,2.888,0,0,1,2.9-2.9h16.5a4.862,4.862,0,0,1,3.7-1.65,4.951,4.951,0,1,1-3.7,8.252H34.679A16.506,16.506,0,0,1,2,48.213ZM49.434,18.5a3.3,3.3,0,0,0,3.2-4.126A16.5,16.5,0,1,0,25.271,30.454L17.514,43.327a5,5,0,0,0-3.961,4.885,4.951,4.951,0,1,0,9.9,0,4.379,4.379,0,0,0-.231-1.485l9.441-15.679a2.835,2.835,0,0,0-.924-3.928A9.916,9.916,0,0,1,36.659,8.6a9.892,9.892,0,0,1,9.54,7.262A3.435,3.435,0,0,0,49.434,18.5Zm2.08,19.805a10.086,10.086,0,0,0-3.6.66,2.971,2.971,0,0,1-3.565-1.353l-8.582-14.26A4.943,4.943,0,1,1,41.611,18.5a5.084,5.084,0,0,1-.2,1.419l7.229,12.048a16.3,16.3,0,0,1,2.872-.264h0a16.5,16.5,0,1,1-7.889,31,3.311,3.311,0,0,1,1.551-6.239,3.162,3.162,0,0,1,1.617.462,9.818,9.818,0,0,0,4.72,1.188,9.9,9.9,0,1,0,0-19.805Z" transform="translate(-2 -2)" fill="#fabc05"/>
        </g>
      </g>
      <g id="webhook_black_24dp-2" data-name="webhook_black_24dp" transform="translate(-5806.77 -2111.309)" opacity="0.3">
        <g id="Group_153-2" data-name="Group 153">
          <rect id="Rectangle_94-2" data-name="Rectangle 94" width="79.222" height="79.222" fill="#fabc05" opacity="0"/>
        </g>
        <g id="Group_154-2" data-name="Group 154" transform="translate(6.602 6.602)">
          <path id="Path_139-2" data-name="Path 139" d="M2,48.213a16.545,16.545,0,0,1,8.186-14.26A3.324,3.324,0,0,1,15.2,36.791a3.259,3.259,0,0,1-1.65,2.839,9.907,9.907,0,0,0,6.932,18.287,10.185,10.185,0,0,0,7.922-10.1h0a2.888,2.888,0,0,1,2.9-2.9h16.5a4.862,4.862,0,0,1,3.7-1.65,4.951,4.951,0,1,1-3.7,8.252H34.679A16.506,16.506,0,0,1,2,48.213ZM49.434,18.5a3.3,3.3,0,0,0,3.2-4.126A16.5,16.5,0,1,0,25.271,30.454L17.514,43.327a5,5,0,0,0-3.961,4.885,4.951,4.951,0,1,0,9.9,0,4.379,4.379,0,0,0-.231-1.485l9.441-15.679a2.835,2.835,0,0,0-.924-3.928A9.916,9.916,0,0,1,36.659,8.6a9.892,9.892,0,0,1,9.54,7.262A3.435,3.435,0,0,0,49.434,18.5Zm2.08,19.805a10.086,10.086,0,0,0-3.6.66,2.971,2.971,0,0,1-3.565-1.353l-8.582-14.26A4.943,4.943,0,1,1,41.611,18.5a5.084,5.084,0,0,1-.2,1.419l7.229,12.048a16.3,16.3,0,0,1,2.872-.264h0a16.5,16.5,0,1,1-7.889,31,3.311,3.311,0,0,1,1.551-6.239,3.162,3.162,0,0,1,1.617.462,9.818,9.818,0,0,0,4.72,1.188,9.9,9.9,0,1,0,0-19.805Z" transform="translate(-2 -2)" fill="#fabc05"/>
        </g>
      </g>
      <g id="webhook_black_24dp-3" data-name="webhook_black_24dp" transform="translate(-5694.539 -1999.078)" opacity="0.2">
        <g id="Group_153-3" data-name="Group 153">
          <rect id="Rectangle_94-3" data-name="Rectangle 94" width="79.222" height="79.222" fill="#fabc05" opacity="0.005"/>
        </g>
        <g id="Group_154-3" data-name="Group 154" transform="translate(6.602 6.602)">
          <path id="Path_139-3" data-name="Path 139" d="M2,48.213a16.545,16.545,0,0,1,8.186-14.26A3.324,3.324,0,0,1,15.2,36.791a3.259,3.259,0,0,1-1.65,2.839,9.907,9.907,0,0,0,6.932,18.287,10.185,10.185,0,0,0,7.922-10.1h0a2.888,2.888,0,0,1,2.9-2.9h16.5a4.862,4.862,0,0,1,3.7-1.65,4.951,4.951,0,1,1-3.7,8.252H34.679A16.506,16.506,0,0,1,2,48.213ZM49.434,18.5a3.3,3.3,0,0,0,3.2-4.126A16.5,16.5,0,1,0,25.271,30.454L17.514,43.327a5,5,0,0,0-3.961,4.885,4.951,4.951,0,1,0,9.9,0,4.379,4.379,0,0,0-.231-1.485l9.441-15.679a2.835,2.835,0,0,0-.924-3.928A9.916,9.916,0,0,1,36.659,8.6a9.892,9.892,0,0,1,9.54,7.262A3.435,3.435,0,0,0,49.434,18.5Zm2.08,19.805a10.086,10.086,0,0,0-3.6.66,2.971,2.971,0,0,1-3.565-1.353l-8.582-14.26A4.943,4.943,0,1,1,41.611,18.5a5.084,5.084,0,0,1-.2,1.419l7.229,12.048a16.3,16.3,0,0,1,2.872-.264h0a16.5,16.5,0,1,1-7.889,31,3.311,3.311,0,0,1,1.551-6.239,3.162,3.162,0,0,1,1.617.462,9.818,9.818,0,0,0,4.72,1.188,9.9,9.9,0,1,0,0-19.805Z" transform="translate(-2 -2)" fill="#fabc05"/>
        </g>
      </g>
      <g id="Group_155" data-name="Group 155" transform="translate(-5245.617 -2223.539)" opacity="0.5">
        <g id="android_black_24dp-4" data-name="android_black_24dp">
          <g id="Group_150-4" data-name="Group 150">
            <path id="Path_128-4" data-name="Path 128" d="M0,0H79.222V79.222H0Z" fill="#e94436" opacity="0"/>
          </g>
        </g>
        <path id="mic_black_24dp" d="M27.924,41.611a9.889,9.889,0,0,0,9.9-9.9V11.9a9.9,9.9,0,1,0-19.805,0V31.708A9.889,9.889,0,0,0,27.924,41.611Zm19.508-9.9A3.294,3.294,0,0,0,44.2,34.514a16.515,16.515,0,0,1-32.547,0,3.3,3.3,0,0,0-6.536.957A23.082,23.082,0,0,0,24.623,54.55v6.866a3.3,3.3,0,0,0,6.6,0V54.55A23.082,23.082,0,0,0,50.733,35.471,3.3,3.3,0,0,0,47.433,31.708Z" transform="translate(11.683 6.252)" fill="#e94436"/>
      </g>
      <g id="Group_160" data-name="Group 160" transform="translate(-5582.309 -2335.77)" opacity="0.7">
        <g id="android_black_24dp-5" data-name="android_black_24dp">
          <g id="Group_150-5" data-name="Group 150">
            <path id="Path_128-5" data-name="Path 128" d="M0,0H79.222V79.222H0Z" fill="#e94436" opacity="0"/>
          </g>
        </g>
        <path id="mic_black_24dp-2" data-name="mic_black_24dp" d="M27.924,41.611a9.889,9.889,0,0,0,9.9-9.9V11.9a9.9,9.9,0,1,0-19.805,0V31.708A9.889,9.889,0,0,0,27.924,41.611Zm19.508-9.9A3.294,3.294,0,0,0,44.2,34.514a16.515,16.515,0,0,1-32.547,0,3.3,3.3,0,0,0-6.536.957A23.082,23.082,0,0,0,24.623,54.55v6.866a3.3,3.3,0,0,0,6.6,0V54.55A23.082,23.082,0,0,0,50.733,35.471,3.3,3.3,0,0,0,47.433,31.708Z" transform="translate(11.683 6.252)" fill="#e94436"/>
      </g>
      <g id="Group_156" data-name="Group 156" transform="translate(-5582.309 -2111.309)" opacity="0.3">
        <g id="android_black_24dp-6" data-name="android_black_24dp">
          <g id="Group_150-6" data-name="Group 150">
            <path id="Path_128-6" data-name="Path 128" d="M0,0H79.222V79.222H0Z" fill="#e94436" opacity="0"/>
          </g>
        </g>
        <path id="mic_black_24dp-3" data-name="mic_black_24dp" d="M27.924,41.611a9.889,9.889,0,0,0,9.9-9.9V11.9a9.9,9.9,0,1,0-19.805,0V31.708A9.889,9.889,0,0,0,27.924,41.611Zm19.508-9.9A3.294,3.294,0,0,0,44.2,34.514a16.515,16.515,0,0,1-32.547,0,3.3,3.3,0,0,0-6.536.957A23.082,23.082,0,0,0,24.623,54.55v6.866a3.3,3.3,0,0,0,6.6,0V54.55A23.082,23.082,0,0,0,50.733,35.471,3.3,3.3,0,0,0,47.433,31.708Z" transform="translate(11.683 6.252)" fill="#e94436"/>
      </g>
      <g id="Group_159" data-name="Group 159" transform="translate(-5245.617 -1999.078)" opacity="0.2">
        <g id="android_black_24dp-7" data-name="android_black_24dp">
          <g id="Group_150-7" data-name="Group 150">
            <path id="Path_128-7" data-name="Path 128" d="M0,0H79.222V79.222H0Z" fill="#e94436" opacity="0"/>
          </g>
        </g>
        <path id="mic_black_24dp-4" data-name="mic_black_24dp" d="M27.924,41.611a9.889,9.889,0,0,0,9.9-9.9V11.9a9.9,9.9,0,1,0-19.805,0V31.708A9.889,9.889,0,0,0,27.924,41.611Zm19.508-9.9A3.294,3.294,0,0,0,44.2,34.514a16.515,16.515,0,0,1-32.547,0,3.3,3.3,0,0,0-6.536.957A23.082,23.082,0,0,0,24.623,54.55v6.866a3.3,3.3,0,0,0,6.6,0V54.55A23.082,23.082,0,0,0,50.733,35.471,3.3,3.3,0,0,0,47.433,31.708Z" transform="translate(11.683 6.252)" fill="#e94436"/>
      </g>
      <g id="Group_158" data-name="Group 158" transform="translate(-5470.078 -1999.078)" opacity="0.2">
        <g id="android_black_24dp-8" data-name="android_black_24dp">
          <g id="Group_150-8" data-name="Group 150">
            <path id="Path_128-8" data-name="Path 128" d="M0,0H79.222V79.222H0Z" fill="#e94436" opacity="0"/>
          </g>
        </g>
        <path id="mic_black_24dp-5" data-name="mic_black_24dp" d="M27.924,41.611a9.889,9.889,0,0,0,9.9-9.9V11.9a9.9,9.9,0,1,0-19.805,0V31.708A9.889,9.889,0,0,0,27.924,41.611Zm19.508-9.9A3.294,3.294,0,0,0,44.2,34.514a16.515,16.515,0,0,1-32.547,0,3.3,3.3,0,0,0-6.536.957A23.082,23.082,0,0,0,24.623,54.55v6.866a3.3,3.3,0,0,0,6.6,0V54.55A23.082,23.082,0,0,0,50.733,35.471,3.3,3.3,0,0,0,47.433,31.708Z" transform="translate(11.683 6.252)" fill="#e94436"/>
      </g>
    </g>
  </g>
</svg>
